%TF.GenerationSoftware,KiCad,Pcbnew,10.0.3*%
%TF.CreationDate,2026-06-11T23:10:56-05:00*%
%TF.ProjectId,OmniSort-Schematic,4f6d6e69-536f-4727-942d-536368656d61,rev?*%
%TF.SameCoordinates,Original*%
%TF.FileFunction,Copper,L2,Bot*%
%TF.FilePolarity,Positive*%
%FSLAX46Y46*%
G04 Gerber Fmt 4.6, Leading zero omitted, Abs format (unit mm)*
G04 Created by KiCad (PCBNEW 10.0.3) date 2026-06-11 23:10:56*
%MOMM*%
%LPD*%
G01*
G04 APERTURE LIST*
G04 Aperture macros list*
%AMRoundRect*
0 Rectangle with rounded corners*
0 $1 Rounding radius*
0 $2 $3 $4 $5 $6 $7 $8 $9 X,Y pos of 4 corners*
0 Add a 4 corners polygon primitive as box body*
4,1,4,$2,$3,$4,$5,$6,$7,$8,$9,$2,$3,0*
0 Add four circle primitives for the rounded corners*
1,1,$1+$1,$2,$3*
1,1,$1+$1,$4,$5*
1,1,$1+$1,$6,$7*
1,1,$1+$1,$8,$9*
0 Add four rect primitives between the rounded corners*
20,1,$1+$1,$2,$3,$4,$5,0*
20,1,$1+$1,$4,$5,$6,$7,0*
20,1,$1+$1,$6,$7,$8,$9,0*
20,1,$1+$1,$8,$9,$2,$3,0*%
G04 Aperture macros list end*
%TA.AperFunction,SMDPad,CuDef*%
%ADD10RoundRect,0.082000X-0.718000X0.328000X-0.718000X-0.328000X0.718000X-0.328000X0.718000X0.328000X0*%
%TD*%
%TA.AperFunction,ComponentPad*%
%ADD11C,2.200000*%
%TD*%
%TA.AperFunction,ComponentPad*%
%ADD12RoundRect,0.250000X-0.550000X-0.550000X0.550000X-0.550000X0.550000X0.550000X-0.550000X0.550000X0*%
%TD*%
%TA.AperFunction,ComponentPad*%
%ADD13C,1.600000*%
%TD*%
%TA.AperFunction,ComponentPad*%
%ADD14R,3.500000X1.700000*%
%TD*%
%TA.AperFunction,ComponentPad*%
%ADD15O,3.600000X1.700000*%
%TD*%
%TA.AperFunction,ComponentPad*%
%ADD16O,3.700000X1.700000*%
%TD*%
%TA.AperFunction,ComponentPad*%
%ADD17R,2.000000X2.000000*%
%TD*%
%TA.AperFunction,ComponentPad*%
%ADD18C,2.000000*%
%TD*%
%TA.AperFunction,ComponentPad*%
%ADD19R,3.200000X2.000000*%
%TD*%
%TA.AperFunction,ComponentPad*%
%ADD20R,1.700000X1.700000*%
%TD*%
%TA.AperFunction,ComponentPad*%
%ADD21C,1.700000*%
%TD*%
%TA.AperFunction,ViaPad*%
%ADD22C,0.600000*%
%TD*%
%TA.AperFunction,Conductor*%
%ADD23C,0.200000*%
%TD*%
G04 APERTURE END LIST*
D10*
%TO.P,D16,1,VDD_1*%
%TO.N,+5V*%
X127400001Y-43147158D03*
%TO.P,D16,2,DOUT_2*%
%TO.N,Net-(D16-DOUT)*%
X127400001Y-44647158D03*
%TO.P,D16,3,VSS_3*%
%TO.N,GND*%
X132600001Y-44647158D03*
%TO.P,D16,4,DIN_4*%
%TO.N,Net-(D15-DOUT)*%
X132600001Y-43147158D03*
%TD*%
%TO.P,D17,1,VDD_1*%
%TO.N,+5V*%
X147400001Y-43147158D03*
%TO.P,D17,2,DOUT_2*%
%TO.N,unconnected-(D17-DOUT-Pad2)*%
X147400001Y-44647158D03*
%TO.P,D17,3,VSS_3*%
%TO.N,GND*%
X152600001Y-44647158D03*
%TO.P,D17,4,DIN_4*%
%TO.N,Net-(D16-DOUT)*%
X152600001Y-43147158D03*
%TD*%
D11*
%TO.P,SW7,1,1_1*%
%TO.N,/COL2*%
X161640000Y-70970000D03*
%TO.P,SW7,2,2_2*%
%TO.N,Net-(D8-A)*%
X155290000Y-73510000D03*
%TD*%
D12*
%TO.P,D3,1,K_1*%
%TO.N,/ROW2*%
X101190000Y-97000000D03*
D13*
%TO.P,D3,2,A_2*%
%TO.N,Net-(D3-A)*%
X108810000Y-97000000D03*
%TD*%
D10*
%TO.P,D12,1,VDD_1*%
%TO.N,+5V*%
X147400001Y-107147158D03*
%TO.P,D12,2,DOUT_2*%
%TO.N,Net-(D12-DOUT)*%
X147400001Y-108647158D03*
%TO.P,D12,3,VSS_3*%
%TO.N,GND*%
X152600001Y-108647158D03*
%TO.P,D12,4,DIN_4*%
%TO.N,Net-(D11-DOUT)*%
X152600001Y-107147158D03*
%TD*%
%TO.P,D14,1,VDD_1*%
%TO.N,+5V*%
X102900001Y-84647158D03*
%TO.P,D14,2,DOUT_2*%
%TO.N,Net-(D14-DOUT)*%
X102900001Y-86147158D03*
%TO.P,D14,3,VSS_3*%
%TO.N,GND*%
X108100001Y-86147158D03*
%TO.P,D14,4,DIN_4*%
%TO.N,Net-(D13-DOUT)*%
X108100001Y-84647158D03*
%TD*%
D11*
%TO.P,SW6,1,1_1*%
%TO.N,/COL2*%
X161640000Y-51920000D03*
%TO.P,SW6,2,2_2*%
%TO.N,Net-(D7-A)*%
X155290000Y-54460000D03*
%TD*%
%TO.P,SW4,1,1_1*%
%TO.N,/COL1*%
X142590000Y-51920000D03*
%TO.P,SW4,2,2_2*%
%TO.N,Net-(D4-A)*%
X136240000Y-54460000D03*
%TD*%
D12*
%TO.P,D8,1,K_1*%
%TO.N,/ROW1*%
X171380000Y-76500000D03*
D13*
%TO.P,D8,2,A_2*%
%TO.N,Net-(D8-A)*%
X179000000Y-76500000D03*
%TD*%
D10*
%TO.P,D13,1,VDD_1*%
%TO.N,+5V*%
X127400001Y-107147158D03*
%TO.P,D13,2,DOUT_2*%
%TO.N,Net-(D13-DOUT)*%
X127400001Y-108647158D03*
%TO.P,D13,3,VSS_3*%
%TO.N,GND*%
X132600001Y-108647158D03*
%TO.P,D13,4,DIN_4*%
%TO.N,Net-(D12-DOUT)*%
X132600001Y-107147158D03*
%TD*%
%TO.P,D15,1,VDD_1*%
%TO.N,+5V*%
X103400001Y-65147158D03*
%TO.P,D15,2,DOUT_2*%
%TO.N,Net-(D15-DOUT)*%
X103400001Y-66647158D03*
%TO.P,D15,3,VSS_3*%
%TO.N,GND*%
X108600001Y-66647158D03*
%TO.P,D15,4,DIN_4*%
%TO.N,Net-(D14-DOUT)*%
X108600001Y-65147158D03*
%TD*%
D11*
%TO.P,SW5,1,1_1*%
%TO.N,/COL1*%
X142590000Y-90020000D03*
%TO.P,SW5,2,2_2*%
%TO.N,Net-(D6-A)*%
X136240000Y-92560000D03*
%TD*%
D14*
%TO.P,U1,1,PA02_A0_D0_1*%
%TO.N,/ROW0*%
X156875000Y-26380000D03*
D15*
%TO.P,U1,2,PA4_A1_D1_2*%
%TO.N,/ROW1*%
X156875000Y-28920000D03*
%TO.P,U1,3,PA10_A2_D2_3*%
%TO.N,/ROW2*%
X156875000Y-31460000D03*
%TO.P,U1,4,PA11_A3_D3_4*%
%TO.N,/COL0*%
X156875000Y-34000000D03*
%TO.P,U1,5,PA8_A4_D4_SDA_5*%
%TO.N,/OLED_SDA*%
X156875000Y-36540000D03*
%TO.P,U1,6,PA9_A5_D5_SCL_6*%
%TO.N,/OLED_SCL*%
X156875000Y-39080000D03*
%TO.P,U1,7,PB08_A6_D6_TX_7*%
%TO.N,/COL1*%
X156875000Y-41620000D03*
%TO.P,U1,8,PB09_A7_D7_RX_8*%
%TO.N,/ENC_A*%
X174125000Y-41620000D03*
%TO.P,U1,9,PA7_A8_D8_SCK_9*%
%TO.N,/ENC_B*%
X174125000Y-39080000D03*
%TO.P,U1,10,PA5_A9_D9_MISO_10*%
%TO.N,/COL2*%
X174125000Y-36540000D03*
D16*
%TO.P,U1,11,PA6_A10_D10_MOSI_11*%
%TO.N,/LED_DATA*%
X174125000Y-34000000D03*
%TO.P,U1,12,3V3_12*%
%TO.N,+3V3*%
X174125000Y-31460000D03*
%TO.P,U1,13,GND_13*%
%TO.N,GND*%
X174125000Y-28920000D03*
%TO.P,U1,14,5V_14*%
%TO.N,+5V*%
X174125000Y-26380000D03*
%TD*%
D11*
%TO.P,SW8,1,1_1*%
%TO.N,/COL2*%
X161640000Y-90020000D03*
%TO.P,SW8,2,2_2*%
%TO.N,Net-(D9-A)*%
X155290000Y-92560000D03*
%TD*%
D12*
%TO.P,D1,1,K_1*%
%TO.N,Net-(D1-K)*%
X101190000Y-55000000D03*
D13*
%TO.P,D1,2,A_2*%
%TO.N,/ROW0*%
X108810000Y-55000000D03*
%TD*%
D11*
%TO.P,SW2,1,1_1*%
%TO.N,/COL0*%
X123540000Y-70970000D03*
%TO.P,SW2,2,2_2*%
%TO.N,Net-(D2-A)*%
X117190000Y-73510000D03*
%TD*%
D10*
%TO.P,D11,1,VDD_1*%
%TO.N,+5V*%
X171900001Y-84647158D03*
%TO.P,D11,2,DOUT_2*%
%TO.N,Net-(D11-DOUT)*%
X171900001Y-86147158D03*
%TO.P,D11,3,VSS_3*%
%TO.N,GND*%
X177100001Y-86147158D03*
%TO.P,D11,4,DIN_4*%
%TO.N,Net-(D10-DOUT)*%
X177100001Y-84647158D03*
%TD*%
D12*
%TO.P,D5,1,K_1*%
%TO.N,/ROW1*%
X136380000Y-107500000D03*
D13*
%TO.P,D5,2,A_2*%
%TO.N,Net-(D5-A)*%
X144000000Y-107500000D03*
%TD*%
D12*
%TO.P,D9,1,K_1*%
%TO.N,/ROW2*%
X171190000Y-55000000D03*
D13*
%TO.P,D9,2,A_2*%
%TO.N,Net-(D9-A)*%
X178810000Y-55000000D03*
%TD*%
D11*
%TO.P,SW1,1,1_1*%
%TO.N,/COL0*%
X123540000Y-51920000D03*
%TO.P,SW1,2,2_2*%
%TO.N,/ROW0*%
X117190000Y-54460000D03*
%TD*%
D12*
%TO.P,D2,1,K_1*%
%TO.N,/ROW1*%
X101190000Y-76500000D03*
D13*
%TO.P,D2,2,A_2*%
%TO.N,Net-(D2-A)*%
X108810000Y-76500000D03*
%TD*%
D17*
%TO.P,SW9,A,A_A*%
%TO.N,/ENC_A*%
X132550000Y-72850000D03*
D18*
%TO.P,SW9,B,B_B*%
%TO.N,/ENC_B*%
X132550000Y-77850000D03*
%TO.P,SW9,C,C_C*%
%TO.N,GND*%
X132550000Y-75350000D03*
D19*
%TO.P,SW9,MP*%
%TO.N,N/C*%
X140050000Y-69750000D03*
X140050000Y-80950000D03*
D18*
%TO.P,SW9,S1,S1_S1*%
%TO.N,/COL1*%
X147050000Y-77850000D03*
%TO.P,SW9,S2,S2_S2*%
%TO.N,Net-(D5-A)*%
X147050000Y-72850000D03*
%TD*%
D10*
%TO.P,D10,1,VDD_1*%
%TO.N,+5V*%
X171900001Y-65147158D03*
%TO.P,D10,2,DOUT_2*%
%TO.N,Net-(D10-DOUT)*%
X171900001Y-66647158D03*
%TO.P,D10,3,VSS_3*%
%TO.N,GND*%
X177100001Y-66647158D03*
%TO.P,D10,4,DIN_4*%
%TO.N,/LED_DATA*%
X177100001Y-65147158D03*
%TD*%
D20*
%TO.P,J1,1,Pin_1_1*%
%TO.N,GND*%
X103000000Y-29920000D03*
D21*
%TO.P,J1,2,Pin_2_2*%
%TO.N,+3V3*%
X103000000Y-32460000D03*
%TO.P,J1,3,Pin_3_3*%
%TO.N,/OLED_SCL*%
X103000000Y-35000000D03*
%TO.P,J1,4,Pin_4_4*%
%TO.N,/OLED_SDA*%
X103000000Y-37540000D03*
%TD*%
D12*
%TO.P,D4,1,K_1*%
%TO.N,Net-(D1-K)*%
X115190000Y-107500000D03*
D13*
%TO.P,D4,2,A_2*%
%TO.N,Net-(D4-A)*%
X122810000Y-107500000D03*
%TD*%
D12*
%TO.P,D7,1,K_1*%
%TO.N,Net-(D1-K)*%
X171380000Y-97000000D03*
D13*
%TO.P,D7,2,A_2*%
%TO.N,Net-(D7-A)*%
X179000000Y-97000000D03*
%TD*%
D12*
%TO.P,D6,1,K_1*%
%TO.N,/ROW2*%
X157380000Y-107500000D03*
D13*
%TO.P,D6,2,A_2*%
%TO.N,Net-(D6-A)*%
X165000000Y-107500000D03*
%TD*%
D11*
%TO.P,SW3,1,1_1*%
%TO.N,/COL0*%
X123540000Y-90020000D03*
%TO.P,SW3,2,2_2*%
%TO.N,Net-(D3-A)*%
X117190000Y-92560000D03*
%TD*%
D22*
%TO.N,+5V*%
X105000000Y-80500000D03*
X157980000Y-104500000D03*
X160000000Y-104100000D03*
X100000000Y-65000000D03*
X127400001Y-107147158D03*
X127000000Y-102900000D03*
X113100000Y-101500000D03*
X126000000Y-40600000D03*
X100500000Y-88000000D03*
X181500000Y-43500000D03*
X136599998Y-104100000D03*
X169325735Y-80825735D03*
X134000000Y-104500000D03*
X111900000Y-101500000D03*
X101339265Y-85490736D03*
X169400000Y-45692822D03*
X173500000Y-63000000D03*
X170500000Y-82000000D03*
X173000000Y-46400000D03*
X178000000Y-43500000D03*
X173500000Y-61400000D03*
X105000000Y-78900000D03*
X170000000Y-71400000D03*
X100000000Y-68000000D03*
X139500000Y-42500000D03*
X173000000Y-48500000D03*
X171500000Y-45500000D03*
X138000000Y-43000000D03*
X142500000Y-42500000D03*
X160000000Y-102900000D03*
X156500000Y-104500000D03*
X141075735Y-42075735D03*
X126000000Y-39400000D03*
X170000000Y-74000000D03*
%TO.N,Net-(D16-DOUT)*%
X140500000Y-43500000D03*
X139825735Y-44674265D03*
%TO.N,GND*%
X155500000Y-108500000D03*
X155500000Y-111100000D03*
X177500000Y-46400000D03*
X109500000Y-68000000D03*
X112500000Y-74110000D03*
X132000000Y-105500000D03*
X164400000Y-109500000D03*
X177500000Y-48500000D03*
X132000000Y-104100000D03*
X132000000Y-93160000D03*
X109575735Y-85924265D03*
X176325735Y-43825735D03*
X130000000Y-85000000D03*
X131875735Y-102124265D03*
X178000000Y-30900000D03*
X134500000Y-105500000D03*
X177500000Y-32100000D03*
X133000000Y-111500000D03*
X132600001Y-108647158D03*
X157500000Y-45000000D03*
X180600000Y-66500000D03*
X133000000Y-109900000D03*
X129825735Y-87825735D03*
X132000000Y-91000000D03*
X112100000Y-66500000D03*
X132500000Y-101000000D03*
X112500000Y-82500000D03*
X176500000Y-45500000D03*
X129500000Y-87100000D03*
X177500000Y-34600000D03*
X177500000Y-33400000D03*
X112500000Y-72910000D03*
X166500000Y-109000000D03*
X178500000Y-68000000D03*
X131000000Y-88500000D03*
%TO.N,/COL2*%
X168500000Y-47600000D03*
X162000000Y-62500000D03*
X162000000Y-60900000D03*
X162000000Y-64400000D03*
X167500000Y-49500000D03*
X162000000Y-84400000D03*
X169000000Y-45000000D03*
X169400000Y-37000000D03*
X161500000Y-86000000D03*
X168624265Y-48375735D03*
%TO.N,/ROW2*%
X166500000Y-45500000D03*
X167000000Y-47600000D03*
%TO.N,Net-(D3-A)*%
X111900000Y-96000000D03*
X113100000Y-95500000D03*
%TO.N,Net-(D11-DOUT)*%
X162000000Y-104100000D03*
X162000000Y-102900000D03*
%TO.N,Net-(D14-DOUT)*%
X103000000Y-78900000D03*
X103000000Y-80100000D03*
X103500000Y-73000000D03*
X104174265Y-71825735D03*
%TO.N,Net-(D13-DOUT)*%
X115624697Y-105599758D03*
X114400000Y-105697065D03*
X113500000Y-105500000D03*
X111075735Y-86575735D03*
X112500000Y-103900000D03*
X112000000Y-87500000D03*
%TO.N,Net-(D7-A)*%
X168600000Y-90000000D03*
X167400000Y-90000000D03*
X167924265Y-83924265D03*
X167000000Y-81500000D03*
X167858578Y-71707108D03*
X167924265Y-63924265D03*
X168000000Y-68500000D03*
X170000000Y-90500000D03*
X167000000Y-61500000D03*
X172500001Y-90500000D03*
%TO.N,/COL1*%
X147674265Y-86825735D03*
X158500000Y-46000000D03*
X146500000Y-88000000D03*
X158000000Y-48500000D03*
%TO.N,Net-(D4-A)*%
X128500000Y-87100000D03*
X125000000Y-101000000D03*
X129000000Y-84000000D03*
X124400000Y-106199758D03*
%TO.N,/ROW1*%
X131000000Y-87500000D03*
X171500000Y-71000000D03*
X131000000Y-85900000D03*
X150100000Y-85000000D03*
X170000000Y-46400000D03*
X170500000Y-47600000D03*
X129900000Y-100000000D03*
X146500000Y-85000000D03*
X131100000Y-100500000D03*
X171500000Y-72600000D03*
%TO.N,/ROW0*%
X118500000Y-42500000D03*
X118174265Y-45674265D03*
X136000000Y-35000000D03*
X115000000Y-54500000D03*
X132075735Y-36924265D03*
X112400000Y-55000000D03*
%TO.N,/COL0*%
X123500000Y-87100000D03*
X123500000Y-84500000D03*
X123000000Y-42000000D03*
%TO.N,/OLED_SDA*%
X133000000Y-35000000D03*
X130000000Y-35000000D03*
%TO.N,/OLED_SCL*%
X130174265Y-33325735D03*
X128500000Y-33500000D03*
%TO.N,/ENC_A*%
X148000000Y-63000000D03*
X165000000Y-42000000D03*
X141990000Y-65500000D03*
X165000000Y-47600000D03*
X164500000Y-45500000D03*
%TO.N,/ENC_B*%
X165500000Y-39500000D03*
X171000000Y-39500000D03*
X162500000Y-48000000D03*
X131757793Y-62757793D03*
X131000000Y-60500000D03*
X162000000Y-45500000D03*
%TO.N,/LED_DATA*%
X176000000Y-60000000D03*
X176924265Y-61424265D03*
X178000000Y-45000000D03*
X176500000Y-48200000D03*
%TO.N,Net-(D1-K)*%
X112500000Y-107500000D03*
X110900000Y-107000000D03*
X129900000Y-103500000D03*
X158000000Y-103500000D03*
X156780000Y-103500000D03*
X115500000Y-103500000D03*
X136000000Y-103500000D03*
X115000000Y-105100000D03*
%TO.N,Net-(D10-DOUT)*%
X173500000Y-69500000D03*
X174000000Y-72600000D03*
%TO.N,Net-(D5-A)*%
X150100000Y-81500000D03*
X146192892Y-87100000D03*
X150100000Y-72500000D03*
%TD*%
%TO.N,+5V*%
D23*
X100000000Y-68500000D02*
X104500000Y-73000000D01*
X161100000Y-102900000D02*
X160000000Y-102900000D01*
X102500000Y-82000000D02*
X102500000Y-82500000D01*
X168400000Y-46600000D02*
X169500000Y-45500000D01*
X126000000Y-39400000D02*
X133400000Y-39400000D01*
X133600000Y-104900000D02*
X128100000Y-104900000D01*
X99000000Y-89500000D02*
X99000000Y-98500000D01*
X146600001Y-43147158D02*
X146000000Y-43747159D01*
X171100001Y-84647158D02*
X168000000Y-87747159D01*
X171500000Y-45500000D02*
X172100000Y-45500000D01*
X147500000Y-104500000D02*
X147000000Y-105000000D01*
X139500000Y-42500000D02*
X140651470Y-42500000D01*
X126000000Y-41747157D02*
X126000000Y-40600000D01*
X169500000Y-45592821D02*
X169400000Y-45692821D01*
X168000000Y-87747159D02*
X168000000Y-96000000D01*
X100000000Y-99500000D02*
X111000000Y-99500000D01*
X127400001Y-105599999D02*
X127400001Y-107147158D01*
X133400000Y-39400000D02*
X137000000Y-43000000D01*
X102500000Y-82500000D02*
X102900001Y-82900001D01*
X174500000Y-60400000D02*
X173500000Y-61400000D01*
X104500000Y-73000000D02*
X104500000Y-78400000D01*
X100500000Y-88000000D02*
X99000000Y-89500000D01*
X173500000Y-63000000D02*
X171000000Y-63000000D01*
X176000000Y-45000000D02*
X177500000Y-43500000D01*
X177500000Y-43500000D02*
X178000000Y-43500000D01*
X146000000Y-46500000D02*
X146100000Y-46600000D01*
X181500000Y-43500000D02*
X181500000Y-26500000D01*
X173000000Y-48500000D02*
X173000000Y-51500000D01*
X100147158Y-65147158D02*
X100000000Y-65000000D01*
X171000000Y-63000000D02*
X171000000Y-64247157D01*
X173000000Y-51500000D02*
X174500000Y-53000000D01*
X171752843Y-65000000D02*
X170000000Y-65000000D01*
X140651470Y-42500000D02*
X141075735Y-42075735D01*
X168500000Y-80000000D02*
X169325735Y-80825735D01*
X170000000Y-74000000D02*
X168500000Y-75500000D01*
X171000000Y-64247157D02*
X171900001Y-65147158D01*
X134000000Y-104500000D02*
X133600000Y-104900000D01*
X173245000Y-26500000D02*
X173125000Y-26380000D01*
X99000000Y-98500000D02*
X100000000Y-99500000D01*
X147400001Y-107147158D02*
X144352843Y-104100000D01*
X172100000Y-45500000D02*
X172600000Y-45000000D01*
X147000000Y-105000000D02*
X147400001Y-105400001D01*
X172100000Y-45500000D02*
X173000000Y-46400000D01*
X113100000Y-101500000D02*
X114500000Y-102900000D01*
X105000000Y-80500000D02*
X103500000Y-82000000D01*
X174500000Y-53000000D02*
X174500000Y-60400000D01*
X104500000Y-78400000D02*
X105000000Y-78900000D01*
X102900001Y-82900001D02*
X102900001Y-84647158D01*
X127400001Y-43147158D02*
X126000000Y-41747157D01*
X114500000Y-102900000D02*
X127000000Y-102900000D01*
X168000000Y-96000000D02*
X161100000Y-102900000D01*
X168500000Y-75500000D02*
X168500000Y-80000000D01*
X137000000Y-43000000D02*
X138000000Y-43000000D01*
X156500000Y-104500000D02*
X147500000Y-104500000D01*
X159600000Y-104500000D02*
X157980000Y-104500000D01*
X143147158Y-43147158D02*
X147400001Y-43147158D01*
X128100000Y-104900000D02*
X127400001Y-105599999D01*
X170000000Y-65000000D02*
X170000000Y-71400000D01*
X172600000Y-45000000D02*
X176000000Y-45000000D01*
X171000000Y-82500000D02*
X171000000Y-83747157D01*
X146000000Y-43747159D02*
X146000000Y-46500000D01*
X142500000Y-42500000D02*
X143147158Y-43147158D01*
X111000000Y-100600000D02*
X111900000Y-101500000D01*
X169500000Y-45592821D02*
X169400000Y-45692822D01*
X147400001Y-105400001D02*
X147400001Y-107147158D01*
X144352843Y-104100000D02*
X136599998Y-104100000D01*
X147400001Y-43147158D02*
X146600001Y-43147158D01*
X100000000Y-68000000D02*
X100000000Y-68500000D01*
X169500000Y-45500000D02*
X169500000Y-45592821D01*
X111000000Y-99500000D02*
X111000000Y-100600000D01*
X103500000Y-82000000D02*
X102500000Y-82000000D01*
X171000000Y-83747157D02*
X171900001Y-84647158D01*
X102900001Y-84647158D02*
X102182843Y-84647158D01*
X171900001Y-84647158D02*
X171100001Y-84647158D01*
X171900001Y-65147158D02*
X171752843Y-65000000D01*
X103400001Y-65147158D02*
X100147158Y-65147158D01*
X160000000Y-104100000D02*
X159600000Y-104500000D01*
X102182843Y-84647158D02*
X101339265Y-85490736D01*
X181500000Y-26500000D02*
X173245000Y-26500000D01*
X146100000Y-46600000D02*
X168400000Y-46600000D01*
X170500000Y-82000000D02*
X171000000Y-82500000D01*
%TO.N,Net-(D16-DOUT)*%
X127400001Y-46900001D02*
X127500000Y-47000000D01*
X152500000Y-40500000D02*
X152600001Y-40600001D01*
X152600001Y-40600001D02*
X152600001Y-43147158D01*
X143500000Y-40500000D02*
X152500000Y-40500000D01*
X140500000Y-43500000D02*
X143500000Y-40500000D01*
X127500000Y-47000000D02*
X140000000Y-47000000D01*
X127400001Y-44647158D02*
X127400001Y-46900001D01*
X140000000Y-47000000D02*
X140000000Y-44848530D01*
X140000000Y-44848530D02*
X139825735Y-44674265D01*
%TO.N,GND*%
X157000000Y-45500000D02*
X157500000Y-45000000D01*
X177900001Y-66647158D02*
X179600000Y-64947159D01*
X154500000Y-108500000D02*
X154352842Y-108647158D01*
X155500000Y-111500000D02*
X155500000Y-111100000D01*
X132600001Y-108647158D02*
X132600001Y-109500001D01*
X178000000Y-30900000D02*
X177500000Y-30400000D01*
X181000000Y-56500000D02*
X181000000Y-53000000D01*
X130674264Y-83174264D02*
X128348529Y-85500000D01*
X132000000Y-91000000D02*
X132000000Y-89500000D01*
X177500000Y-30400000D02*
X177500000Y-29000000D01*
X178500000Y-68000000D02*
X178452843Y-68000000D01*
X181000000Y-100000000D02*
X181000000Y-86000000D01*
X177500000Y-33400000D02*
X177500000Y-32100000D01*
X173000000Y-109000000D02*
X181500000Y-100500000D01*
X131875735Y-103975735D02*
X131875735Y-102124265D01*
X177400000Y-46400000D02*
X176500000Y-45500000D01*
X182000000Y-66500000D02*
X180600000Y-66500000D01*
X177500000Y-29000000D02*
X173205000Y-29000000D01*
X155500000Y-108500000D02*
X154500000Y-108500000D01*
X130000000Y-85000000D02*
X130674264Y-84325736D01*
X178452843Y-68000000D02*
X177100001Y-66647158D01*
X132600001Y-109500001D02*
X133000000Y-109900000D01*
X134500000Y-105500000D02*
X132000000Y-105500000D01*
X182500000Y-85000000D02*
X182500000Y-67000000D01*
X132000000Y-104100000D02*
X131875735Y-103975735D01*
X113250000Y-79250000D02*
X112000000Y-78000000D01*
X112500000Y-82500000D02*
X112500000Y-80000000D01*
X117500000Y-83500000D02*
X113250000Y-79250000D01*
X133000000Y-111500000D02*
X155500000Y-111500000D01*
X173205000Y-29000000D02*
X173125000Y-28920000D01*
X109500000Y-68000000D02*
X109500000Y-67547157D01*
X108100001Y-86147158D02*
X109352842Y-86147158D01*
X117500000Y-85500000D02*
X117500000Y-83500000D01*
X132500000Y-101000000D02*
X132000000Y-100500000D01*
X132000000Y-100500000D02*
X132000000Y-93160000D01*
X177500000Y-49500000D02*
X177500000Y-48500000D01*
X130674264Y-84325736D02*
X130674264Y-83174264D01*
X112500000Y-80000000D02*
X113250000Y-79250000D01*
X109500000Y-67547157D02*
X108600001Y-66647158D01*
X132000000Y-89500000D02*
X131000000Y-88500000D01*
X153452843Y-45500000D02*
X157000000Y-45500000D01*
X109352842Y-86147158D02*
X109575735Y-85924265D01*
X181500000Y-100500000D02*
X181000000Y-100000000D01*
X152600001Y-108647158D02*
X152500000Y-108747159D01*
X152600001Y-108647158D02*
X153452843Y-109500000D01*
X166500000Y-109000000D02*
X173000000Y-109000000D01*
X129825735Y-87825735D02*
X129825735Y-87425735D01*
X154352842Y-108647158D02*
X152600001Y-108647158D01*
X112500000Y-74110000D02*
X112500000Y-77500000D01*
X133850000Y-76650000D02*
X133850000Y-79998529D01*
X179600000Y-64947159D02*
X179600000Y-57900000D01*
X176325735Y-43825735D02*
X177500000Y-42651470D01*
X181000000Y-53000000D02*
X177500000Y-49500000D01*
X179600000Y-57900000D02*
X181000000Y-56500000D01*
X177500000Y-42651470D02*
X177500000Y-34600000D01*
X133850000Y-79998529D02*
X130674264Y-83174264D01*
X153452843Y-109500000D02*
X164400000Y-109500000D01*
X112100000Y-66500000D02*
X112500000Y-66900000D01*
X180852842Y-86147158D02*
X177100001Y-86147158D01*
X128348529Y-85500000D02*
X117500000Y-85500000D01*
X181352842Y-86147158D02*
X182500000Y-85000000D01*
X181000000Y-86000000D02*
X180852842Y-86147158D01*
X112500000Y-77500000D02*
X112000000Y-78000000D01*
X132550000Y-75350000D02*
X133850000Y-76650000D01*
X152600001Y-44647158D02*
X153452843Y-45500000D01*
X177100001Y-66647158D02*
X177900001Y-66647158D01*
X177100001Y-86147158D02*
X181352842Y-86147158D01*
X129825735Y-87425735D02*
X129500000Y-87100000D01*
X182500000Y-67000000D02*
X182000000Y-66500000D01*
X112500000Y-66900000D02*
X112500000Y-72910000D01*
X177500000Y-46400000D02*
X177400000Y-46400000D01*
%TO.N,Net-(D15-DOUT)*%
X98500000Y-63500000D02*
X98500000Y-67000000D01*
X99000000Y-63000000D02*
X98500000Y-63500000D01*
X113000000Y-50000000D02*
X113000000Y-63000000D01*
X132500000Y-43112531D02*
X132500000Y-40000000D01*
X98852842Y-66647158D02*
X103400001Y-66647158D01*
X132600001Y-43147158D02*
X132534627Y-43147158D01*
X132500000Y-40000000D02*
X123000000Y-40000000D01*
X123000000Y-40000000D02*
X113000000Y-50000000D01*
X98500000Y-67000000D02*
X98852842Y-66647158D01*
X132534627Y-43147158D02*
X132500000Y-43112531D01*
X113000000Y-63000000D02*
X99000000Y-63000000D01*
%TO.N,/COL2*%
X161640000Y-51920000D02*
X161640000Y-60540000D01*
X161640000Y-86140000D02*
X161640000Y-90020000D01*
X162000000Y-62500000D02*
X162000000Y-64400000D01*
X168624265Y-47724265D02*
X168500000Y-47600000D01*
X168624265Y-48375735D02*
X168624265Y-47724265D01*
X161640000Y-70970000D02*
X161640000Y-84040000D01*
X169000000Y-37500000D02*
X169500000Y-37000000D01*
X169000000Y-45000000D02*
X169000000Y-37500000D01*
X165080000Y-51920000D02*
X167500000Y-49500000D01*
X161500000Y-86000000D02*
X161640000Y-86140000D01*
X161640000Y-60540000D02*
X162000000Y-60900000D01*
X169500000Y-37000000D02*
X169400000Y-37000000D01*
X161640000Y-84040000D02*
X162000000Y-84400000D01*
X161640000Y-51920000D02*
X165080000Y-51920000D01*
%TO.N,Net-(D8-A)*%
X165500000Y-68500000D02*
X154500000Y-68500000D01*
X155290000Y-69290000D02*
X155290000Y-73510000D01*
X169000000Y-72000000D02*
X165500000Y-68500000D01*
X179000000Y-76500000D02*
X179000000Y-72000000D01*
X154500000Y-68500000D02*
X155290000Y-69290000D01*
X179000000Y-72000000D02*
X169000000Y-72000000D01*
%TO.N,/ROW2*%
X149500000Y-65000000D02*
X149000000Y-65500000D01*
X101500000Y-92000000D02*
X101500000Y-92500000D01*
X149000000Y-93000000D02*
X157380000Y-101380000D01*
X165000000Y-65000000D02*
X149500000Y-65000000D01*
X166500000Y-45500000D02*
X166500000Y-32000000D01*
X166500000Y-32000000D02*
X166000000Y-31500000D01*
X101190000Y-92810000D02*
X101190000Y-97000000D01*
X149000000Y-93000000D02*
X149000000Y-89000000D01*
X112000000Y-86500000D02*
X106500000Y-92000000D01*
X166000000Y-31500000D02*
X157915000Y-31500000D01*
X101500000Y-92500000D02*
X101190000Y-92810000D01*
X171190000Y-55000000D02*
X171190000Y-51790000D01*
X149000000Y-89000000D02*
X146500000Y-86500000D01*
X157380000Y-101380000D02*
X157380000Y-107500000D01*
X171190000Y-51790000D02*
X167000000Y-47600000D01*
X171190000Y-55000000D02*
X171190000Y-58810000D01*
X106500000Y-92000000D02*
X101500000Y-92000000D01*
X146500000Y-86500000D02*
X112000000Y-86500000D01*
X149000000Y-65500000D02*
X149000000Y-93000000D01*
X157915000Y-31500000D02*
X157875000Y-31460000D01*
X171190000Y-58810000D02*
X165000000Y-65000000D01*
%TO.N,Net-(D3-A)*%
X108810000Y-97000000D02*
X110900000Y-97000000D01*
X113100000Y-95500000D02*
X116040000Y-92560000D01*
X116040000Y-92560000D02*
X117190000Y-92560000D01*
X110900000Y-97000000D02*
X111900000Y-96000000D01*
%TO.N,Net-(D12-DOUT)*%
X133400001Y-107147158D02*
X134500000Y-108247157D01*
X132600001Y-107147158D02*
X133400001Y-107147158D01*
X134500000Y-110100000D02*
X135952842Y-108647158D01*
X134500000Y-108247157D02*
X134500000Y-110100000D01*
X135952842Y-108647158D02*
X147400001Y-108647158D01*
%TO.N,Net-(D11-DOUT)*%
X159400000Y-108600000D02*
X162000000Y-106000000D01*
X162000000Y-102900000D02*
X171900001Y-92999999D01*
X155142414Y-107147158D02*
X156595256Y-108600000D01*
X152600001Y-107147158D02*
X155142414Y-107147158D01*
X156595256Y-108600000D02*
X159400000Y-108600000D01*
X171900001Y-92999999D02*
X171900001Y-86147158D01*
X162000000Y-106000000D02*
X162000000Y-104100000D01*
%TO.N,Net-(D14-DOUT)*%
X104174265Y-71825735D02*
X107674265Y-71825735D01*
X100500000Y-85500000D02*
X100500000Y-82500000D01*
X101147158Y-86147158D02*
X100500000Y-85500000D01*
X111500000Y-65000000D02*
X111000000Y-65000000D01*
X102900000Y-80100000D02*
X103000000Y-80100000D01*
X103500000Y-78400000D02*
X103500000Y-73000000D01*
X103000000Y-78900000D02*
X103500000Y-78400000D01*
X102900001Y-86147158D02*
X101147158Y-86147158D01*
X110852842Y-65147158D02*
X108600001Y-65147158D01*
X111500000Y-68000000D02*
X111500000Y-65000000D01*
X111000000Y-65000000D02*
X110852842Y-65147158D01*
X100500000Y-82500000D02*
X102900000Y-80100000D01*
X107674265Y-71825735D02*
X111500000Y-68000000D01*
%TO.N,Net-(D13-DOUT)*%
X125000000Y-105699516D02*
X125000000Y-109000000D01*
X108100001Y-84647158D02*
X109147158Y-84647158D01*
X124900242Y-105599758D02*
X125000000Y-105699516D01*
X112000000Y-87500000D02*
X112500000Y-88000000D01*
X113500000Y-105500000D02*
X114202935Y-105500000D01*
X125000000Y-109000000D02*
X125352842Y-108647158D01*
X115624697Y-105599758D02*
X124900242Y-105599758D01*
X114202935Y-105500000D02*
X114400000Y-105697065D01*
X112500000Y-88000000D02*
X112500000Y-103900000D01*
X125352842Y-108647158D02*
X127400001Y-108647158D01*
X109147158Y-84647158D02*
X111075735Y-86575735D01*
%TO.N,Net-(D7-A)*%
X179000000Y-97000000D02*
X179000000Y-94500000D01*
X167400000Y-84448530D02*
X167924265Y-83924265D01*
X167400000Y-90000000D02*
X167400000Y-84448530D01*
X167000000Y-81500000D02*
X167858578Y-80641422D01*
X179000000Y-94500000D02*
X175000000Y-90500000D01*
X167858578Y-80641422D02*
X167858578Y-71707108D01*
X155290000Y-59790000D02*
X155290000Y-54460000D01*
X175000000Y-90500000D02*
X172500001Y-90500000D01*
X168000000Y-64000000D02*
X167924265Y-63924265D01*
X170000000Y-90500000D02*
X169100000Y-90500000D01*
X169100000Y-90500000D02*
X168600000Y-90000000D01*
X168000000Y-68500000D02*
X168000000Y-64000000D01*
X157000000Y-61500000D02*
X155290000Y-59790000D01*
X167000000Y-61500000D02*
X157000000Y-61500000D01*
%TO.N,/COL1*%
X142590000Y-51920000D02*
X142590000Y-73390000D01*
X142590000Y-51920000D02*
X146010000Y-48500000D01*
X147674265Y-78474265D02*
X147674265Y-86825735D01*
X142590000Y-73390000D02*
X147050000Y-77850000D01*
X146010000Y-48500000D02*
X158000000Y-48500000D01*
X146500000Y-88000000D02*
X144610000Y-88000000D01*
X144610000Y-88000000D02*
X142590000Y-90020000D01*
X158500000Y-42245000D02*
X157875000Y-41620000D01*
X147050000Y-77850000D02*
X147674265Y-78474265D01*
X158500000Y-46000000D02*
X158500000Y-42245000D01*
%TO.N,Net-(D4-A)*%
X129000000Y-84000000D02*
X129000000Y-64667056D01*
X124110242Y-106199758D02*
X124400000Y-106199758D01*
X136240000Y-57427056D02*
X136240000Y-54460000D01*
X129000000Y-64667056D02*
X136240000Y-57427056D01*
X128500000Y-97500000D02*
X128500000Y-87100000D01*
X122810000Y-107500000D02*
X124110242Y-106199758D01*
X125000000Y-101000000D02*
X128500000Y-97500000D01*
%TO.N,/ROW1*%
X114400000Y-85900000D02*
X108000000Y-79500000D01*
X180000000Y-58500000D02*
X181500000Y-57000000D01*
X136380000Y-105780000D02*
X136380000Y-107500000D01*
X131000000Y-87500000D02*
X129900000Y-88600000D01*
X171380000Y-76500000D02*
X171380000Y-79620000D01*
X171380000Y-72720000D02*
X171500000Y-72600000D01*
X131100000Y-100500000D02*
X136380000Y-105780000D01*
X101000000Y-79000000D02*
X101190000Y-78810000D01*
X181500000Y-57000000D02*
X181500000Y-51000000D01*
X129900000Y-88600000D02*
X129900000Y-100000000D01*
X101190000Y-78810000D02*
X101190000Y-76500000D01*
X101000000Y-79500000D02*
X101000000Y-79000000D01*
X131900000Y-85000000D02*
X131000000Y-85900000D01*
X179500000Y-71000000D02*
X180000000Y-70500000D01*
X170000000Y-46400000D02*
X170000000Y-32500000D01*
X178100000Y-47600000D02*
X170500000Y-47600000D01*
X171380000Y-79620000D02*
X166000000Y-85000000D01*
X146500000Y-85000000D02*
X131900000Y-85000000D01*
X131000000Y-85900000D02*
X114400000Y-85900000D01*
X180000000Y-70500000D02*
X180000000Y-58500000D01*
X166000000Y-85000000D02*
X150100000Y-85000000D01*
X171500000Y-71000000D02*
X179500000Y-71000000D01*
X108000000Y-79500000D02*
X101000000Y-79500000D01*
X171380000Y-76500000D02*
X171380000Y-72720000D01*
X170000000Y-32500000D02*
X166420000Y-28920000D01*
X166420000Y-28920000D02*
X157875000Y-28920000D01*
X181500000Y-51000000D02*
X178100000Y-47600000D01*
%TO.N,Net-(D6-A)*%
X164500000Y-110500000D02*
X112500000Y-110500000D01*
X112500000Y-110500000D02*
X111500000Y-109500000D01*
X130500000Y-92500000D02*
X130560000Y-92560000D01*
X130500000Y-104500000D02*
X130500000Y-92500000D01*
X165000000Y-110000000D02*
X164500000Y-110500000D01*
X165000000Y-107500000D02*
X165000000Y-110000000D01*
X111500000Y-109500000D02*
X111500000Y-104500000D01*
X111500000Y-104500000D02*
X130500000Y-104500000D01*
X130560000Y-92560000D02*
X136240000Y-92560000D01*
%TO.N,/ROW0*%
X115040000Y-54460000D02*
X117190000Y-54460000D01*
X136000000Y-35000000D02*
X144620000Y-26380000D01*
X117190000Y-54460000D02*
X117190000Y-46658530D01*
X117190000Y-46658530D02*
X118174265Y-45674265D01*
X108810000Y-55000000D02*
X112400000Y-55000000D01*
X131651470Y-36500000D02*
X132075735Y-36924265D01*
X144620000Y-26380000D02*
X157875000Y-26380000D01*
X118500000Y-42500000D02*
X124500000Y-36500000D01*
X124500000Y-36500000D02*
X131651470Y-36500000D01*
X115000000Y-54500000D02*
X115040000Y-54460000D01*
%TO.N,/COL0*%
X123540000Y-90020000D02*
X123540000Y-87140000D01*
X123500000Y-80500000D02*
X123540000Y-80460000D01*
X123540000Y-70970000D02*
X123540000Y-51920000D01*
X123500000Y-84500000D02*
X123500000Y-80500000D01*
X123540000Y-42540000D02*
X123000000Y-42000000D01*
X123540000Y-51920000D02*
X123540000Y-42540000D01*
X123540000Y-87140000D02*
X123500000Y-87100000D01*
X123540000Y-80460000D02*
X123540000Y-70970000D01*
%TO.N,/OLED_SDA*%
X105540000Y-35000000D02*
X130000000Y-35000000D01*
X134540000Y-36540000D02*
X157875000Y-36540000D01*
X103000000Y-37540000D02*
X105540000Y-35000000D01*
X133000000Y-35000000D02*
X134540000Y-36540000D01*
%TO.N,/OLED_SCL*%
X135928530Y-39080000D02*
X157875000Y-39080000D01*
X130174265Y-33325735D02*
X135928530Y-39080000D01*
X104500000Y-33500000D02*
X128500000Y-33500000D01*
X103000000Y-35000000D02*
X104500000Y-33500000D01*
%TO.N,/ENC_A*%
X132550000Y-72850000D02*
X132550000Y-70950000D01*
X148000000Y-63000000D02*
X148000000Y-53000000D01*
X132550000Y-70950000D02*
X138000000Y-65500000D01*
X164500000Y-45500000D02*
X164500000Y-42500000D01*
X164500000Y-42500000D02*
X165000000Y-42000000D01*
X148000000Y-53000000D02*
X151500000Y-49500000D01*
X138000000Y-65500000D02*
X141990000Y-65500000D01*
X151500000Y-49500000D02*
X163100000Y-49500000D01*
X163100000Y-49500000D02*
X165000000Y-47600000D01*
%TO.N,/ENC_B*%
X130000000Y-81000000D02*
X130000000Y-64515586D01*
X132550000Y-80450000D02*
X132000000Y-81000000D01*
X132000000Y-81000000D02*
X130000000Y-81000000D01*
X130000000Y-64515586D02*
X131757793Y-62757793D01*
X134100000Y-47900000D02*
X162400000Y-47900000D01*
X163500000Y-39500000D02*
X165500000Y-39500000D01*
X131000000Y-51000000D02*
X134100000Y-47900000D01*
X162000000Y-45500000D02*
X162000000Y-41000000D01*
X132550000Y-77850000D02*
X132550000Y-80450000D01*
X171000000Y-39500000D02*
X172705000Y-39500000D01*
X131000000Y-60500000D02*
X131000000Y-51000000D01*
X162400000Y-47900000D02*
X162500000Y-48000000D01*
X162000000Y-41000000D02*
X163500000Y-39500000D01*
X172705000Y-39500000D02*
X173125000Y-39080000D01*
%TO.N,/LED_DATA*%
X177100001Y-61600001D02*
X176924265Y-61424265D01*
X179000000Y-34000000D02*
X173125000Y-34000000D01*
X179000000Y-44000000D02*
X179000000Y-34000000D01*
X176000000Y-48700000D02*
X176500000Y-48200000D01*
X177100001Y-65147158D02*
X177100001Y-61600001D01*
X178000000Y-45000000D02*
X179000000Y-44000000D01*
X176000000Y-60000000D02*
X176000000Y-48700000D01*
%TO.N,+3V3*%
X143000000Y-47000000D02*
X180000000Y-47000000D01*
X173165000Y-31500000D02*
X173125000Y-31460000D01*
X180500000Y-46500000D02*
X180500000Y-31500000D01*
X128460000Y-32460000D02*
X143000000Y-47000000D01*
X103000000Y-32460000D02*
X128460000Y-32460000D01*
X180500000Y-31500000D02*
X173165000Y-31500000D01*
X180000000Y-47000000D02*
X180500000Y-46500000D01*
%TO.N,Net-(D9-A)*%
X178810000Y-55000000D02*
X178810000Y-58690000D01*
X169000000Y-62000000D02*
X166000000Y-65000000D01*
X166000000Y-65000000D02*
X166000000Y-67000000D01*
X178810000Y-58690000D02*
X175500000Y-62000000D01*
X149560000Y-92560000D02*
X155290000Y-92560000D01*
X175500000Y-62000000D02*
X169000000Y-62000000D01*
X149500000Y-92500000D02*
X149560000Y-92560000D01*
X150000000Y-67000000D02*
X149500000Y-66500000D01*
X166000000Y-67000000D02*
X150000000Y-67000000D01*
X149500000Y-66500000D02*
X149500000Y-92500000D01*
%TO.N,Net-(D1-K)*%
X171380000Y-100380000D02*
X171380000Y-97000000D01*
X171500000Y-100500000D02*
X171380000Y-100380000D01*
X136000000Y-103500000D02*
X156780000Y-103500000D01*
X115190000Y-107500000D02*
X115000000Y-107310000D01*
X168500000Y-103500000D02*
X171500000Y-100500000D01*
X115500000Y-103500000D02*
X129900000Y-103500000D01*
X115000000Y-107310000D02*
X115000000Y-105100000D01*
X98100000Y-58090000D02*
X98100000Y-98600000D01*
X101190000Y-55000000D02*
X98100000Y-58090000D01*
X158000000Y-103500000D02*
X168500000Y-103500000D01*
X110500000Y-100500000D02*
X110500000Y-107000000D01*
X112500000Y-107500000D02*
X115190000Y-107500000D01*
X98100000Y-98600000D02*
X100000000Y-100500000D01*
X100000000Y-100500000D02*
X110500000Y-100500000D01*
X110500000Y-107000000D02*
X110900000Y-107000000D01*
%TO.N,Net-(D2-A)*%
X108810000Y-76500000D02*
X111800000Y-73510000D01*
X111800000Y-73510000D02*
X117190000Y-73510000D01*
%TO.N,Net-(D10-DOUT)*%
X174500000Y-74000000D02*
X174000000Y-73500000D01*
X171900001Y-67900001D02*
X171900001Y-66647158D01*
X174500000Y-77000000D02*
X174500000Y-74000000D01*
X177100001Y-79600001D02*
X174500000Y-77000000D01*
X174000000Y-73500000D02*
X174000000Y-72600000D01*
X177100001Y-84647158D02*
X177100001Y-79600001D01*
X173500000Y-69500000D02*
X171900001Y-67900001D01*
%TO.N,Net-(D5-A)*%
X139151471Y-107500000D02*
X135400000Y-103748529D01*
X144000000Y-107500000D02*
X139151471Y-107500000D01*
X141190000Y-89440101D02*
X143730101Y-86900000D01*
X141190000Y-90599899D02*
X141190000Y-89440101D01*
X135400000Y-103748529D02*
X135400000Y-96389899D01*
X150100000Y-81500000D02*
X150100000Y-72500000D01*
X146334314Y-86900000D02*
X146334314Y-86958578D01*
X143730101Y-86900000D02*
X146334314Y-86900000D01*
X146334314Y-86958578D02*
X146192892Y-87100000D01*
X135400000Y-96389899D02*
X141190000Y-90599899D01*
%TD*%
%TA.AperFunction,Conductor*%
%TO.N,GND*%
G36*
X132793040Y-108666843D02*
G01*
X132838795Y-108719647D01*
X132850001Y-108771158D01*
X132850001Y-109557158D01*
X133356148Y-109557158D01*
X133469931Y-109542178D01*
X133469936Y-109542176D01*
X133611507Y-109483536D01*
X133611513Y-109483533D01*
X133700013Y-109415624D01*
X133765182Y-109390429D01*
X133833627Y-109404467D01*
X133883617Y-109453280D01*
X133899500Y-109513999D01*
X133899500Y-109775500D01*
X133879815Y-109842539D01*
X133827011Y-109888294D01*
X133775500Y-109899500D01*
X132148151Y-109899500D01*
X132135178Y-109895690D01*
X132121689Y-109896644D01*
X132102306Y-109886038D01*
X132081112Y-109879815D01*
X132072258Y-109869597D01*
X132060395Y-109863106D01*
X132049823Y-109843705D01*
X132035357Y-109827011D01*
X132033432Y-109813628D01*
X132026962Y-109801754D01*
X132028556Y-109779718D01*
X132025413Y-109757853D01*
X132031138Y-109744046D01*
X132032006Y-109732067D01*
X132048948Y-109701104D01*
X132119698Y-109606762D01*
X132175667Y-109564939D01*
X132218901Y-109557158D01*
X132350001Y-109557158D01*
X132350001Y-108771158D01*
X132369686Y-108704119D01*
X132422490Y-108658364D01*
X132474001Y-108647158D01*
X132726001Y-108647158D01*
X132793040Y-108666843D01*
G37*
%TD.AperFunction*%
%TA.AperFunction,Conductor*%
G36*
X134734754Y-104999837D02*
G01*
X134779102Y-105028338D01*
X135743181Y-105992416D01*
X135776666Y-106053739D01*
X135779500Y-106080097D01*
X135779500Y-106087837D01*
X135759815Y-106154876D01*
X135707011Y-106200631D01*
X135681459Y-106209089D01*
X135677207Y-106209999D01*
X135510668Y-106265185D01*
X135510663Y-106265187D01*
X135361342Y-106357289D01*
X135237289Y-106481342D01*
X135145187Y-106630663D01*
X135145185Y-106630668D01*
X135133114Y-106667096D01*
X135090001Y-106797203D01*
X135090001Y-106797204D01*
X135090000Y-106797204D01*
X135079500Y-106899983D01*
X135079500Y-107678059D01*
X135059815Y-107745098D01*
X135007011Y-107790853D01*
X134937853Y-107800797D01*
X134874297Y-107771772D01*
X134867819Y-107765740D01*
X133932908Y-106830829D01*
X133899423Y-106769506D01*
X133897650Y-106759331D01*
X133885509Y-106667103D01*
X133885508Y-106667095D01*
X133826813Y-106525395D01*
X133733445Y-106403714D01*
X133611764Y-106310346D01*
X133611763Y-106310345D01*
X133470064Y-106251651D01*
X133470062Y-106251650D01*
X133356179Y-106236658D01*
X133356178Y-106236658D01*
X132218524Y-106236658D01*
X132151485Y-106216973D01*
X132119321Y-106187054D01*
X132110882Y-106175801D01*
X132044528Y-106087321D01*
X132044523Y-106087316D01*
X131910352Y-105963490D01*
X131910344Y-105963484D01*
X131755960Y-105865984D01*
X131646067Y-105821928D01*
X131586482Y-105798040D01*
X131586478Y-105798039D01*
X131407496Y-105761896D01*
X131224929Y-105758749D01*
X131224928Y-105758749D01*
X131224923Y-105758749D01*
X131044811Y-105788701D01*
X131044807Y-105788702D01*
X130873087Y-105850762D01*
X130858586Y-105859211D01*
X130858489Y-105859267D01*
X130851364Y-105863408D01*
X130851095Y-105863483D01*
X130823069Y-105879859D01*
X130820128Y-105880581D01*
X130760746Y-105896659D01*
X129279055Y-105896659D01*
X129279039Y-105896658D01*
X129271443Y-105896658D01*
X129239257Y-105896658D01*
X129176700Y-105879722D01*
X129142690Y-105859849D01*
X129141444Y-105859227D01*
X129141417Y-105859211D01*
X129126917Y-105850763D01*
X129126916Y-105850762D01*
X129126915Y-105850762D01*
X128955194Y-105788701D01*
X128955190Y-105788700D01*
X128775078Y-105758748D01*
X128775073Y-105758748D01*
X128622933Y-105761371D01*
X128592504Y-105761896D01*
X128413523Y-105798038D01*
X128413517Y-105798040D01*
X128370578Y-105815254D01*
X128301028Y-105821928D01*
X128238910Y-105789941D01*
X128203947Y-105729449D01*
X128207239Y-105659657D01*
X128236753Y-105612481D01*
X128312418Y-105536816D01*
X128373740Y-105503334D01*
X128400097Y-105500500D01*
X133513331Y-105500500D01*
X133513347Y-105500501D01*
X133520943Y-105500501D01*
X133679054Y-105500501D01*
X133679057Y-105500501D01*
X133831785Y-105459577D01*
X133898328Y-105421158D01*
X133968716Y-105380520D01*
X134020942Y-105328293D01*
X134028042Y-105322980D01*
X134052796Y-105313749D01*
X134075984Y-105301088D01*
X134078152Y-105300637D01*
X134078841Y-105300500D01*
X134078842Y-105300500D01*
X134233497Y-105269737D01*
X134379179Y-105209394D01*
X134510289Y-105121789D01*
X134603741Y-105028336D01*
X134665062Y-104994853D01*
X134734754Y-104999837D01*
G37*
%TD.AperFunction*%
%TA.AperFunction,Conductor*%
G36*
X131305703Y-101555384D02*
G01*
X131312179Y-101561414D01*
X132399861Y-102649097D01*
X133471661Y-103720897D01*
X133505146Y-103782220D01*
X133500162Y-103851912D01*
X133471662Y-103896259D01*
X133378210Y-103989711D01*
X133290609Y-104120814D01*
X133290602Y-104120827D01*
X133248302Y-104222952D01*
X133204462Y-104277356D01*
X133138167Y-104299421D01*
X133133741Y-104299500D01*
X131224500Y-104299500D01*
X131157461Y-104279815D01*
X131111706Y-104227011D01*
X131100500Y-104175500D01*
X131100500Y-101649097D01*
X131120185Y-101582058D01*
X131172989Y-101536303D01*
X131242147Y-101526359D01*
X131305703Y-101555384D01*
G37*
%TD.AperFunction*%
%TA.AperFunction,Conductor*%
G36*
X134688302Y-93164787D02*
G01*
X134703508Y-93164136D01*
X134721146Y-93174432D01*
X134740739Y-93180185D01*
X134751635Y-93192228D01*
X134763849Y-93199358D01*
X134784183Y-93228203D01*
X134855774Y-93368708D01*
X134871132Y-93398848D01*
X135019201Y-93602649D01*
X135019205Y-93602654D01*
X135019207Y-93602656D01*
X135197344Y-93780793D01*
X135197345Y-93780794D01*
X135197344Y-93780794D01*
X135203661Y-93785383D01*
X135246327Y-93840714D01*
X135252305Y-93910327D01*
X135219699Y-93972122D01*
X135158860Y-94006479D01*
X135111378Y-94008174D01*
X135056611Y-93999500D01*
X134883389Y-93999500D01*
X134861007Y-94003045D01*
X134712302Y-94026597D01*
X134547552Y-94080128D01*
X134393211Y-94158768D01*
X134341690Y-94196201D01*
X134253072Y-94260586D01*
X134253070Y-94260588D01*
X134253069Y-94260588D01*
X134130588Y-94383069D01*
X134130588Y-94383070D01*
X134130586Y-94383072D01*
X134090255Y-94438583D01*
X134028768Y-94523211D01*
X133950128Y-94677552D01*
X133896597Y-94842302D01*
X133869500Y-95013389D01*
X133869500Y-95186611D01*
X133876414Y-95230263D01*
X133885970Y-95290602D01*
X133896598Y-95357701D01*
X133950127Y-95522445D01*
X134028768Y-95676788D01*
X134130586Y-95816928D01*
X134253072Y-95939414D01*
X134393212Y-96041232D01*
X134547555Y-96119873D01*
X134712299Y-96173402D01*
X134712303Y-96173402D01*
X134715191Y-96174341D01*
X134735958Y-96188540D01*
X134758763Y-96199159D01*
X134764305Y-96207923D01*
X134772867Y-96213778D01*
X134782660Y-96236952D01*
X134796104Y-96258213D01*
X134797047Y-96270997D01*
X134800065Y-96278137D01*
X134800870Y-96293184D01*
X134800775Y-96306079D01*
X134799499Y-96310842D01*
X134799499Y-96468956D01*
X134799500Y-96468959D01*
X134799500Y-96479462D01*
X134799500Y-103050902D01*
X134779815Y-103117941D01*
X134727011Y-103163696D01*
X134657853Y-103173640D01*
X134594297Y-103144615D01*
X134587819Y-103138583D01*
X131934573Y-100485337D01*
X131901088Y-100424014D01*
X131900637Y-100421847D01*
X131890751Y-100372148D01*
X131869737Y-100266503D01*
X131856062Y-100233489D01*
X131809397Y-100120827D01*
X131809390Y-100120814D01*
X131721789Y-99989711D01*
X131721786Y-99989707D01*
X131610292Y-99878213D01*
X131610288Y-99878210D01*
X131479185Y-99790609D01*
X131479172Y-99790602D01*
X131333501Y-99730264D01*
X131333491Y-99730261D01*
X131200308Y-99703769D01*
X131138397Y-99671384D01*
X131103823Y-99610668D01*
X131100500Y-99582152D01*
X131100500Y-93284500D01*
X131120185Y-93217461D01*
X131172989Y-93171706D01*
X131224500Y-93160500D01*
X134673700Y-93160500D01*
X134688302Y-93164787D01*
G37*
%TD.AperFunction*%
%TA.AperFunction,Conductor*%
G36*
X99387940Y-67267343D02*
G01*
X99433695Y-67320147D01*
X99443639Y-67389305D01*
X99414614Y-67452861D01*
X99408582Y-67459339D01*
X99378213Y-67489707D01*
X99378210Y-67489711D01*
X99290609Y-67620814D01*
X99290602Y-67620827D01*
X99230264Y-67766498D01*
X99230261Y-67766510D01*
X99199500Y-67921153D01*
X99199500Y-68078846D01*
X99230261Y-68233489D01*
X99230264Y-68233501D01*
X99290602Y-68379172D01*
X99290609Y-68379185D01*
X99378601Y-68510873D01*
X99397467Y-68571124D01*
X99398438Y-68570997D01*
X99399171Y-68576568D01*
X99399479Y-68577550D01*
X99399492Y-68579002D01*
X99399498Y-68579054D01*
X99440014Y-68730261D01*
X99440423Y-68731785D01*
X99462335Y-68769737D01*
X99519479Y-68868714D01*
X99519481Y-68868717D01*
X99638349Y-68987585D01*
X99638355Y-68987590D01*
X102921662Y-72270897D01*
X102955147Y-72332220D01*
X102950163Y-72401912D01*
X102921662Y-72446259D01*
X102878213Y-72489707D01*
X102878210Y-72489711D01*
X102790609Y-72620814D01*
X102790602Y-72620827D01*
X102730264Y-72766498D01*
X102730261Y-72766510D01*
X102699500Y-72921153D01*
X102699500Y-73078846D01*
X102730261Y-73233489D01*
X102730264Y-73233501D01*
X102790602Y-73379172D01*
X102790609Y-73379185D01*
X102878602Y-73510874D01*
X102899480Y-73577551D01*
X102899500Y-73579765D01*
X102899500Y-78002044D01*
X102879815Y-78069083D01*
X102827011Y-78114838D01*
X102799691Y-78123661D01*
X102766510Y-78130261D01*
X102766498Y-78130264D01*
X102620827Y-78190602D01*
X102620814Y-78190609D01*
X102489711Y-78278210D01*
X102489707Y-78278213D01*
X102378213Y-78389707D01*
X102378210Y-78389711D01*
X102290609Y-78520814D01*
X102290602Y-78520827D01*
X102230264Y-78666498D01*
X102230261Y-78666508D01*
X102203769Y-78799692D01*
X102189054Y-78827822D01*
X102175865Y-78856703D01*
X102172975Y-78858559D01*
X102171384Y-78861603D01*
X102143791Y-78877315D01*
X102117087Y-78894477D01*
X102112493Y-78895137D01*
X102110668Y-78896177D01*
X102082152Y-78899500D01*
X101914501Y-78899500D01*
X101847462Y-78879815D01*
X101801707Y-78827011D01*
X101790501Y-78775500D01*
X101790501Y-78723347D01*
X101790500Y-78723329D01*
X101790500Y-77912162D01*
X101810185Y-77845123D01*
X101862989Y-77799368D01*
X101888552Y-77790907D01*
X101892788Y-77789999D01*
X101892797Y-77789999D01*
X102059334Y-77734814D01*
X102208656Y-77642712D01*
X102332712Y-77518656D01*
X102424814Y-77369334D01*
X102479999Y-77202797D01*
X102490500Y-77100009D01*
X102490499Y-75899992D01*
X102485312Y-75849219D01*
X102479999Y-75797203D01*
X102479998Y-75797200D01*
X102451903Y-75712416D01*
X102424814Y-75630666D01*
X102332712Y-75481344D01*
X102208656Y-75357288D01*
X102085200Y-75281140D01*
X102059336Y-75265187D01*
X102059331Y-75265185D01*
X102046412Y-75260904D01*
X101892797Y-75210001D01*
X101892795Y-75210000D01*
X101790010Y-75199500D01*
X100589998Y-75199500D01*
X100589981Y-75199501D01*
X100487203Y-75210000D01*
X100487200Y-75210001D01*
X100320668Y-75265185D01*
X100320663Y-75265187D01*
X100171342Y-75357289D01*
X100047289Y-75481342D01*
X99955187Y-75630663D01*
X99955186Y-75630666D01*
X99900001Y-75797203D01*
X99900001Y-75797204D01*
X99900000Y-75797204D01*
X99889500Y-75899983D01*
X99889500Y-77100001D01*
X99889501Y-77100018D01*
X99900000Y-77202796D01*
X99900001Y-77202799D01*
X99947856Y-77347213D01*
X99955186Y-77369334D01*
X100047288Y-77518656D01*
X100171344Y-77642712D01*
X100320666Y-77734814D01*
X100487203Y-77789999D01*
X100487209Y-77789999D01*
X100491448Y-77790907D01*
X100552884Y-77824185D01*
X100586576Y-77885394D01*
X100589500Y-77912162D01*
X100589500Y-78509902D01*
X100569815Y-78576941D01*
X100566135Y-78582349D01*
X100560274Y-78590489D01*
X100519480Y-78631284D01*
X100476314Y-78706050D01*
X100473205Y-78711434D01*
X100473202Y-78711439D01*
X100459614Y-78734975D01*
X100440423Y-78768215D01*
X100399499Y-78920943D01*
X100399499Y-78920945D01*
X100399499Y-79089046D01*
X100399500Y-79089059D01*
X100399500Y-79420943D01*
X100399500Y-79579057D01*
X100433962Y-79707669D01*
X100440423Y-79731783D01*
X100440426Y-79731790D01*
X100519475Y-79868709D01*
X100519479Y-79868714D01*
X100519480Y-79868716D01*
X100631284Y-79980520D01*
X100631286Y-79980521D01*
X100631290Y-79980524D01*
X100652401Y-79992712D01*
X100768216Y-80059577D01*
X100920943Y-80100500D01*
X101750902Y-80100500D01*
X101817941Y-80120185D01*
X101863696Y-80172989D01*
X101873640Y-80242147D01*
X101844615Y-80305703D01*
X101838583Y-80312181D01*
X100019481Y-82131282D01*
X100019479Y-82131285D01*
X99974385Y-82209392D01*
X99974384Y-82209393D01*
X99940423Y-82268214D01*
X99940423Y-82268215D01*
X99899499Y-82420943D01*
X99899499Y-82420944D01*
X99899499Y-82420945D01*
X99899499Y-82589046D01*
X99899500Y-82589059D01*
X99899500Y-85413330D01*
X99899499Y-85413348D01*
X99899499Y-85579054D01*
X99899498Y-85579054D01*
X99923123Y-85667222D01*
X99940423Y-85731785D01*
X99960468Y-85766503D01*
X99983271Y-85805999D01*
X100019479Y-85868715D01*
X100138349Y-85987585D01*
X100138354Y-85987589D01*
X100778442Y-86627678D01*
X100778444Y-86627679D01*
X100778448Y-86627682D01*
X100915367Y-86706731D01*
X100915374Y-86706735D01*
X101068101Y-86747659D01*
X101068103Y-86747659D01*
X101233812Y-86747659D01*
X101233828Y-86747658D01*
X101595723Y-86747658D01*
X101662762Y-86767343D01*
X101694099Y-86796172D01*
X101766557Y-86890602D01*
X101888238Y-86983970D01*
X102029938Y-87042665D01*
X102143824Y-87057658D01*
X103281477Y-87057657D01*
X103348516Y-87077342D01*
X103380679Y-87107260D01*
X103421132Y-87161200D01*
X103455475Y-87206995D01*
X103455477Y-87206997D01*
X103455478Y-87206998D01*
X103589650Y-87330824D01*
X103589656Y-87330828D01*
X103589659Y-87330831D01*
X103744042Y-87428332D01*
X103886243Y-87485339D01*
X103913523Y-87496275D01*
X103913525Y-87496276D01*
X104092506Y-87532419D01*
X104275074Y-87535566D01*
X104455194Y-87505613D01*
X104626918Y-87443551D01*
X104641872Y-87434837D01*
X104648628Y-87430910D01*
X104648908Y-87430834D01*
X104676695Y-87414596D01*
X104676947Y-87414451D01*
X104680022Y-87413695D01*
X104739258Y-87397658D01*
X104771444Y-87397658D01*
X106228559Y-87397658D01*
X106260745Y-87397658D01*
X106323305Y-87414596D01*
X106357459Y-87434553D01*
X106358705Y-87435174D01*
X106373084Y-87443553D01*
X106544808Y-87505615D01*
X106724929Y-87535568D01*
X106907497Y-87532421D01*
X107086479Y-87496278D01*
X107255962Y-87428333D01*
X107410346Y-87330832D01*
X107430556Y-87312181D01*
X107544527Y-87206998D01*
X107544534Y-87206990D01*
X107619698Y-87106763D01*
X107675667Y-87064939D01*
X107718901Y-87057158D01*
X107850001Y-87057158D01*
X108350001Y-87057158D01*
X108856148Y-87057158D01*
X108969931Y-87042178D01*
X108969936Y-87042176D01*
X109111507Y-86983536D01*
X109111508Y-86983536D01*
X109233087Y-86890244D01*
X109326379Y-86768665D01*
X109326379Y-86768664D01*
X109385019Y-86627093D01*
X109385021Y-86627088D01*
X109400001Y-86513304D01*
X109400001Y-86397158D01*
X108350001Y-86397158D01*
X108350001Y-87057158D01*
X107850001Y-87057158D01*
X107850001Y-86271158D01*
X107869686Y-86204119D01*
X107922490Y-86158364D01*
X107974001Y-86147158D01*
X108100001Y-86147158D01*
X108100001Y-86021158D01*
X108119686Y-85954119D01*
X108172490Y-85908364D01*
X108224001Y-85897158D01*
X109411407Y-85897158D01*
X109447604Y-85877393D01*
X109517296Y-85882377D01*
X109561643Y-85910878D01*
X110241160Y-86590395D01*
X110274645Y-86651718D01*
X110275096Y-86653884D01*
X110305996Y-86809226D01*
X110305999Y-86809236D01*
X110366337Y-86954907D01*
X110366344Y-86954920D01*
X110441786Y-87067826D01*
X110462664Y-87134504D01*
X110444180Y-87201884D01*
X110426365Y-87224398D01*
X106287584Y-91363181D01*
X106226261Y-91396666D01*
X106199903Y-91399500D01*
X101420943Y-91399500D01*
X101268216Y-91440423D01*
X101268209Y-91440426D01*
X101131290Y-91519475D01*
X101131282Y-91519481D01*
X101019481Y-91631282D01*
X101019475Y-91631290D01*
X100940426Y-91768209D01*
X100940423Y-91768216D01*
X100899500Y-91920943D01*
X100899500Y-92199901D01*
X100890856Y-92229338D01*
X100884333Y-92259327D01*
X100880577Y-92264343D01*
X100879815Y-92266940D01*
X100863182Y-92287581D01*
X100821285Y-92329479D01*
X100821284Y-92329480D01*
X100709481Y-92441282D01*
X100709479Y-92441285D01*
X100664336Y-92519477D01*
X100664335Y-92519478D01*
X100641184Y-92559576D01*
X100630423Y-92578215D01*
X100589499Y-92730943D01*
X100589499Y-92730945D01*
X100589499Y-92899046D01*
X100589500Y-92899059D01*
X100589500Y-95587837D01*
X100569815Y-95654876D01*
X100517011Y-95700631D01*
X100491459Y-95709089D01*
X100487207Y-95709999D01*
X100320668Y-95765185D01*
X100320663Y-95765187D01*
X100171342Y-95857289D01*
X100047289Y-95981342D01*
X99955187Y-96130663D01*
X99955185Y-96130668D01*
X99929099Y-96209390D01*
X99900001Y-96297203D01*
X99900001Y-96297204D01*
X99900000Y-96297204D01*
X99889500Y-96399983D01*
X99889500Y-97600001D01*
X99889501Y-97600018D01*
X99900000Y-97702796D01*
X99900001Y-97702799D01*
X99924241Y-97775948D01*
X99955186Y-97869334D01*
X100047288Y-98018656D01*
X100171344Y-98142712D01*
X100320666Y-98234814D01*
X100487203Y-98289999D01*
X100589991Y-98300500D01*
X101790008Y-98300499D01*
X101790498Y-98300449D01*
X101807895Y-98298671D01*
X101892797Y-98289999D01*
X102059334Y-98234814D01*
X102208656Y-98142712D01*
X102332712Y-98018656D01*
X102424814Y-97869334D01*
X102479999Y-97702797D01*
X102490500Y-97600009D01*
X102490499Y-96399992D01*
X102479999Y-96297203D01*
X102424814Y-96130666D01*
X102332712Y-95981344D01*
X102208656Y-95857288D01*
X102095646Y-95787583D01*
X102059336Y-95765187D01*
X102059331Y-95765185D01*
X101892795Y-95710000D01*
X101888533Y-95709088D01*
X101827102Y-95675801D01*
X101793419Y-95614586D01*
X101790500Y-95587837D01*
X101790500Y-93110097D01*
X101799144Y-93080657D01*
X101805667Y-93050672D01*
X101809422Y-93045654D01*
X101810185Y-93043058D01*
X101826814Y-93022419D01*
X101858505Y-92990728D01*
X101858509Y-92990726D01*
X101868714Y-92980520D01*
X101868716Y-92980520D01*
X101980520Y-92868716D01*
X102038544Y-92768214D01*
X102059577Y-92731785D01*
X102072256Y-92684466D01*
X102075413Y-92676877D01*
X102092413Y-92655844D01*
X102106493Y-92632746D01*
X102114053Y-92629073D01*
X102119335Y-92622539D01*
X102145006Y-92614037D01*
X102169339Y-92602217D01*
X102184527Y-92600948D01*
X102185662Y-92600573D01*
X102186488Y-92600785D01*
X102189903Y-92600500D01*
X106413331Y-92600500D01*
X106413347Y-92600501D01*
X106420943Y-92600501D01*
X106579054Y-92600501D01*
X106579057Y-92600501D01*
X106731785Y-92559577D01*
X106801236Y-92519479D01*
X106868716Y-92480520D01*
X106980520Y-92368716D01*
X106980520Y-92368714D01*
X106990724Y-92358511D01*
X106990728Y-92358506D01*
X111270898Y-88078335D01*
X111332219Y-88044852D01*
X111401911Y-88049836D01*
X111446258Y-88078337D01*
X111489707Y-88121786D01*
X111489711Y-88121789D01*
X111620814Y-88209390D01*
X111620827Y-88209397D01*
X111708230Y-88245599D01*
X111766503Y-88269737D01*
X111799691Y-88276338D01*
X111861600Y-88308721D01*
X111896176Y-88369436D01*
X111899500Y-88397955D01*
X111899500Y-95082152D01*
X111879815Y-95149191D01*
X111827011Y-95194946D01*
X111799692Y-95203769D01*
X111666508Y-95230261D01*
X111666498Y-95230264D01*
X111520827Y-95290602D01*
X111520814Y-95290609D01*
X111389711Y-95378210D01*
X111389707Y-95378213D01*
X111278213Y-95489707D01*
X111278210Y-95489711D01*
X111190609Y-95620814D01*
X111190602Y-95620827D01*
X111130264Y-95766498D01*
X111130261Y-95766508D01*
X111099362Y-95921849D01*
X111066977Y-95983759D01*
X111065426Y-95985338D01*
X110876424Y-96174341D01*
X110687584Y-96363181D01*
X110626261Y-96396666D01*
X110599903Y-96399500D01*
X110039602Y-96399500D01*
X109972563Y-96379815D01*
X109929117Y-96331795D01*
X109922284Y-96318385D01*
X109801971Y-96152786D01*
X109657213Y-96008028D01*
X109491613Y-95887715D01*
X109491612Y-95887714D01*
X109491610Y-95887713D01*
X109431898Y-95857288D01*
X109309223Y-95794781D01*
X109114534Y-95731522D01*
X108939995Y-95703878D01*
X108912352Y-95699500D01*
X108707648Y-95699500D01*
X108683329Y-95703351D01*
X108505465Y-95731522D01*
X108310776Y-95794781D01*
X108128386Y-95887715D01*
X107962786Y-96008028D01*
X107818028Y-96152786D01*
X107697715Y-96318386D01*
X107604781Y-96500776D01*
X107541522Y-96695465D01*
X107509500Y-96897648D01*
X107509500Y-97102351D01*
X107541522Y-97304534D01*
X107604781Y-97499223D01*
X107656135Y-97600009D01*
X107691443Y-97669305D01*
X107697715Y-97681613D01*
X107818028Y-97847213D01*
X107962786Y-97991971D01*
X108117749Y-98104556D01*
X108128390Y-98112287D01*
X108244607Y-98171503D01*
X108310776Y-98205218D01*
X108310778Y-98205218D01*
X108310781Y-98205220D01*
X108401856Y-98234812D01*
X108505465Y-98268477D01*
X108606557Y-98284488D01*
X108707648Y-98300500D01*
X108707649Y-98300500D01*
X108912351Y-98300500D01*
X108912352Y-98300500D01*
X109114534Y-98268477D01*
X109309219Y-98205220D01*
X109491610Y-98112287D01*
X109620482Y-98018657D01*
X109657213Y-97991971D01*
X109657215Y-97991968D01*
X109657219Y-97991966D01*
X109801966Y-97847219D01*
X109801968Y-97847215D01*
X109801971Y-97847213D01*
X109922284Y-97681614D01*
X109922285Y-97681613D01*
X109922287Y-97681610D01*
X109929117Y-97668204D01*
X109977091Y-97617409D01*
X110039602Y-97600500D01*
X110813331Y-97600500D01*
X110813347Y-97600501D01*
X110820943Y-97600501D01*
X110979054Y-97600501D01*
X110979057Y-97600501D01*
X111131785Y-97559577D01*
X111181904Y-97530639D01*
X111268716Y-97480520D01*
X111380520Y-97368716D01*
X111380520Y-97368714D01*
X111390728Y-97358507D01*
X111390729Y-97358504D01*
X111687820Y-97061414D01*
X111749142Y-97027930D01*
X111818834Y-97032914D01*
X111874767Y-97074786D01*
X111899184Y-97140250D01*
X111899500Y-97149096D01*
X111899500Y-100350903D01*
X111893261Y-100372148D01*
X111891682Y-100394237D01*
X111883609Y-100405020D01*
X111879815Y-100417942D01*
X111863081Y-100432441D01*
X111849810Y-100450170D01*
X111837189Y-100454877D01*
X111827011Y-100463697D01*
X111805093Y-100466848D01*
X111784346Y-100474587D01*
X111771185Y-100471724D01*
X111757853Y-100473641D01*
X111737709Y-100464441D01*
X111716073Y-100459735D01*
X111698347Y-100446466D01*
X111694297Y-100444616D01*
X111687819Y-100438584D01*
X111636819Y-100387584D01*
X111603334Y-100326261D01*
X111600500Y-100299903D01*
X111600500Y-99420945D01*
X111600500Y-99420943D01*
X111559577Y-99268216D01*
X111559573Y-99268209D01*
X111480524Y-99131290D01*
X111480518Y-99131282D01*
X111368717Y-99019481D01*
X111368709Y-99019475D01*
X111231790Y-98940426D01*
X111231786Y-98940424D01*
X111231784Y-98940423D01*
X111079057Y-98899500D01*
X111079056Y-98899500D01*
X100300098Y-98899500D01*
X100233059Y-98879815D01*
X100212417Y-98863181D01*
X99636819Y-98287583D01*
X99603334Y-98226260D01*
X99600500Y-98199902D01*
X99600500Y-89800097D01*
X99620185Y-89733058D01*
X99636819Y-89712416D01*
X100075496Y-89273739D01*
X100514662Y-88834572D01*
X100575983Y-88801089D01*
X100578150Y-88800638D01*
X100636085Y-88789113D01*
X100733497Y-88769737D01*
X100879179Y-88709394D01*
X101010289Y-88621789D01*
X101121789Y-88510289D01*
X101209394Y-88379179D01*
X101269737Y-88233497D01*
X101300500Y-88078842D01*
X101300500Y-87921158D01*
X101300500Y-87921155D01*
X101300499Y-87921153D01*
X101292148Y-87879172D01*
X101269737Y-87766503D01*
X101240774Y-87696580D01*
X101209397Y-87620827D01*
X101209390Y-87620814D01*
X101121789Y-87489711D01*
X101121786Y-87489707D01*
X101010292Y-87378213D01*
X101010288Y-87378210D01*
X100879185Y-87290609D01*
X100879172Y-87290602D01*
X100733501Y-87230264D01*
X100733489Y-87230261D01*
X100578845Y-87199500D01*
X100578842Y-87199500D01*
X100421158Y-87199500D01*
X100421155Y-87199500D01*
X100266510Y-87230261D01*
X100266498Y-87230264D01*
X100120827Y-87290602D01*
X100120814Y-87290609D01*
X99989711Y-87378210D01*
X99989707Y-87378213D01*
X99878213Y-87489707D01*
X99878210Y-87489711D01*
X99790609Y-87620814D01*
X99790602Y-87620827D01*
X99730264Y-87766498D01*
X99730261Y-87766508D01*
X99699361Y-87921850D01*
X99666976Y-87983761D01*
X99665425Y-87985339D01*
X98912181Y-88738584D01*
X98850858Y-88772069D01*
X98781167Y-88767085D01*
X98725233Y-88725213D01*
X98700816Y-88659749D01*
X98700500Y-88650903D01*
X98700500Y-67649230D01*
X98720185Y-67582191D01*
X98762498Y-67541844D01*
X98801233Y-67519481D01*
X98868716Y-67480520D01*
X98980520Y-67368716D01*
X98980520Y-67368714D01*
X98990725Y-67358510D01*
X98990731Y-67358503D01*
X99065260Y-67283976D01*
X99126584Y-67250491D01*
X99152940Y-67247658D01*
X99320901Y-67247658D01*
X99387940Y-67267343D01*
G37*
%TD.AperFunction*%
%TA.AperFunction,Conductor*%
G36*
X142448043Y-87120185D02*
G01*
X142493798Y-87172989D01*
X142503742Y-87242147D01*
X142474717Y-87305703D01*
X142468685Y-87312181D01*
X140822814Y-88958050D01*
X140822800Y-88958064D01*
X140821286Y-88959579D01*
X140821284Y-88959581D01*
X140709480Y-89071385D01*
X140704207Y-89080519D01*
X140630423Y-89208316D01*
X140589499Y-89361044D01*
X140589499Y-89361046D01*
X140589499Y-89529147D01*
X140589500Y-89529160D01*
X140589500Y-90299800D01*
X140569815Y-90366839D01*
X140553181Y-90387481D01*
X138032405Y-92908256D01*
X137971082Y-92941741D01*
X137901390Y-92936757D01*
X137845457Y-92894885D01*
X137821040Y-92829421D01*
X137822250Y-92801182D01*
X137840500Y-92685962D01*
X137840500Y-92434038D01*
X137801090Y-92185215D01*
X137723241Y-91945621D01*
X137723239Y-91945618D01*
X137723239Y-91945616D01*
X137681595Y-91863887D01*
X137608870Y-91721155D01*
X137589952Y-91695117D01*
X137460798Y-91517350D01*
X137460794Y-91517345D01*
X137282654Y-91339205D01*
X137282649Y-91339201D01*
X137078848Y-91191132D01*
X137078847Y-91191131D01*
X137078845Y-91191130D01*
X136972254Y-91136819D01*
X136854383Y-91076760D01*
X136614785Y-90998910D01*
X136498676Y-90980520D01*
X136365962Y-90959500D01*
X136114038Y-90959500D01*
X135989626Y-90979205D01*
X135865214Y-90998910D01*
X135625616Y-91076760D01*
X135401151Y-91191132D01*
X135197350Y-91339201D01*
X135197345Y-91339205D01*
X135019205Y-91517345D01*
X135019201Y-91517350D01*
X134871132Y-91721151D01*
X134871130Y-91721155D01*
X134786623Y-91887011D01*
X134784185Y-91891795D01*
X134736211Y-91942591D01*
X134673700Y-91959500D01*
X130798052Y-91959500D01*
X130762337Y-91954245D01*
X130748534Y-91950093D01*
X130731785Y-91940423D01*
X130590602Y-91902592D01*
X130588785Y-91902046D01*
X130561029Y-91883950D01*
X130532746Y-91866710D01*
X130531893Y-91864954D01*
X130530256Y-91863887D01*
X130516685Y-91833647D01*
X130502217Y-91803863D01*
X130501965Y-91800846D01*
X130501649Y-91800142D01*
X130501814Y-91799042D01*
X130500500Y-91783301D01*
X130500500Y-88900097D01*
X130520185Y-88833058D01*
X130536819Y-88812416D01*
X130748735Y-88600500D01*
X131014662Y-88334572D01*
X131075983Y-88301089D01*
X131078150Y-88300638D01*
X131136085Y-88289113D01*
X131233497Y-88269737D01*
X131379179Y-88209394D01*
X131510289Y-88121789D01*
X131621789Y-88010289D01*
X131709394Y-87879179D01*
X131769737Y-87733497D01*
X131800500Y-87578842D01*
X131800500Y-87421158D01*
X131800500Y-87421155D01*
X131800499Y-87421153D01*
X131799166Y-87414451D01*
X131769737Y-87266503D01*
X131769732Y-87266492D01*
X131767969Y-87260676D01*
X131770720Y-87259841D01*
X131764497Y-87202641D01*
X131795691Y-87140122D01*
X131855734Y-87104392D01*
X131886555Y-87100500D01*
X142381004Y-87100500D01*
X142448043Y-87120185D01*
G37*
%TD.AperFunction*%
%TA.AperFunction,Conductor*%
G36*
X130134063Y-87106554D02*
G01*
X130155513Y-87107854D01*
X130166921Y-87116202D01*
X130180484Y-87120185D01*
X130194555Y-87136424D01*
X130211898Y-87149115D01*
X130216982Y-87162306D01*
X130226239Y-87172989D01*
X130229297Y-87194257D01*
X130237026Y-87214310D01*
X130235589Y-87238017D01*
X130236183Y-87242147D01*
X130235100Y-87246083D01*
X130234891Y-87249539D01*
X130232513Y-87261069D01*
X130230263Y-87266503D01*
X130199500Y-87421158D01*
X130199500Y-87421193D01*
X130199190Y-87422697D01*
X130182978Y-87453167D01*
X130166976Y-87483761D01*
X130166584Y-87483984D01*
X130166373Y-87484381D01*
X130165425Y-87485339D01*
X129419481Y-88231282D01*
X129419479Y-88231285D01*
X129376426Y-88305855D01*
X129376409Y-88305883D01*
X129375918Y-88306736D01*
X129340423Y-88368215D01*
X129339130Y-88373037D01*
X129332914Y-88384236D01*
X129312877Y-88403994D01*
X129295222Y-88425905D01*
X129288334Y-88428197D01*
X129283165Y-88433295D01*
X129255627Y-88439083D01*
X129228928Y-88447971D01*
X129221893Y-88446175D01*
X129214790Y-88447669D01*
X129188497Y-88437652D01*
X129161229Y-88430693D01*
X129156281Y-88425379D01*
X129149498Y-88422795D01*
X129132793Y-88400152D01*
X129113617Y-88379557D01*
X129111740Y-88371616D01*
X129108018Y-88366571D01*
X129107068Y-88351844D01*
X129100500Y-88324050D01*
X129100500Y-87679765D01*
X129120185Y-87612726D01*
X129121398Y-87610874D01*
X129142799Y-87578846D01*
X129209394Y-87479179D01*
X129219039Y-87455895D01*
X129243161Y-87397658D01*
X129269737Y-87333497D01*
X129278269Y-87290606D01*
X129296231Y-87200308D01*
X129328616Y-87138397D01*
X129389332Y-87103823D01*
X129417848Y-87100500D01*
X130113445Y-87100500D01*
X130134063Y-87106554D01*
G37*
%TD.AperFunction*%
%TA.AperFunction,Conductor*%
G36*
X122118834Y-41832915D02*
G01*
X122174767Y-41874787D01*
X122199184Y-41940251D01*
X122199500Y-41949097D01*
X122199500Y-42078846D01*
X122230261Y-42233489D01*
X122230264Y-42233501D01*
X122290602Y-42379172D01*
X122290609Y-42379185D01*
X122378210Y-42510288D01*
X122378213Y-42510292D01*
X122489707Y-42621786D01*
X122489711Y-42621789D01*
X122620814Y-42709390D01*
X122620827Y-42709397D01*
X122747387Y-42761819D01*
X122766503Y-42769737D01*
X122839692Y-42784295D01*
X122901602Y-42816679D01*
X122936176Y-42877395D01*
X122939500Y-42905912D01*
X122939500Y-50353699D01*
X122919815Y-50420738D01*
X122871795Y-50464184D01*
X122701151Y-50551132D01*
X122497350Y-50699201D01*
X122497345Y-50699205D01*
X122319205Y-50877345D01*
X122319201Y-50877350D01*
X122171132Y-51081151D01*
X122056760Y-51305616D01*
X121978910Y-51545214D01*
X121939500Y-51794038D01*
X121939500Y-52045961D01*
X121978910Y-52294785D01*
X122056760Y-52534383D01*
X122135413Y-52688747D01*
X122150367Y-52718096D01*
X122171132Y-52758848D01*
X122319201Y-52962649D01*
X122319205Y-52962654D01*
X122497345Y-53140794D01*
X122497350Y-53140798D01*
X122645914Y-53248735D01*
X122701155Y-53288870D01*
X122871795Y-53375815D01*
X122922591Y-53423789D01*
X122939500Y-53486300D01*
X122939500Y-55465461D01*
X122919815Y-55532500D01*
X122867011Y-55578255D01*
X122797853Y-55588199D01*
X122734297Y-55559174D01*
X122717125Y-55540949D01*
X122695644Y-55512955D01*
X122487047Y-55304358D01*
X122487040Y-55304352D01*
X122252993Y-55124761D01*
X121997510Y-54977258D01*
X121997500Y-54977254D01*
X121724961Y-54864364D01*
X121724954Y-54864362D01*
X121724952Y-54864361D01*
X121439993Y-54788007D01*
X121391113Y-54781571D01*
X121147513Y-54749500D01*
X121147506Y-54749500D01*
X120852494Y-54749500D01*
X120852486Y-54749500D01*
X120574085Y-54786153D01*
X120560007Y-54788007D01*
X120385428Y-54834785D01*
X120275048Y-54864361D01*
X120275038Y-54864364D01*
X120002499Y-54977254D01*
X120002489Y-54977258D01*
X119747006Y-55124761D01*
X119512959Y-55304352D01*
X119512952Y-55304358D01*
X119304358Y-55512952D01*
X119304352Y-55512959D01*
X119124761Y-55747006D01*
X118977258Y-56002489D01*
X118977254Y-56002499D01*
X118864364Y-56275038D01*
X118864361Y-56275048D01*
X118788008Y-56560004D01*
X118788006Y-56560015D01*
X118749500Y-56852486D01*
X118749500Y-57147513D01*
X118778622Y-57368709D01*
X118788007Y-57439993D01*
X118862212Y-57716930D01*
X118864361Y-57724951D01*
X118864364Y-57724961D01*
X118977254Y-57997500D01*
X118977258Y-57997510D01*
X119124761Y-58252993D01*
X119304352Y-58487040D01*
X119304358Y-58487047D01*
X119512952Y-58695641D01*
X119512959Y-58695647D01*
X119747006Y-58875238D01*
X120002489Y-59022741D01*
X120002490Y-59022741D01*
X120002493Y-59022743D01*
X120169489Y-59091915D01*
X120268483Y-59132920D01*
X120275048Y-59135639D01*
X120560007Y-59211993D01*
X120852494Y-59250500D01*
X120852501Y-59250500D01*
X121147499Y-59250500D01*
X121147506Y-59250500D01*
X121439993Y-59211993D01*
X121724952Y-59135639D01*
X121997507Y-59022743D01*
X122252994Y-58875238D01*
X122487042Y-58695646D01*
X122695646Y-58487042D01*
X122717124Y-58459052D01*
X122773552Y-58417849D01*
X122843298Y-58413694D01*
X122904218Y-58447906D01*
X122936971Y-58509624D01*
X122939500Y-58534538D01*
X122939500Y-69403699D01*
X122919815Y-69470738D01*
X122871795Y-69514184D01*
X122701151Y-69601132D01*
X122497350Y-69749201D01*
X122497345Y-69749205D01*
X122319205Y-69927345D01*
X122319201Y-69927350D01*
X122171132Y-70131151D01*
X122056760Y-70355616D01*
X121978910Y-70595214D01*
X121957279Y-70731784D01*
X121939500Y-70844038D01*
X121939500Y-71095962D01*
X121963977Y-71250500D01*
X121978910Y-71344785D01*
X122056760Y-71584383D01*
X122131091Y-71730264D01*
X122167711Y-71802135D01*
X122171132Y-71808848D01*
X122319201Y-72012649D01*
X122319205Y-72012654D01*
X122497345Y-72190794D01*
X122497350Y-72190798D01*
X122656261Y-72306253D01*
X122701155Y-72338870D01*
X122871795Y-72425815D01*
X122922591Y-72473789D01*
X122939500Y-72536300D01*
X122939500Y-74515461D01*
X122919815Y-74582500D01*
X122867011Y-74628255D01*
X122797853Y-74638199D01*
X122734297Y-74609174D01*
X122717125Y-74590949D01*
X122695644Y-74562955D01*
X122487047Y-74354358D01*
X122487040Y-74354352D01*
X122252993Y-74174761D01*
X121997510Y-74027258D01*
X121997500Y-74027254D01*
X121724961Y-73914364D01*
X121724954Y-73914362D01*
X121724952Y-73914361D01*
X121439993Y-73838007D01*
X121391113Y-73831571D01*
X121147513Y-73799500D01*
X121147506Y-73799500D01*
X120852494Y-73799500D01*
X120852486Y-73799500D01*
X120588863Y-73834208D01*
X120560007Y-73838007D01*
X120336571Y-73897876D01*
X120275048Y-73914361D01*
X120275038Y-73914364D01*
X120002499Y-74027254D01*
X120002489Y-74027258D01*
X119747006Y-74174761D01*
X119512959Y-74354352D01*
X119512952Y-74354358D01*
X119304358Y-74562952D01*
X119304352Y-74562959D01*
X119124761Y-74797006D01*
X118977258Y-75052489D01*
X118977254Y-75052499D01*
X118864364Y-75325038D01*
X118864361Y-75325048D01*
X118815331Y-75508034D01*
X118788008Y-75610004D01*
X118788006Y-75610015D01*
X118749500Y-75902486D01*
X118749500Y-76197513D01*
X118774375Y-76386447D01*
X118788007Y-76489993D01*
X118862212Y-76766930D01*
X118864361Y-76774951D01*
X118864364Y-76774961D01*
X118977254Y-77047500D01*
X118977258Y-77047510D01*
X119124761Y-77302993D01*
X119304352Y-77537040D01*
X119304358Y-77537047D01*
X119512952Y-77745641D01*
X119512959Y-77745647D01*
X119747006Y-77925238D01*
X120002489Y-78072741D01*
X120002490Y-78072741D01*
X120002493Y-78072743D01*
X120275048Y-78185639D01*
X120560007Y-78261993D01*
X120852494Y-78300500D01*
X120852501Y-78300500D01*
X121147499Y-78300500D01*
X121147506Y-78300500D01*
X121439993Y-78261993D01*
X121724952Y-78185639D01*
X121997507Y-78072743D01*
X122252994Y-77925238D01*
X122487042Y-77745646D01*
X122695646Y-77537042D01*
X122717124Y-77509052D01*
X122773552Y-77467849D01*
X122843298Y-77463694D01*
X122904218Y-77497906D01*
X122936971Y-77559624D01*
X122939500Y-77584538D01*
X122939500Y-80255332D01*
X122935275Y-80287425D01*
X122899499Y-80420943D01*
X122899499Y-80589046D01*
X122899500Y-80589059D01*
X122899500Y-83920234D01*
X122879815Y-83987273D01*
X122878602Y-83989125D01*
X122790609Y-84120814D01*
X122790602Y-84120827D01*
X122730264Y-84266498D01*
X122730261Y-84266510D01*
X122699500Y-84421153D01*
X122699500Y-84578846D01*
X122730261Y-84733489D01*
X122730264Y-84733501D01*
X122790602Y-84879172D01*
X122790609Y-84879185D01*
X122878210Y-85010288D01*
X122878213Y-85010292D01*
X122955740Y-85087819D01*
X122989225Y-85149142D01*
X122984241Y-85218834D01*
X122942369Y-85274767D01*
X122876905Y-85299184D01*
X122868059Y-85299500D01*
X114700098Y-85299500D01*
X114633059Y-85279815D01*
X114612417Y-85263181D01*
X108487590Y-79138355D01*
X108487588Y-79138352D01*
X108368717Y-79019481D01*
X108368716Y-79019480D01*
X108281904Y-78969360D01*
X108281904Y-78969359D01*
X108281900Y-78969358D01*
X108231785Y-78940423D01*
X108079057Y-78899499D01*
X107920943Y-78899499D01*
X107913347Y-78899499D01*
X107913331Y-78899500D01*
X105917848Y-78899500D01*
X105850809Y-78879815D01*
X105805054Y-78827011D01*
X105796231Y-78799692D01*
X105769738Y-78666508D01*
X105769737Y-78666507D01*
X105769737Y-78666503D01*
X105734880Y-78582349D01*
X105709397Y-78520827D01*
X105709390Y-78520814D01*
X105621789Y-78389711D01*
X105621786Y-78389707D01*
X105510292Y-78278213D01*
X105510288Y-78278210D01*
X105379185Y-78190609D01*
X105379172Y-78190602D01*
X105233501Y-78130264D01*
X105233489Y-78130261D01*
X105200309Y-78123661D01*
X105138398Y-78091276D01*
X105103824Y-78030561D01*
X105100500Y-78002044D01*
X105100500Y-76397648D01*
X107509500Y-76397648D01*
X107509500Y-76602351D01*
X107541522Y-76804534D01*
X107604781Y-76999223D01*
X107697715Y-77181613D01*
X107818028Y-77347213D01*
X107962786Y-77491971D01*
X108090196Y-77584538D01*
X108128390Y-77612287D01*
X108244607Y-77671503D01*
X108310776Y-77705218D01*
X108310778Y-77705218D01*
X108310781Y-77705220D01*
X108392900Y-77731902D01*
X108505465Y-77768477D01*
X108606557Y-77784488D01*
X108707648Y-77800500D01*
X108707649Y-77800500D01*
X108912351Y-77800500D01*
X108912352Y-77800500D01*
X109114534Y-77768477D01*
X109309219Y-77705220D01*
X109491610Y-77612287D01*
X109595177Y-77537042D01*
X109657213Y-77491971D01*
X109657215Y-77491968D01*
X109657219Y-77491966D01*
X109801966Y-77347219D01*
X109801968Y-77347215D01*
X109801971Y-77347213D01*
X109906892Y-77202799D01*
X109922287Y-77181610D01*
X110015220Y-76999219D01*
X110078477Y-76804534D01*
X110110500Y-76602352D01*
X110110500Y-76397648D01*
X110102874Y-76349500D01*
X110078478Y-76195472D01*
X110078477Y-76195471D01*
X110078477Y-76195466D01*
X110073825Y-76181151D01*
X110071832Y-76111312D01*
X110104075Y-76055158D01*
X112012417Y-74146819D01*
X112073740Y-74113334D01*
X112100098Y-74110500D01*
X115623700Y-74110500D01*
X115690739Y-74130185D01*
X115734184Y-74178204D01*
X115813709Y-74334281D01*
X115821132Y-74348848D01*
X115969201Y-74552649D01*
X115969205Y-74552654D01*
X115969207Y-74552656D01*
X116147344Y-74730793D01*
X116147345Y-74730794D01*
X116147344Y-74730794D01*
X116153661Y-74735383D01*
X116196327Y-74790714D01*
X116202305Y-74860327D01*
X116169699Y-74922122D01*
X116108860Y-74956479D01*
X116061378Y-74958174D01*
X116006611Y-74949500D01*
X115833389Y-74949500D01*
X115793728Y-74955781D01*
X115662302Y-74976597D01*
X115497552Y-75030128D01*
X115343211Y-75108768D01*
X115286289Y-75150125D01*
X115203072Y-75210586D01*
X115203070Y-75210588D01*
X115203069Y-75210588D01*
X115080588Y-75333069D01*
X115080588Y-75333070D01*
X115080586Y-75333072D01*
X115045852Y-75380879D01*
X114978768Y-75473211D01*
X114900128Y-75627552D01*
X114846597Y-75792302D01*
X114829541Y-75899991D01*
X114819500Y-75963389D01*
X114819500Y-76136611D01*
X114846598Y-76307701D01*
X114900127Y-76472445D01*
X114978768Y-76626788D01*
X115080586Y-76766928D01*
X115203072Y-76889414D01*
X115343212Y-76991232D01*
X115497555Y-77069873D01*
X115662299Y-77123402D01*
X115833389Y-77150500D01*
X115833390Y-77150500D01*
X116006610Y-77150500D01*
X116006611Y-77150500D01*
X116177701Y-77123402D01*
X116342445Y-77069873D01*
X116496788Y-76991232D01*
X116636928Y-76889414D01*
X116759414Y-76766928D01*
X116861232Y-76626788D01*
X116939873Y-76472445D01*
X116993402Y-76307701D01*
X117020500Y-76136611D01*
X117020500Y-75963389D01*
X116993402Y-75792299D01*
X116939873Y-75627555D01*
X116861232Y-75473212D01*
X116759414Y-75333072D01*
X116707482Y-75281140D01*
X116673997Y-75219817D01*
X116678981Y-75150125D01*
X116720853Y-75094192D01*
X116786317Y-75069775D01*
X116814561Y-75070986D01*
X116815212Y-75071089D01*
X116815215Y-75071090D01*
X117064038Y-75110500D01*
X117064039Y-75110500D01*
X117315961Y-75110500D01*
X117315962Y-75110500D01*
X117564785Y-75071090D01*
X117804379Y-74993241D01*
X118028845Y-74878870D01*
X118232656Y-74730793D01*
X118410793Y-74552656D01*
X118558870Y-74348845D01*
X118673241Y-74124379D01*
X118751090Y-73884785D01*
X118790500Y-73635962D01*
X118790500Y-73384038D01*
X118751090Y-73135215D01*
X118673241Y-72895621D01*
X118673239Y-72895618D01*
X118673239Y-72895616D01*
X118608324Y-72768214D01*
X118558870Y-72671155D01*
X118499569Y-72589534D01*
X118410798Y-72467350D01*
X118410794Y-72467345D01*
X118232654Y-72289205D01*
X118232649Y-72289201D01*
X118028848Y-72141132D01*
X118028847Y-72141131D01*
X118028845Y-72141130D01*
X117958747Y-72105413D01*
X117804383Y-72026760D01*
X117564785Y-71948910D01*
X117512375Y-71940609D01*
X117315962Y-71909500D01*
X117064038Y-71909500D01*
X116991778Y-71920945D01*
X116815214Y-71948910D01*
X116575616Y-72026760D01*
X116351151Y-72141132D01*
X116147350Y-72289201D01*
X116147345Y-72289205D01*
X115969205Y-72467345D01*
X115969201Y-72467350D01*
X115821132Y-72671151D01*
X115817213Y-72678842D01*
X115772551Y-72766498D01*
X115734185Y-72841795D01*
X115686211Y-72892591D01*
X115623700Y-72909500D01*
X111886670Y-72909500D01*
X111886654Y-72909499D01*
X111879058Y-72909499D01*
X111720943Y-72909499D01*
X111646009Y-72929578D01*
X111568214Y-72950423D01*
X111568209Y-72950426D01*
X111431290Y-73029475D01*
X111431282Y-73029481D01*
X109254842Y-75205921D01*
X109193519Y-75239406D01*
X109128848Y-75236173D01*
X109114534Y-75231522D01*
X108939995Y-75203878D01*
X108912352Y-75199500D01*
X108707648Y-75199500D01*
X108683329Y-75203351D01*
X108505465Y-75231522D01*
X108310776Y-75294781D01*
X108128386Y-75387715D01*
X107962786Y-75508028D01*
X107818028Y-75652786D01*
X107697715Y-75818386D01*
X107604781Y-76000776D01*
X107541522Y-76195465D01*
X107509500Y-76397648D01*
X105100500Y-76397648D01*
X105100500Y-73089059D01*
X105100501Y-73089046D01*
X105100501Y-72920945D01*
X105100501Y-72920943D01*
X105059577Y-72768215D01*
X105017510Y-72695354D01*
X104980520Y-72631284D01*
X104975991Y-72626755D01*
X104968523Y-72614407D01*
X104961279Y-72586996D01*
X104951057Y-72560556D01*
X104952471Y-72553660D01*
X104950673Y-72546856D01*
X104959397Y-72519885D01*
X104965093Y-72492111D01*
X104970010Y-72487074D01*
X104972177Y-72480378D01*
X104994099Y-72462404D01*
X105013906Y-72442120D01*
X105021153Y-72440224D01*
X105026209Y-72436079D01*
X105045601Y-72433828D01*
X105074627Y-72426235D01*
X107587596Y-72426235D01*
X107587612Y-72426236D01*
X107595208Y-72426236D01*
X107753319Y-72426236D01*
X107753322Y-72426236D01*
X107906050Y-72385312D01*
X107968078Y-72349500D01*
X108042981Y-72306255D01*
X108154785Y-72194451D01*
X108154785Y-72194449D01*
X108164989Y-72184246D01*
X108164993Y-72184241D01*
X111858506Y-68490728D01*
X111858511Y-68490724D01*
X111868714Y-68480520D01*
X111868716Y-68480520D01*
X111980520Y-68368716D01*
X112045649Y-68255909D01*
X112059577Y-68231785D01*
X112100500Y-68079058D01*
X112100500Y-67920943D01*
X112100500Y-64920943D01*
X112059577Y-64768216D01*
X112001200Y-64667103D01*
X111980524Y-64631290D01*
X111980518Y-64631282D01*
X111868717Y-64519481D01*
X111868709Y-64519475D01*
X111731790Y-64440426D01*
X111731786Y-64440424D01*
X111731784Y-64440423D01*
X111579057Y-64399500D01*
X111579056Y-64399500D01*
X111086669Y-64399500D01*
X111086653Y-64399499D01*
X111079057Y-64399499D01*
X110920943Y-64399499D01*
X110813587Y-64428265D01*
X110768210Y-64440424D01*
X110768209Y-64440425D01*
X110718740Y-64468986D01*
X110718637Y-64469046D01*
X110718095Y-64469360D01*
X110631284Y-64519480D01*
X110627904Y-64522859D01*
X110617027Y-64529311D01*
X110590058Y-64536189D01*
X110564094Y-64546228D01*
X110553773Y-64546658D01*
X109904279Y-64546658D01*
X109837240Y-64526973D01*
X109805903Y-64498144D01*
X109783529Y-64468986D01*
X109733445Y-64403714D01*
X109611764Y-64310346D01*
X109611763Y-64310345D01*
X109470064Y-64251651D01*
X109470062Y-64251650D01*
X109356179Y-64236658D01*
X109356178Y-64236658D01*
X108218524Y-64236658D01*
X108151485Y-64216973D01*
X108119321Y-64187054D01*
X108103909Y-64166503D01*
X108044528Y-64087321D01*
X108044523Y-64087316D01*
X107910352Y-63963490D01*
X107910344Y-63963484D01*
X107837625Y-63917559D01*
X107755960Y-63865984D01*
X107690134Y-63839594D01*
X107635235Y-63796378D01*
X107612415Y-63730340D01*
X107628920Y-63662448D01*
X107679510Y-63614257D01*
X107736277Y-63600500D01*
X113079055Y-63600500D01*
X113079057Y-63600500D01*
X113231784Y-63559577D01*
X113368716Y-63480520D01*
X113480520Y-63368716D01*
X113559577Y-63231784D01*
X113600500Y-63079057D01*
X113600500Y-50300097D01*
X113620185Y-50233058D01*
X113636819Y-50212416D01*
X116377819Y-47471416D01*
X116439142Y-47437931D01*
X116508834Y-47442915D01*
X116564767Y-47484787D01*
X116589184Y-47550251D01*
X116589500Y-47559097D01*
X116589500Y-52893699D01*
X116569815Y-52960738D01*
X116521795Y-53004184D01*
X116351151Y-53091132D01*
X116147350Y-53239201D01*
X116147345Y-53239205D01*
X115969205Y-53417345D01*
X115969201Y-53417350D01*
X115821132Y-53621151D01*
X115821130Y-53621155D01*
X115776326Y-53709089D01*
X115734185Y-53791795D01*
X115723735Y-53802859D01*
X115717413Y-53816703D01*
X115700233Y-53827743D01*
X115686211Y-53842591D01*
X115670529Y-53846832D01*
X115658635Y-53854477D01*
X115623700Y-53859500D01*
X115519901Y-53859500D01*
X115452862Y-53839815D01*
X115451010Y-53838602D01*
X115379184Y-53790609D01*
X115379172Y-53790602D01*
X115233501Y-53730264D01*
X115233489Y-53730261D01*
X115078845Y-53699500D01*
X115078842Y-53699500D01*
X114921158Y-53699500D01*
X114921155Y-53699500D01*
X114766510Y-53730261D01*
X114766498Y-53730264D01*
X114620827Y-53790602D01*
X114620814Y-53790609D01*
X114489711Y-53878210D01*
X114489707Y-53878213D01*
X114378213Y-53989707D01*
X114378210Y-53989711D01*
X114290609Y-54120814D01*
X114290602Y-54120827D01*
X114230264Y-54266498D01*
X114230261Y-54266510D01*
X114199500Y-54421153D01*
X114199500Y-54578846D01*
X114230261Y-54733489D01*
X114230264Y-54733501D01*
X114290602Y-54879172D01*
X114290609Y-54879185D01*
X114378210Y-55010288D01*
X114378213Y-55010292D01*
X114489707Y-55121786D01*
X114489711Y-55121789D01*
X114620814Y-55209390D01*
X114620827Y-55209397D01*
X114766498Y-55269735D01*
X114766503Y-55269737D01*
X114912838Y-55298845D01*
X114921153Y-55300499D01*
X114921156Y-55300500D01*
X114921158Y-55300500D01*
X115078844Y-55300500D01*
X115078845Y-55300499D01*
X115233497Y-55269737D01*
X115379179Y-55209394D01*
X115510289Y-55121789D01*
X115510292Y-55121786D01*
X115535260Y-55096819D01*
X115562187Y-55082115D01*
X115588006Y-55065523D01*
X115594206Y-55064631D01*
X115596583Y-55063334D01*
X115622941Y-55060500D01*
X115623700Y-55060500D01*
X115690739Y-55080185D01*
X115734184Y-55128204D01*
X115806299Y-55269738D01*
X115821132Y-55298848D01*
X115969201Y-55502649D01*
X115969205Y-55502654D01*
X115969207Y-55502656D01*
X116147344Y-55680793D01*
X116147345Y-55680794D01*
X116147344Y-55680794D01*
X116153661Y-55685383D01*
X116196327Y-55740714D01*
X116202305Y-55810327D01*
X116169699Y-55872122D01*
X116108860Y-55906479D01*
X116061378Y-55908174D01*
X116006611Y-55899500D01*
X115833389Y-55899500D01*
X115793728Y-55905781D01*
X115662302Y-55926597D01*
X115497552Y-55980128D01*
X115343211Y-56058768D01*
X115286289Y-56100125D01*
X115203072Y-56160586D01*
X115203070Y-56160588D01*
X115203069Y-56160588D01*
X115080588Y-56283069D01*
X115080588Y-56283070D01*
X115080586Y-56283072D01*
X115050716Y-56324185D01*
X114978768Y-56423211D01*
X114900128Y-56577552D01*
X114846597Y-56742302D01*
X114829146Y-56852486D01*
X114819500Y-56913389D01*
X114819500Y-57086611D01*
X114846598Y-57257701D01*
X114900127Y-57422445D01*
X114978768Y-57576788D01*
X115080586Y-57716928D01*
X115203072Y-57839414D01*
X115343212Y-57941232D01*
X115497555Y-58019873D01*
X115662299Y-58073402D01*
X115833389Y-58100500D01*
X115833390Y-58100500D01*
X116006610Y-58100500D01*
X116006611Y-58100500D01*
X116177701Y-58073402D01*
X116342445Y-58019873D01*
X116496788Y-57941232D01*
X116636928Y-57839414D01*
X116759414Y-57716928D01*
X116861232Y-57576788D01*
X116939873Y-57422445D01*
X116993402Y-57257701D01*
X117020500Y-57086611D01*
X117020500Y-56913389D01*
X116993402Y-56742299D01*
X116939873Y-56577555D01*
X116861232Y-56423212D01*
X116759414Y-56283072D01*
X116707482Y-56231140D01*
X116673997Y-56169817D01*
X116678981Y-56100125D01*
X116720853Y-56044192D01*
X116786317Y-56019775D01*
X116814561Y-56020986D01*
X116815212Y-56021089D01*
X116815215Y-56021090D01*
X117064038Y-56060500D01*
X117064039Y-56060500D01*
X117315961Y-56060500D01*
X117315962Y-56060500D01*
X117564785Y-56021090D01*
X117804379Y-55943241D01*
X118028845Y-55828870D01*
X118232656Y-55680793D01*
X118410793Y-55502656D01*
X118558870Y-55298845D01*
X118673241Y-55074379D01*
X118751090Y-54834785D01*
X118790500Y-54585962D01*
X118790500Y-54334038D01*
X118751090Y-54085215D01*
X118673241Y-53845621D01*
X118673239Y-53845618D01*
X118673239Y-53845616D01*
X118604139Y-53710001D01*
X118558870Y-53621155D01*
X118534663Y-53587837D01*
X118410798Y-53417350D01*
X118410794Y-53417345D01*
X118232654Y-53239205D01*
X118232649Y-53239201D01*
X118028848Y-53091132D01*
X118028847Y-53091131D01*
X118028845Y-53091130D01*
X117959186Y-53055637D01*
X117858205Y-53004184D01*
X117807409Y-52956209D01*
X117790500Y-52893699D01*
X117790500Y-46958627D01*
X117810185Y-46891588D01*
X117826819Y-46870946D01*
X117965981Y-46731784D01*
X118188927Y-46508837D01*
X118250248Y-46475354D01*
X118252415Y-46474903D01*
X118310350Y-46463378D01*
X118407762Y-46444002D01*
X118553444Y-46383659D01*
X118684554Y-46296054D01*
X118796054Y-46184554D01*
X118883659Y-46053444D01*
X118944002Y-45907762D01*
X118974765Y-45753107D01*
X118974765Y-45595423D01*
X118974765Y-45595420D01*
X118974764Y-45595418D01*
X118967253Y-45557657D01*
X118944002Y-45440768D01*
X118923223Y-45390602D01*
X118883662Y-45295092D01*
X118883660Y-45295088D01*
X118883659Y-45295086D01*
X118808211Y-45182171D01*
X118787334Y-45115495D01*
X118805818Y-45048115D01*
X118823629Y-45025604D01*
X121987819Y-41861415D01*
X122049142Y-41827931D01*
X122118834Y-41832915D01*
G37*
%TD.AperFunction*%
%TA.AperFunction,Conductor*%
G36*
X125112617Y-40609445D02*
G01*
X125143511Y-40616746D01*
X125145895Y-40619217D01*
X125149191Y-40620185D01*
X125169980Y-40644177D01*
X125192027Y-40667025D01*
X125193571Y-40671402D01*
X125194946Y-40672989D01*
X125203769Y-40700308D01*
X125230261Y-40833491D01*
X125230264Y-40833501D01*
X125290602Y-40979172D01*
X125290609Y-40979185D01*
X125378602Y-41110874D01*
X125399480Y-41177551D01*
X125399500Y-41179765D01*
X125399500Y-41660487D01*
X125399499Y-41660505D01*
X125399499Y-41826211D01*
X125399498Y-41826211D01*
X125402796Y-41838518D01*
X125440423Y-41978942D01*
X125466230Y-42023641D01*
X125519477Y-42115869D01*
X125519481Y-42115874D01*
X125638349Y-42234742D01*
X125638355Y-42234747D01*
X126066160Y-42662552D01*
X126099645Y-42723875D01*
X126101418Y-42766416D01*
X126099501Y-42780978D01*
X126099501Y-43513336D01*
X126114492Y-43627212D01*
X126114493Y-43627218D01*
X126114494Y-43627221D01*
X126114685Y-43627682D01*
X126173188Y-43768920D01*
X126213666Y-43821673D01*
X126238859Y-43886842D01*
X126224820Y-43955287D01*
X126213666Y-43972643D01*
X126173188Y-44025395D01*
X126114494Y-44167094D01*
X126114493Y-44167096D01*
X126099501Y-44280980D01*
X126099501Y-45013336D01*
X126114492Y-45127212D01*
X126114494Y-45127220D01*
X126173188Y-45268920D01*
X126173189Y-45268921D01*
X126266557Y-45390602D01*
X126388238Y-45483970D01*
X126529938Y-45542665D01*
X126643824Y-45557658D01*
X126675500Y-45557657D01*
X126742538Y-45577340D01*
X126788294Y-45630142D01*
X126799501Y-45681657D01*
X126799501Y-46813331D01*
X126799500Y-46813349D01*
X126799500Y-46979055D01*
X126799499Y-46979055D01*
X126840425Y-47131790D01*
X126840426Y-47131791D01*
X126859419Y-47164687D01*
X126859420Y-47164688D01*
X126919478Y-47268713D01*
X126919480Y-47268716D01*
X126919481Y-47268717D01*
X127019480Y-47368716D01*
X127131284Y-47480520D01*
X127131286Y-47480521D01*
X127131290Y-47480524D01*
X127201667Y-47521156D01*
X127201671Y-47521157D01*
X127201672Y-47521158D01*
X127268215Y-47559577D01*
X127420943Y-47600501D01*
X127420946Y-47600501D01*
X127586653Y-47600501D01*
X127586669Y-47600500D01*
X133250903Y-47600500D01*
X133317942Y-47620185D01*
X133363697Y-47672989D01*
X133373641Y-47742147D01*
X133344616Y-47805703D01*
X133338584Y-47812179D01*
X131977775Y-49172989D01*
X130631286Y-50519478D01*
X130519481Y-50631282D01*
X130519479Y-50631285D01*
X130499872Y-50665245D01*
X130480265Y-50699207D01*
X130440423Y-50768215D01*
X130399499Y-50920943D01*
X130399499Y-50920945D01*
X130399499Y-51089046D01*
X130399500Y-51089059D01*
X130399500Y-59920234D01*
X130379815Y-59987273D01*
X130378602Y-59989125D01*
X130290609Y-60120814D01*
X130290602Y-60120827D01*
X130230264Y-60266498D01*
X130230261Y-60266510D01*
X130199500Y-60421153D01*
X130199500Y-60578846D01*
X130230261Y-60733489D01*
X130230264Y-60733501D01*
X130290602Y-60879172D01*
X130290609Y-60879185D01*
X130378210Y-61010288D01*
X130378213Y-61010292D01*
X130489707Y-61121786D01*
X130489711Y-61121789D01*
X130620814Y-61209390D01*
X130620827Y-61209397D01*
X130718235Y-61249744D01*
X130766503Y-61269737D01*
X130917096Y-61299692D01*
X130921153Y-61300499D01*
X130921156Y-61300500D01*
X130921158Y-61300500D01*
X131078844Y-61300500D01*
X131193972Y-61277599D01*
X131225276Y-61271372D01*
X131294868Y-61277599D01*
X131350045Y-61320462D01*
X131373290Y-61386351D01*
X131357223Y-61454348D01*
X131337149Y-61480670D01*
X128634744Y-64183075D01*
X128634738Y-64183081D01*
X128631286Y-64186534D01*
X128631284Y-64186536D01*
X128519480Y-64298340D01*
X128489943Y-64349500D01*
X128484255Y-64359351D01*
X128484253Y-64359354D01*
X128461076Y-64399499D01*
X128440423Y-64435271D01*
X128399499Y-64587999D01*
X128399499Y-64588001D01*
X128399499Y-64756102D01*
X128399500Y-64756115D01*
X128399500Y-83420234D01*
X128379815Y-83487273D01*
X128378602Y-83489125D01*
X128290609Y-83620814D01*
X128290602Y-83620827D01*
X128230264Y-83766498D01*
X128230261Y-83766510D01*
X128199500Y-83921153D01*
X128199500Y-84078846D01*
X128230261Y-84233489D01*
X128230264Y-84233501D01*
X128290602Y-84379172D01*
X128290609Y-84379185D01*
X128378210Y-84510288D01*
X128378213Y-84510292D01*
X128489707Y-84621786D01*
X128489711Y-84621789D01*
X128620814Y-84709390D01*
X128620827Y-84709397D01*
X128743015Y-84760008D01*
X128766503Y-84769737D01*
X128921153Y-84800499D01*
X128921156Y-84800500D01*
X128921158Y-84800500D01*
X129078844Y-84800500D01*
X129078845Y-84800499D01*
X129233497Y-84769737D01*
X129379179Y-84709394D01*
X129510289Y-84621789D01*
X129621789Y-84510289D01*
X129709394Y-84379179D01*
X129769737Y-84233497D01*
X129800500Y-84078842D01*
X129800500Y-83921158D01*
X129800500Y-83921155D01*
X129800499Y-83921153D01*
X129785435Y-83845423D01*
X129769737Y-83766503D01*
X129757375Y-83736658D01*
X129709397Y-83620827D01*
X129709390Y-83620814D01*
X129621398Y-83489125D01*
X129600520Y-83422447D01*
X129600500Y-83420234D01*
X129600500Y-81675685D01*
X129620185Y-81608646D01*
X129672989Y-81562891D01*
X129742147Y-81552947D01*
X129760246Y-81557913D01*
X129760365Y-81557473D01*
X129768214Y-81559576D01*
X129768216Y-81559577D01*
X129920943Y-81600500D01*
X131913331Y-81600500D01*
X131913347Y-81600501D01*
X131920943Y-81600501D01*
X132079054Y-81600501D01*
X132079057Y-81600501D01*
X132231785Y-81559577D01*
X132301233Y-81519481D01*
X132368716Y-81480520D01*
X132480520Y-81368716D01*
X132480520Y-81368714D01*
X132490724Y-81358511D01*
X132490728Y-81358506D01*
X132908506Y-80940728D01*
X132908511Y-80940724D01*
X132918714Y-80930520D01*
X132918716Y-80930520D01*
X133030520Y-80818716D01*
X133109577Y-80681784D01*
X133150500Y-80529057D01*
X133150500Y-79902135D01*
X137949500Y-79902135D01*
X137949500Y-81997870D01*
X137949501Y-81997876D01*
X137955908Y-82057483D01*
X138006202Y-82192328D01*
X138006206Y-82192335D01*
X138092452Y-82307544D01*
X138092455Y-82307547D01*
X138207664Y-82393793D01*
X138207671Y-82393797D01*
X138342517Y-82444091D01*
X138342516Y-82444091D01*
X138349444Y-82444835D01*
X138402127Y-82450500D01*
X141697872Y-82450499D01*
X141757483Y-82444091D01*
X141892331Y-82393796D01*
X142007546Y-82307546D01*
X142093796Y-82192331D01*
X142144091Y-82057483D01*
X142150500Y-81997873D01*
X142150499Y-79902128D01*
X142144091Y-79842517D01*
X142132864Y-79812417D01*
X142093797Y-79707671D01*
X142093793Y-79707664D01*
X142007547Y-79592455D01*
X142007544Y-79592452D01*
X141892335Y-79506206D01*
X141892328Y-79506202D01*
X141757482Y-79455908D01*
X141757483Y-79455908D01*
X141697883Y-79449501D01*
X141697881Y-79449500D01*
X141697873Y-79449500D01*
X141697864Y-79449500D01*
X138402129Y-79449500D01*
X138402123Y-79449501D01*
X138342516Y-79455908D01*
X138207671Y-79506202D01*
X138207664Y-79506206D01*
X138092455Y-79592452D01*
X138092452Y-79592455D01*
X138006206Y-79707664D01*
X138006202Y-79707671D01*
X137955908Y-79842517D01*
X137949783Y-79899495D01*
X137949501Y-79902123D01*
X137949500Y-79902135D01*
X133150500Y-79902135D01*
X133150500Y-79304067D01*
X133170185Y-79237028D01*
X133218205Y-79193582D01*
X133336433Y-79133343D01*
X133527510Y-78994517D01*
X133694517Y-78827510D01*
X133833343Y-78636433D01*
X133940568Y-78425992D01*
X134013553Y-78201368D01*
X134024815Y-78130261D01*
X134050500Y-77968097D01*
X134050500Y-77731902D01*
X134013553Y-77498631D01*
X133949986Y-77302993D01*
X133940568Y-77274008D01*
X133940566Y-77274005D01*
X133940566Y-77274003D01*
X133884002Y-77162991D01*
X133833343Y-77063567D01*
X133694517Y-76872490D01*
X133527510Y-76705483D01*
X133471259Y-76664614D01*
X133428595Y-76609284D01*
X133423902Y-76577455D01*
X132679408Y-75832962D01*
X132742993Y-75815925D01*
X132857007Y-75750099D01*
X132950099Y-75657007D01*
X133015925Y-75542993D01*
X133032962Y-75479409D01*
X133772658Y-76219105D01*
X133772658Y-76219104D01*
X133832914Y-76136169D01*
X133832918Y-76136163D01*
X133901467Y-76001629D01*
X133949441Y-75950833D01*
X134017262Y-75934038D01*
X134083397Y-75956575D01*
X134122437Y-76001629D01*
X134137715Y-76031613D01*
X134258028Y-76197213D01*
X134402786Y-76341971D01*
X134523186Y-76429445D01*
X134568390Y-76462287D01*
X134684607Y-76521503D01*
X134750776Y-76555218D01*
X134750778Y-76555218D01*
X134750781Y-76555220D01*
X134855137Y-76589127D01*
X134945465Y-76618477D01*
X135046557Y-76634488D01*
X135147648Y-76650500D01*
X135147649Y-76650500D01*
X135952351Y-76650500D01*
X135952352Y-76650500D01*
X136154534Y-76618477D01*
X136349219Y-76555220D01*
X136531610Y-76462287D01*
X136635997Y-76386446D01*
X136697213Y-76341971D01*
X136697215Y-76341968D01*
X136697219Y-76341966D01*
X136841966Y-76197219D01*
X136841968Y-76197215D01*
X136841971Y-76197213D01*
X136894732Y-76124590D01*
X136962287Y-76031610D01*
X137055220Y-75849219D01*
X137118477Y-75654534D01*
X137150500Y-75452352D01*
X137150500Y-75247648D01*
X138749500Y-75247648D01*
X138749500Y-75452351D01*
X138781522Y-75654534D01*
X138844781Y-75849223D01*
X138937715Y-76031613D01*
X139058028Y-76197213D01*
X139202786Y-76341971D01*
X139323186Y-76429445D01*
X139368390Y-76462287D01*
X139484607Y-76521503D01*
X139550776Y-76555218D01*
X139550778Y-76555218D01*
X139550781Y-76555220D01*
X139655137Y-76589127D01*
X139745465Y-76618477D01*
X139846557Y-76634488D01*
X139947648Y-76650500D01*
X139947649Y-76650500D01*
X140152351Y-76650500D01*
X140152352Y-76650500D01*
X140354534Y-76618477D01*
X140549219Y-76555220D01*
X140731610Y-76462287D01*
X140835997Y-76386446D01*
X140897213Y-76341971D01*
X140897215Y-76341968D01*
X140897219Y-76341966D01*
X141041966Y-76197219D01*
X141041968Y-76197215D01*
X141041971Y-76197213D01*
X141094732Y-76124590D01*
X141162287Y-76031610D01*
X141255220Y-75849219D01*
X141318477Y-75654534D01*
X141350500Y-75452352D01*
X141350500Y-75247648D01*
X141319590Y-75052493D01*
X141318477Y-75045465D01*
X141278400Y-74922122D01*
X141255220Y-74850781D01*
X141255218Y-74850778D01*
X141255218Y-74850776D01*
X141200518Y-74743423D01*
X141162287Y-74668390D01*
X141140352Y-74638199D01*
X141041971Y-74502786D01*
X140897213Y-74358028D01*
X140731613Y-74237715D01*
X140731612Y-74237714D01*
X140731610Y-74237713D01*
X140672398Y-74207543D01*
X140549223Y-74144781D01*
X140354534Y-74081522D01*
X140179995Y-74053878D01*
X140152352Y-74049500D01*
X139947648Y-74049500D01*
X139923329Y-74053351D01*
X139745465Y-74081522D01*
X139550776Y-74144781D01*
X139368386Y-74237715D01*
X139202786Y-74358028D01*
X139058028Y-74502786D01*
X138937715Y-74668386D01*
X138844781Y-74850776D01*
X138781522Y-75045465D01*
X138749500Y-75247648D01*
X137150500Y-75247648D01*
X137119590Y-75052493D01*
X137118477Y-75045465D01*
X137078400Y-74922122D01*
X137055220Y-74850781D01*
X137055218Y-74850778D01*
X137055218Y-74850776D01*
X137000518Y-74743423D01*
X136962287Y-74668390D01*
X136940352Y-74638199D01*
X136841971Y-74502786D01*
X136697213Y-74358028D01*
X136531613Y-74237715D01*
X136531612Y-74237714D01*
X136531610Y-74237713D01*
X136472398Y-74207543D01*
X136349223Y-74144781D01*
X136154534Y-74081522D01*
X135979995Y-74053878D01*
X135952352Y-74049500D01*
X135147648Y-74049500D01*
X135123329Y-74053351D01*
X134945465Y-74081522D01*
X134750776Y-74144781D01*
X134568386Y-74237715D01*
X134402786Y-74358028D01*
X134258028Y-74502786D01*
X134137713Y-74668388D01*
X134122436Y-74698371D01*
X134074461Y-74749167D01*
X134006640Y-74765961D01*
X133940505Y-74743423D01*
X133901467Y-74698370D01*
X133832914Y-74563828D01*
X133763394Y-74468142D01*
X133739914Y-74402335D01*
X133755739Y-74334281D01*
X133789401Y-74295989D01*
X133792329Y-74293796D01*
X133792331Y-74293796D01*
X133907546Y-74207546D01*
X133993796Y-74092331D01*
X134044091Y-73957483D01*
X134050500Y-73897873D01*
X134050499Y-71802128D01*
X134044091Y-71742517D01*
X134030278Y-71705483D01*
X133993797Y-71607671D01*
X133993793Y-71607664D01*
X133907547Y-71492455D01*
X133907544Y-71492452D01*
X133792335Y-71406206D01*
X133792328Y-71406202D01*
X133657482Y-71355908D01*
X133657483Y-71355908D01*
X133597883Y-71349501D01*
X133597881Y-71349500D01*
X133597873Y-71349500D01*
X133597865Y-71349500D01*
X133299097Y-71349500D01*
X133232058Y-71329815D01*
X133186303Y-71277011D01*
X133176359Y-71207853D01*
X133205384Y-71144297D01*
X133211416Y-71137819D01*
X138212416Y-66136819D01*
X138273739Y-66103334D01*
X138300097Y-66100500D01*
X141410234Y-66100500D01*
X141477273Y-66120185D01*
X141479125Y-66121398D01*
X141610814Y-66209390D01*
X141610827Y-66209397D01*
X141756498Y-66269735D01*
X141756503Y-66269737D01*
X141866987Y-66291713D01*
X141889691Y-66296230D01*
X141951602Y-66328615D01*
X141986176Y-66389330D01*
X141989500Y-66417847D01*
X141989500Y-68163852D01*
X141969815Y-68230891D01*
X141917011Y-68276646D01*
X141847853Y-68286590D01*
X141822167Y-68280034D01*
X141757482Y-68255908D01*
X141757483Y-68255908D01*
X141697883Y-68249501D01*
X141697881Y-68249500D01*
X141697873Y-68249500D01*
X141697864Y-68249500D01*
X138402129Y-68249500D01*
X138402123Y-68249501D01*
X138342516Y-68255908D01*
X138207671Y-68306202D01*
X138207664Y-68306206D01*
X138092455Y-68392452D01*
X138092452Y-68392455D01*
X138006206Y-68507664D01*
X138006202Y-68507671D01*
X137955908Y-68642517D01*
X137949501Y-68702116D01*
X137949500Y-68702135D01*
X137949500Y-70797870D01*
X137949501Y-70797876D01*
X137955908Y-70857483D01*
X138006202Y-70992328D01*
X138006206Y-70992335D01*
X138092452Y-71107544D01*
X138092455Y-71107547D01*
X138207664Y-71193793D01*
X138207671Y-71193797D01*
X138342517Y-71244091D01*
X138342516Y-71244091D01*
X138349444Y-71244835D01*
X138402127Y-71250500D01*
X141697872Y-71250499D01*
X141757483Y-71244091D01*
X141822168Y-71219964D01*
X141891858Y-71214981D01*
X141953181Y-71248465D01*
X141986666Y-71309788D01*
X141989500Y-71336147D01*
X141989500Y-73303330D01*
X141989499Y-73303348D01*
X141989499Y-73469054D01*
X141989498Y-73469054D01*
X142030164Y-73620821D01*
X142030423Y-73621785D01*
X142047002Y-73650500D01*
X142109479Y-73758714D01*
X142109481Y-73758717D01*
X142228349Y-73877585D01*
X142228355Y-73877590D01*
X145597200Y-77246435D01*
X145630685Y-77307758D01*
X145627450Y-77372433D01*
X145586447Y-77498628D01*
X145549500Y-77731902D01*
X145549500Y-77968097D01*
X145586446Y-78201368D01*
X145659433Y-78425996D01*
X145728356Y-78561264D01*
X145766657Y-78636433D01*
X145905483Y-78827510D01*
X146072490Y-78994517D01*
X146263567Y-79133343D01*
X146273404Y-79138355D01*
X146474003Y-79240566D01*
X146474005Y-79240566D01*
X146474008Y-79240568D01*
X146594412Y-79279689D01*
X146698631Y-79313553D01*
X146931903Y-79350500D01*
X146931908Y-79350500D01*
X146949765Y-79350500D01*
X147016804Y-79370185D01*
X147062559Y-79422989D01*
X147073765Y-79474500D01*
X147073765Y-84188635D01*
X147054080Y-84255674D01*
X147001276Y-84301429D01*
X146932118Y-84311373D01*
X146884700Y-84293205D01*
X146884554Y-84293479D01*
X146882374Y-84292314D01*
X146880884Y-84291743D01*
X146879195Y-84290614D01*
X146879172Y-84290602D01*
X146733501Y-84230264D01*
X146733489Y-84230261D01*
X146578845Y-84199500D01*
X146578842Y-84199500D01*
X146421158Y-84199500D01*
X146421155Y-84199500D01*
X146266510Y-84230261D01*
X146266498Y-84230264D01*
X146120827Y-84290602D01*
X146120814Y-84290609D01*
X145989125Y-84378602D01*
X145922447Y-84399480D01*
X145920234Y-84399500D01*
X131979057Y-84399500D01*
X131820942Y-84399500D01*
X131668215Y-84440423D01*
X131668214Y-84440423D01*
X131668212Y-84440424D01*
X131668209Y-84440425D01*
X131618096Y-84469359D01*
X131618095Y-84469360D01*
X131574689Y-84494420D01*
X131531285Y-84519479D01*
X131531282Y-84519481D01*
X130985339Y-85065425D01*
X130924016Y-85098910D01*
X130921850Y-85099361D01*
X130766508Y-85130261D01*
X130766498Y-85130264D01*
X130620827Y-85190602D01*
X130620814Y-85190609D01*
X130489125Y-85278602D01*
X130422447Y-85299480D01*
X130420234Y-85299500D01*
X124131941Y-85299500D01*
X124064902Y-85279815D01*
X124019147Y-85227011D01*
X124009203Y-85157853D01*
X124038228Y-85094297D01*
X124044260Y-85087819D01*
X124121786Y-85010292D01*
X124121789Y-85010289D01*
X124209394Y-84879179D01*
X124269737Y-84733497D01*
X124300500Y-84578842D01*
X124300500Y-84421158D01*
X124300500Y-84421155D01*
X124300499Y-84421153D01*
X124295628Y-84396666D01*
X124269737Y-84266503D01*
X124267797Y-84261819D01*
X124209397Y-84120827D01*
X124209390Y-84120814D01*
X124121398Y-83989125D01*
X124100520Y-83922447D01*
X124100500Y-83920234D01*
X124100500Y-80704664D01*
X124104725Y-80672570D01*
X124121413Y-80610292D01*
X124140501Y-80539057D01*
X124140501Y-80380942D01*
X124140501Y-80373347D01*
X124140500Y-80373329D01*
X124140500Y-75963389D01*
X124979500Y-75963389D01*
X124979500Y-76136611D01*
X125006598Y-76307701D01*
X125060127Y-76472445D01*
X125138768Y-76626788D01*
X125240586Y-76766928D01*
X125363072Y-76889414D01*
X125503212Y-76991232D01*
X125657555Y-77069873D01*
X125822299Y-77123402D01*
X125993389Y-77150500D01*
X125993390Y-77150500D01*
X126166610Y-77150500D01*
X126166611Y-77150500D01*
X126337701Y-77123402D01*
X126502445Y-77069873D01*
X126656788Y-76991232D01*
X126796928Y-76889414D01*
X126919414Y-76766928D01*
X127021232Y-76626788D01*
X127099873Y-76472445D01*
X127153402Y-76307701D01*
X127180500Y-76136611D01*
X127180500Y-75963389D01*
X127153402Y-75792299D01*
X127099873Y-75627555D01*
X127021232Y-75473212D01*
X126919414Y-75333072D01*
X126796928Y-75210586D01*
X126656788Y-75108768D01*
X126502445Y-75030127D01*
X126337701Y-74976598D01*
X126337699Y-74976597D01*
X126337698Y-74976597D01*
X126206271Y-74955781D01*
X126166611Y-74949500D01*
X125993389Y-74949500D01*
X125953728Y-74955781D01*
X125822302Y-74976597D01*
X125657552Y-75030128D01*
X125503211Y-75108768D01*
X125446289Y-75150125D01*
X125363072Y-75210586D01*
X125363070Y-75210588D01*
X125363069Y-75210588D01*
X125240588Y-75333069D01*
X125240588Y-75333070D01*
X125240586Y-75333072D01*
X125205852Y-75380879D01*
X125138768Y-75473211D01*
X125060128Y-75627552D01*
X125006597Y-75792302D01*
X124989541Y-75899991D01*
X124979500Y-75963389D01*
X124140500Y-75963389D01*
X124140500Y-72536300D01*
X124160185Y-72469261D01*
X124208204Y-72425815D01*
X124378845Y-72338870D01*
X124582656Y-72190793D01*
X124760793Y-72012656D01*
X124908870Y-71808845D01*
X125023241Y-71584379D01*
X125101090Y-71344785D01*
X125140500Y-71095962D01*
X125140500Y-70844038D01*
X125101090Y-70595215D01*
X125023241Y-70355621D01*
X125023239Y-70355618D01*
X125023239Y-70355616D01*
X124973426Y-70257853D01*
X124908870Y-70131155D01*
X124821056Y-70010289D01*
X124760798Y-69927350D01*
X124760794Y-69927345D01*
X124582654Y-69749205D01*
X124582649Y-69749201D01*
X124378848Y-69601132D01*
X124378847Y-69601131D01*
X124378845Y-69601130D01*
X124256388Y-69538735D01*
X124208205Y-69514184D01*
X124157409Y-69466209D01*
X124140500Y-69403699D01*
X124140500Y-56913389D01*
X124979500Y-56913389D01*
X124979500Y-57086611D01*
X125006598Y-57257701D01*
X125060127Y-57422445D01*
X125138768Y-57576788D01*
X125240586Y-57716928D01*
X125363072Y-57839414D01*
X125503212Y-57941232D01*
X125657555Y-58019873D01*
X125822299Y-58073402D01*
X125993389Y-58100500D01*
X125993390Y-58100500D01*
X126166610Y-58100500D01*
X126166611Y-58100500D01*
X126337701Y-58073402D01*
X126502445Y-58019873D01*
X126656788Y-57941232D01*
X126796928Y-57839414D01*
X126919414Y-57716928D01*
X127021232Y-57576788D01*
X127099873Y-57422445D01*
X127153402Y-57257701D01*
X127180500Y-57086611D01*
X127180500Y-56913389D01*
X127153402Y-56742299D01*
X127099873Y-56577555D01*
X127021232Y-56423212D01*
X126919414Y-56283072D01*
X126796928Y-56160586D01*
X126656788Y-56058768D01*
X126502445Y-55980127D01*
X126337701Y-55926598D01*
X126337699Y-55926597D01*
X126337698Y-55926597D01*
X126206271Y-55905781D01*
X126166611Y-55899500D01*
X125993389Y-55899500D01*
X125953728Y-55905781D01*
X125822302Y-55926597D01*
X125657552Y-55980128D01*
X125503211Y-56058768D01*
X125446289Y-56100125D01*
X125363072Y-56160586D01*
X125363070Y-56160588D01*
X125363069Y-56160588D01*
X125240588Y-56283069D01*
X125240588Y-56283070D01*
X125240586Y-56283072D01*
X125210716Y-56324185D01*
X125138768Y-56423211D01*
X125060128Y-56577552D01*
X125006597Y-56742302D01*
X124989146Y-56852486D01*
X124979500Y-56913389D01*
X124140500Y-56913389D01*
X124140500Y-53486300D01*
X124160185Y-53419261D01*
X124208204Y-53375815D01*
X124378845Y-53288870D01*
X124582656Y-53140793D01*
X124760793Y-52962656D01*
X124908870Y-52758845D01*
X125023241Y-52534379D01*
X125101090Y-52294785D01*
X125140500Y-52045962D01*
X125140500Y-51794038D01*
X125101090Y-51545215D01*
X125023241Y-51305621D01*
X125023239Y-51305618D01*
X125023239Y-51305616D01*
X124969375Y-51199903D01*
X124908870Y-51081155D01*
X124792471Y-50920945D01*
X124760798Y-50877350D01*
X124760794Y-50877345D01*
X124582654Y-50699205D01*
X124582649Y-50699201D01*
X124378848Y-50551132D01*
X124378847Y-50551131D01*
X124378845Y-50551130D01*
X124308209Y-50515139D01*
X124208205Y-50464184D01*
X124157409Y-50416209D01*
X124140500Y-50353699D01*
X124140500Y-42460946D01*
X124140500Y-42460943D01*
X124124037Y-42399500D01*
X124099577Y-42308215D01*
X124053078Y-42227677D01*
X124020520Y-42171284D01*
X123908716Y-42059480D01*
X123908715Y-42059479D01*
X123904385Y-42055149D01*
X123904374Y-42055139D01*
X123834574Y-41985339D01*
X123801089Y-41924016D01*
X123800638Y-41921849D01*
X123774531Y-41790606D01*
X123769737Y-41766503D01*
X123758852Y-41740224D01*
X123709397Y-41620827D01*
X123709390Y-41620814D01*
X123621789Y-41489711D01*
X123621786Y-41489707D01*
X123510292Y-41378213D01*
X123510288Y-41378210D01*
X123379185Y-41290609D01*
X123379172Y-41290602D01*
X123233501Y-41230264D01*
X123233489Y-41230261D01*
X123078845Y-41199500D01*
X123078842Y-41199500D01*
X122949098Y-41199500D01*
X122882059Y-41179815D01*
X122836304Y-41127011D01*
X122826360Y-41057853D01*
X122855385Y-40994297D01*
X122861417Y-40987819D01*
X123212417Y-40636819D01*
X123273740Y-40603334D01*
X123300098Y-40600500D01*
X125082152Y-40600500D01*
X125112617Y-40609445D01*
G37*
%TD.AperFunction*%
%TA.AperFunction,Conductor*%
G36*
X144927942Y-48520185D02*
G01*
X144973697Y-48572989D01*
X144983641Y-48642147D01*
X144954616Y-48705703D01*
X144948584Y-48712181D01*
X143272923Y-50387840D01*
X143211600Y-50421325D01*
X143146924Y-50418090D01*
X142964787Y-50358910D01*
X142798903Y-50332636D01*
X142715962Y-50319500D01*
X142464038Y-50319500D01*
X142368865Y-50334574D01*
X142215214Y-50358910D01*
X141975616Y-50436760D01*
X141751151Y-50551132D01*
X141547350Y-50699201D01*
X141547345Y-50699205D01*
X141369205Y-50877345D01*
X141369201Y-50877350D01*
X141221132Y-51081151D01*
X141106760Y-51305616D01*
X141028910Y-51545214D01*
X140989500Y-51794038D01*
X140989500Y-52045961D01*
X141028910Y-52294785D01*
X141106760Y-52534383D01*
X141185413Y-52688747D01*
X141200367Y-52718096D01*
X141221132Y-52758848D01*
X141369201Y-52962649D01*
X141369205Y-52962654D01*
X141547345Y-53140794D01*
X141547350Y-53140798D01*
X141695914Y-53248735D01*
X141751155Y-53288870D01*
X141921795Y-53375815D01*
X141972591Y-53423789D01*
X141989500Y-53486300D01*
X141989500Y-55465461D01*
X141969815Y-55532500D01*
X141917011Y-55578255D01*
X141847853Y-55588199D01*
X141784297Y-55559174D01*
X141767125Y-55540949D01*
X141745644Y-55512955D01*
X141537047Y-55304358D01*
X141537040Y-55304352D01*
X141302993Y-55124761D01*
X141047510Y-54977258D01*
X141047500Y-54977254D01*
X140774961Y-54864364D01*
X140774954Y-54864362D01*
X140774952Y-54864361D01*
X140489993Y-54788007D01*
X140441113Y-54781571D01*
X140197513Y-54749500D01*
X140197506Y-54749500D01*
X139902494Y-54749500D01*
X139902486Y-54749500D01*
X139624085Y-54786153D01*
X139610007Y-54788007D01*
X139435428Y-54834785D01*
X139325048Y-54864361D01*
X139325038Y-54864364D01*
X139052499Y-54977254D01*
X139052489Y-54977258D01*
X138797006Y-55124761D01*
X138562959Y-55304352D01*
X138562952Y-55304358D01*
X138354358Y-55512952D01*
X138354352Y-55512959D01*
X138174761Y-55747006D01*
X138027258Y-56002489D01*
X138027254Y-56002499D01*
X137914364Y-56275038D01*
X137914361Y-56275048D01*
X137838008Y-56560004D01*
X137838006Y-56560015D01*
X137799500Y-56852486D01*
X137799500Y-57147513D01*
X137828622Y-57368709D01*
X137838007Y-57439993D01*
X137912212Y-57716930D01*
X137914361Y-57724951D01*
X137914364Y-57724961D01*
X138027254Y-57997500D01*
X138027258Y-57997510D01*
X138174761Y-58252993D01*
X138354352Y-58487040D01*
X138354358Y-58487047D01*
X138562952Y-58695641D01*
X138562959Y-58695647D01*
X138797006Y-58875238D01*
X139052489Y-59022741D01*
X139052490Y-59022741D01*
X139052493Y-59022743D01*
X139219489Y-59091915D01*
X139318483Y-59132920D01*
X139325048Y-59135639D01*
X139610007Y-59211993D01*
X139902494Y-59250500D01*
X139902501Y-59250500D01*
X140197499Y-59250500D01*
X140197506Y-59250500D01*
X140489993Y-59211993D01*
X140774952Y-59135639D01*
X141047507Y-59022743D01*
X141302994Y-58875238D01*
X141537042Y-58695646D01*
X141745646Y-58487042D01*
X141767124Y-58459052D01*
X141823552Y-58417849D01*
X141893298Y-58413694D01*
X141954218Y-58447906D01*
X141986971Y-58509624D01*
X141989500Y-58534538D01*
X141989500Y-64582152D01*
X141969815Y-64649191D01*
X141917011Y-64694946D01*
X141889692Y-64703769D01*
X141756508Y-64730261D01*
X141756498Y-64730264D01*
X141610827Y-64790602D01*
X141610814Y-64790609D01*
X141479125Y-64878602D01*
X141412447Y-64899480D01*
X141410234Y-64899500D01*
X138086669Y-64899500D01*
X138086653Y-64899499D01*
X138079057Y-64899499D01*
X137920943Y-64899499D01*
X137841010Y-64920917D01*
X137768216Y-64940422D01*
X137735038Y-64959578D01*
X137735037Y-64959577D01*
X137631287Y-65019477D01*
X137631282Y-65019481D01*
X132069479Y-70581284D01*
X132052753Y-70610256D01*
X132040613Y-70631284D01*
X131990423Y-70718215D01*
X131949499Y-70870943D01*
X131949499Y-70870945D01*
X131949499Y-71039046D01*
X131949500Y-71039059D01*
X131949500Y-71225500D01*
X131929815Y-71292539D01*
X131877011Y-71338294D01*
X131825500Y-71349500D01*
X131502130Y-71349500D01*
X131502123Y-71349501D01*
X131442516Y-71355908D01*
X131307671Y-71406202D01*
X131307664Y-71406206D01*
X131192455Y-71492452D01*
X131192452Y-71492455D01*
X131106206Y-71607664D01*
X131106202Y-71607671D01*
X131055908Y-71742517D01*
X131050738Y-71790609D01*
X131049501Y-71802123D01*
X131049500Y-71802135D01*
X131049500Y-73897870D01*
X131049501Y-73897876D01*
X131055908Y-73957483D01*
X131106202Y-74092328D01*
X131106206Y-74092335D01*
X131192452Y-74207544D01*
X131192453Y-74207544D01*
X131192454Y-74207546D01*
X131227120Y-74233497D01*
X131310599Y-74295990D01*
X131352469Y-74351924D01*
X131357453Y-74421615D01*
X131336605Y-74468141D01*
X131267087Y-74563824D01*
X131159897Y-74774197D01*
X131086934Y-74998752D01*
X131050000Y-75231947D01*
X131050000Y-75468052D01*
X131086934Y-75701247D01*
X131159897Y-75925802D01*
X131267087Y-76136174D01*
X131327338Y-76219104D01*
X131327340Y-76219105D01*
X132067037Y-75479408D01*
X132084075Y-75542993D01*
X132149901Y-75657007D01*
X132242993Y-75750099D01*
X132357007Y-75815925D01*
X132420590Y-75832962D01*
X131674280Y-76579271D01*
X131665105Y-76622947D01*
X131628739Y-76664615D01*
X131572490Y-76705482D01*
X131405485Y-76872487D01*
X131405485Y-76872488D01*
X131405483Y-76872490D01*
X131393187Y-76889414D01*
X131266657Y-77063566D01*
X131159433Y-77274003D01*
X131086446Y-77498631D01*
X131049500Y-77731902D01*
X131049500Y-77968097D01*
X131086446Y-78201368D01*
X131159433Y-78425996D01*
X131228356Y-78561264D01*
X131266657Y-78636433D01*
X131405483Y-78827510D01*
X131572490Y-78994517D01*
X131715797Y-79098636D01*
X131763568Y-79133344D01*
X131838177Y-79171358D01*
X131881794Y-79193582D01*
X131932590Y-79241556D01*
X131949500Y-79304067D01*
X131949500Y-80149903D01*
X131940855Y-80179343D01*
X131934332Y-80209330D01*
X131930577Y-80214345D01*
X131929815Y-80216942D01*
X131913181Y-80237584D01*
X131787584Y-80363181D01*
X131726261Y-80396666D01*
X131699903Y-80399500D01*
X130724500Y-80399500D01*
X130657461Y-80379815D01*
X130611706Y-80327011D01*
X130600500Y-80275500D01*
X130600500Y-64815683D01*
X130620185Y-64748644D01*
X130636819Y-64728002D01*
X131200652Y-64164169D01*
X131772457Y-63592364D01*
X131833778Y-63558881D01*
X131835945Y-63558430D01*
X131836634Y-63558293D01*
X131836635Y-63558293D01*
X131991290Y-63527530D01*
X132136972Y-63467187D01*
X132268082Y-63379582D01*
X132379582Y-63268082D01*
X132467187Y-63136972D01*
X132527530Y-62991290D01*
X132558293Y-62836635D01*
X132558293Y-62678951D01*
X132558293Y-62678948D01*
X132558292Y-62678946D01*
X132546729Y-62620814D01*
X132527530Y-62524296D01*
X132509397Y-62480518D01*
X132467190Y-62378620D01*
X132467188Y-62378616D01*
X132467187Y-62378614D01*
X132391739Y-62265699D01*
X132370862Y-62199023D01*
X132389346Y-62131643D01*
X132407157Y-62109132D01*
X136608713Y-57907577D01*
X136608716Y-57907576D01*
X136720520Y-57795772D01*
X136770639Y-57708960D01*
X136799577Y-57658841D01*
X136840500Y-57506114D01*
X136840500Y-57347999D01*
X136840500Y-56026300D01*
X136860185Y-55959261D01*
X136908204Y-55915815D01*
X137078845Y-55828870D01*
X137282656Y-55680793D01*
X137460793Y-55502656D01*
X137608870Y-55298845D01*
X137723241Y-55074379D01*
X137801090Y-54834785D01*
X137840500Y-54585962D01*
X137840500Y-54334038D01*
X137801090Y-54085215D01*
X137723241Y-53845621D01*
X137723239Y-53845618D01*
X137723239Y-53845616D01*
X137654139Y-53710001D01*
X137608870Y-53621155D01*
X137584663Y-53587837D01*
X137460798Y-53417350D01*
X137460794Y-53417345D01*
X137282654Y-53239205D01*
X137282649Y-53239201D01*
X137078848Y-53091132D01*
X137078847Y-53091131D01*
X137078845Y-53091130D01*
X137008747Y-53055413D01*
X136854383Y-52976760D01*
X136614785Y-52898910D01*
X136581884Y-52893699D01*
X136365962Y-52859500D01*
X136114038Y-52859500D01*
X135989626Y-52879205D01*
X135865214Y-52898910D01*
X135625616Y-52976760D01*
X135401151Y-53091132D01*
X135197350Y-53239201D01*
X135197345Y-53239205D01*
X135019205Y-53417345D01*
X135019201Y-53417350D01*
X134871132Y-53621151D01*
X134756760Y-53845616D01*
X134678910Y-54085214D01*
X134639500Y-54334038D01*
X134639500Y-54585961D01*
X134678910Y-54834785D01*
X134756760Y-55074383D01*
X134825550Y-55209390D01*
X134856299Y-55269738D01*
X134871132Y-55298848D01*
X135019201Y-55502649D01*
X135019205Y-55502654D01*
X135019207Y-55502656D01*
X135197344Y-55680793D01*
X135197345Y-55680794D01*
X135197344Y-55680794D01*
X135203661Y-55685383D01*
X135246327Y-55740714D01*
X135252305Y-55810327D01*
X135219699Y-55872122D01*
X135158860Y-55906479D01*
X135111378Y-55908174D01*
X135056611Y-55899500D01*
X134883389Y-55899500D01*
X134843728Y-55905781D01*
X134712302Y-55926597D01*
X134547552Y-55980128D01*
X134393211Y-56058768D01*
X134336289Y-56100125D01*
X134253072Y-56160586D01*
X134253070Y-56160588D01*
X134253069Y-56160588D01*
X134130588Y-56283069D01*
X134130588Y-56283070D01*
X134130586Y-56283072D01*
X134100716Y-56324185D01*
X134028768Y-56423211D01*
X133950128Y-56577552D01*
X133896597Y-56742302D01*
X133879146Y-56852486D01*
X133869500Y-56913389D01*
X133869500Y-57086611D01*
X133896598Y-57257701D01*
X133950127Y-57422445D01*
X134028768Y-57576788D01*
X134130586Y-57716928D01*
X134253072Y-57839414D01*
X134393212Y-57941232D01*
X134547555Y-58019873D01*
X134547559Y-58019874D01*
X134552048Y-58021734D01*
X134551250Y-58023659D01*
X134601724Y-58058128D01*
X134628961Y-58122470D01*
X134617088Y-58191324D01*
X134593459Y-58224360D01*
X131980670Y-60837149D01*
X131919347Y-60870634D01*
X131849655Y-60865650D01*
X131793722Y-60823778D01*
X131769305Y-60758314D01*
X131771372Y-60725276D01*
X131778269Y-60690606D01*
X131789969Y-60631784D01*
X131800500Y-60578844D01*
X131800500Y-60421155D01*
X131800499Y-60421153D01*
X131792150Y-60379179D01*
X131769737Y-60266503D01*
X131737048Y-60187583D01*
X131709397Y-60120827D01*
X131709390Y-60120814D01*
X131621398Y-59989125D01*
X131600520Y-59922447D01*
X131600500Y-59920234D01*
X131600500Y-51300097D01*
X131620185Y-51233058D01*
X131636819Y-51212416D01*
X134312416Y-48536819D01*
X134373739Y-48503334D01*
X134400097Y-48500500D01*
X144860903Y-48500500D01*
X144927942Y-48520185D01*
G37*
%TD.AperFunction*%
%TA.AperFunction,Conductor*%
G36*
X110766189Y-65747659D02*
G01*
X110773785Y-65747659D01*
X110775500Y-65747659D01*
X110778006Y-65748395D01*
X110781553Y-65748616D01*
X110781561Y-65748617D01*
X110787391Y-65751150D01*
X110842539Y-65767344D01*
X110888294Y-65820148D01*
X110899500Y-65871659D01*
X110899500Y-67699903D01*
X110879815Y-67766942D01*
X110863181Y-67787584D01*
X107461849Y-71188916D01*
X107400526Y-71222401D01*
X107374168Y-71225235D01*
X104754031Y-71225235D01*
X104686992Y-71205550D01*
X104685140Y-71204337D01*
X104553450Y-71116344D01*
X104553437Y-71116337D01*
X104407766Y-71055999D01*
X104407754Y-71055996D01*
X104253110Y-71025235D01*
X104253107Y-71025235D01*
X104095423Y-71025235D01*
X104095420Y-71025235D01*
X103940775Y-71055996D01*
X103940763Y-71055999D01*
X103795092Y-71116337D01*
X103795081Y-71116343D01*
X103682171Y-71191787D01*
X103615494Y-71212664D01*
X103548113Y-71194179D01*
X103525600Y-71176365D01*
X100773551Y-68424316D01*
X100740066Y-68362993D01*
X100745050Y-68293301D01*
X100746671Y-68289182D01*
X100750460Y-68280034D01*
X100769737Y-68233497D01*
X100800500Y-68078842D01*
X100800500Y-67921158D01*
X100800500Y-67921155D01*
X100800499Y-67921153D01*
X100799166Y-67914451D01*
X100769737Y-67766503D01*
X100752339Y-67724500D01*
X100709397Y-67620827D01*
X100709390Y-67620814D01*
X100621789Y-67489711D01*
X100621786Y-67489707D01*
X100591418Y-67459339D01*
X100557933Y-67398016D01*
X100562917Y-67328324D01*
X100604789Y-67272391D01*
X100670253Y-67247974D01*
X100679099Y-67247658D01*
X102095723Y-67247658D01*
X102162762Y-67267343D01*
X102194099Y-67296172D01*
X102266557Y-67390602D01*
X102388238Y-67483970D01*
X102529938Y-67542665D01*
X102643824Y-67557658D01*
X103781477Y-67557657D01*
X103848516Y-67577342D01*
X103880679Y-67607260D01*
X103921363Y-67661509D01*
X103955475Y-67706995D01*
X103955477Y-67706997D01*
X103955478Y-67706998D01*
X104089650Y-67830824D01*
X104089656Y-67830828D01*
X104089659Y-67830831D01*
X104244042Y-67928332D01*
X104395687Y-67989125D01*
X104413523Y-67996275D01*
X104413525Y-67996276D01*
X104592506Y-68032419D01*
X104775074Y-68035566D01*
X104955194Y-68005613D01*
X105126918Y-67943551D01*
X105141872Y-67934837D01*
X105148628Y-67930910D01*
X105148908Y-67930834D01*
X105176695Y-67914596D01*
X105176947Y-67914451D01*
X105180022Y-67913695D01*
X105239258Y-67897658D01*
X105271444Y-67897658D01*
X106728559Y-67897658D01*
X106760745Y-67897658D01*
X106823305Y-67914596D01*
X106857459Y-67934553D01*
X106858705Y-67935174D01*
X106873084Y-67943553D01*
X107044808Y-68005615D01*
X107224929Y-68035568D01*
X107407497Y-68032421D01*
X107586479Y-67996278D01*
X107755962Y-67928333D01*
X107910346Y-67830832D01*
X107921061Y-67820944D01*
X108044527Y-67706998D01*
X108044534Y-67706990D01*
X108119698Y-67606763D01*
X108175667Y-67564939D01*
X108218901Y-67557158D01*
X108350001Y-67557158D01*
X108850001Y-67557158D01*
X109356148Y-67557158D01*
X109469931Y-67542178D01*
X109469936Y-67542176D01*
X109611507Y-67483536D01*
X109611508Y-67483536D01*
X109733087Y-67390244D01*
X109826379Y-67268665D01*
X109826379Y-67268664D01*
X109885019Y-67127093D01*
X109885021Y-67127088D01*
X109900001Y-67013304D01*
X109900001Y-66897158D01*
X108850001Y-66897158D01*
X108850001Y-67557158D01*
X108350001Y-67557158D01*
X108350001Y-66771158D01*
X108369686Y-66704119D01*
X108422490Y-66658364D01*
X108474001Y-66647158D01*
X108600001Y-66647158D01*
X108600001Y-66521158D01*
X108619686Y-66454119D01*
X108672490Y-66408364D01*
X108724001Y-66397158D01*
X109900001Y-66397158D01*
X109900001Y-66281011D01*
X109885021Y-66167227D01*
X109885019Y-66167222D01*
X109826379Y-66025651D01*
X109826376Y-66025646D01*
X109786021Y-65973054D01*
X109760827Y-65907885D01*
X109774865Y-65839440D01*
X109786016Y-65822089D01*
X109805904Y-65796169D01*
X109862333Y-65754968D01*
X109904279Y-65747658D01*
X110766173Y-65747658D01*
X110766189Y-65747659D01*
G37*
%TD.AperFunction*%
%TA.AperFunction,Conductor*%
G36*
X179279857Y-59130128D02*
G01*
X179318834Y-59132916D01*
X179318838Y-59132919D01*
X179318843Y-59132920D01*
X179346867Y-59153902D01*
X179374767Y-59174788D01*
X179374768Y-59174791D01*
X179374773Y-59174795D01*
X179388294Y-59211055D01*
X179399184Y-59240252D01*
X179399184Y-59240260D01*
X179399185Y-59240262D01*
X179399184Y-59240264D01*
X179399500Y-59249098D01*
X179399500Y-70199901D01*
X179390856Y-70229337D01*
X179384333Y-70259327D01*
X179380577Y-70264344D01*
X179379815Y-70266940D01*
X179363182Y-70287582D01*
X179287584Y-70363181D01*
X179226261Y-70396666D01*
X179199902Y-70399500D01*
X174003439Y-70399500D01*
X173936400Y-70379815D01*
X173890645Y-70327011D01*
X173880701Y-70257853D01*
X173909726Y-70194297D01*
X173934548Y-70172398D01*
X173963981Y-70152730D01*
X174010289Y-70121789D01*
X174121789Y-70010289D01*
X174209394Y-69879179D01*
X174269737Y-69733497D01*
X174300500Y-69578842D01*
X174300500Y-69421158D01*
X174300500Y-69421155D01*
X174300499Y-69421153D01*
X174292126Y-69379060D01*
X174269737Y-69266503D01*
X174252339Y-69224500D01*
X174209397Y-69120827D01*
X174209390Y-69120814D01*
X174121789Y-68989711D01*
X174121786Y-68989707D01*
X174010292Y-68878213D01*
X174010288Y-68878210D01*
X173879185Y-68790609D01*
X173879172Y-68790602D01*
X173733501Y-68730264D01*
X173733491Y-68730261D01*
X173578149Y-68699361D01*
X173516238Y-68666976D01*
X173514660Y-68665425D01*
X173094906Y-68245671D01*
X173061421Y-68184348D01*
X173066405Y-68114656D01*
X173108277Y-68058723D01*
X173173741Y-68034306D01*
X173184710Y-68034008D01*
X173275074Y-68035566D01*
X173455194Y-68005613D01*
X173626918Y-67943551D01*
X173641872Y-67934837D01*
X173648628Y-67930910D01*
X173648908Y-67930834D01*
X173676695Y-67914596D01*
X173676947Y-67914451D01*
X173680022Y-67913695D01*
X173739258Y-67897658D01*
X173771444Y-67897658D01*
X175228559Y-67897658D01*
X175260745Y-67897658D01*
X175323305Y-67914596D01*
X175357459Y-67934553D01*
X175358705Y-67935174D01*
X175373084Y-67943553D01*
X175544808Y-68005615D01*
X175724929Y-68035568D01*
X175907497Y-68032421D01*
X176086479Y-67996278D01*
X176255962Y-67928333D01*
X176410346Y-67830832D01*
X176421061Y-67820944D01*
X176544527Y-67706998D01*
X176544534Y-67706990D01*
X176619698Y-67606763D01*
X176675667Y-67564939D01*
X176718901Y-67557158D01*
X176850001Y-67557158D01*
X177350001Y-67557158D01*
X177856148Y-67557158D01*
X177969931Y-67542178D01*
X177969936Y-67542176D01*
X178111507Y-67483536D01*
X178111508Y-67483536D01*
X178233087Y-67390244D01*
X178326379Y-67268665D01*
X178326379Y-67268664D01*
X178385019Y-67127093D01*
X178385021Y-67127088D01*
X178400001Y-67013304D01*
X178400001Y-66897158D01*
X177350001Y-66897158D01*
X177350001Y-67557158D01*
X176850001Y-67557158D01*
X176850001Y-66771158D01*
X176869686Y-66704119D01*
X176922490Y-66658364D01*
X176974001Y-66647158D01*
X177100001Y-66647158D01*
X177100001Y-66521158D01*
X177119686Y-66454119D01*
X177172490Y-66408364D01*
X177224001Y-66397158D01*
X178400001Y-66397158D01*
X178400001Y-66281011D01*
X178385021Y-66167227D01*
X178385019Y-66167222D01*
X178326379Y-66025651D01*
X178326376Y-66025646D01*
X178286021Y-65973054D01*
X178260827Y-65907885D01*
X178274865Y-65839440D01*
X178286022Y-65822081D01*
X178286335Y-65821674D01*
X178326813Y-65768921D01*
X178385508Y-65627221D01*
X178400501Y-65513335D01*
X178400500Y-64780982D01*
X178398819Y-64768216D01*
X178385509Y-64667103D01*
X178385508Y-64667095D01*
X178326813Y-64525395D01*
X178233445Y-64403714D01*
X178111764Y-64310346D01*
X178111763Y-64310345D01*
X177970064Y-64251651D01*
X177970062Y-64251650D01*
X177856179Y-64236658D01*
X177856178Y-64236658D01*
X177824501Y-64236658D01*
X177757462Y-64216973D01*
X177711707Y-64164169D01*
X177700501Y-64112658D01*
X177700501Y-61637300D01*
X177702884Y-61613108D01*
X177724765Y-61503109D01*
X177724765Y-61345420D01*
X177724764Y-61345418D01*
X177709710Y-61269737D01*
X177694002Y-61190768D01*
X177694000Y-61190763D01*
X177633662Y-61045092D01*
X177633660Y-61045088D01*
X177633659Y-61045086D01*
X177558211Y-60932171D01*
X177537334Y-60865495D01*
X177555818Y-60798115D01*
X177573629Y-60775604D01*
X179174947Y-59174286D01*
X179178713Y-59170520D01*
X179178716Y-59170520D01*
X179187826Y-59161410D01*
X179219813Y-59143946D01*
X179249142Y-59127932D01*
X179249146Y-59127932D01*
X179249151Y-59127930D01*
X179279857Y-59130128D01*
G37*
%TD.AperFunction*%
%TA.AperFunction,Conductor*%
G36*
X177866942Y-48220185D02*
G01*
X177887584Y-48236819D01*
X180863181Y-51212416D01*
X180896666Y-51273739D01*
X180899500Y-51300097D01*
X180899500Y-56699902D01*
X180879815Y-56766941D01*
X180863181Y-56787583D01*
X179622181Y-58028583D01*
X179560858Y-58062068D01*
X179491166Y-58057084D01*
X179435233Y-58015212D01*
X179410816Y-57949748D01*
X179410500Y-57940902D01*
X179410500Y-56229601D01*
X179430185Y-56162562D01*
X179478206Y-56119116D01*
X179491610Y-56112287D01*
X179657219Y-55991966D01*
X179801966Y-55847219D01*
X179801968Y-55847215D01*
X179801971Y-55847213D01*
X179858259Y-55769738D01*
X179922287Y-55681610D01*
X180015220Y-55499219D01*
X180078477Y-55304534D01*
X180110500Y-55102352D01*
X180110500Y-54897648D01*
X180100543Y-54834785D01*
X180078477Y-54695465D01*
X180040585Y-54578846D01*
X180015220Y-54500781D01*
X180015218Y-54500778D01*
X180015218Y-54500776D01*
X179963865Y-54399991D01*
X179922287Y-54318390D01*
X179902098Y-54290602D01*
X179801971Y-54152786D01*
X179657213Y-54008028D01*
X179491613Y-53887715D01*
X179491612Y-53887714D01*
X179491610Y-53887713D01*
X179409000Y-53845621D01*
X179309223Y-53794781D01*
X179114534Y-53731522D01*
X178939995Y-53703878D01*
X178912352Y-53699500D01*
X178707648Y-53699500D01*
X178683329Y-53703351D01*
X178505465Y-53731522D01*
X178310776Y-53794781D01*
X178128386Y-53887715D01*
X177962786Y-54008028D01*
X177818028Y-54152786D01*
X177697715Y-54318386D01*
X177604781Y-54500776D01*
X177541522Y-54695465D01*
X177509500Y-54897648D01*
X177509500Y-55102351D01*
X177541522Y-55304534D01*
X177604781Y-55499223D01*
X177656135Y-55600009D01*
X177697299Y-55680798D01*
X177697715Y-55681613D01*
X177818028Y-55847213D01*
X177818034Y-55847219D01*
X177962781Y-55991966D01*
X178128390Y-56112287D01*
X178141793Y-56119116D01*
X178192589Y-56167088D01*
X178209500Y-56229601D01*
X178209500Y-58389902D01*
X178189815Y-58456941D01*
X178173181Y-58477583D01*
X176934504Y-59716259D01*
X176912946Y-59728030D01*
X176893748Y-59743356D01*
X176882821Y-59744479D01*
X176873181Y-59749744D01*
X176848678Y-59747991D01*
X176824245Y-59750505D01*
X176814446Y-59745543D01*
X176803489Y-59744760D01*
X176783824Y-59730038D01*
X176761910Y-59718943D01*
X176754311Y-59707945D01*
X176747556Y-59702888D01*
X176739891Y-59691360D01*
X176735548Y-59683963D01*
X176709394Y-59620821D01*
X176621789Y-59489711D01*
X176621086Y-59489008D01*
X176617568Y-59483016D01*
X176609923Y-59452480D01*
X176600520Y-59422447D01*
X176600500Y-59420234D01*
X176600500Y-49097955D01*
X176620185Y-49030916D01*
X176672989Y-48985161D01*
X176700303Y-48976339D01*
X176733497Y-48969737D01*
X176879179Y-48909394D01*
X177010289Y-48821789D01*
X177121789Y-48710289D01*
X177209394Y-48579179D01*
X177269737Y-48433497D01*
X177282420Y-48369735D01*
X177296231Y-48300308D01*
X177328616Y-48238397D01*
X177389332Y-48203823D01*
X177417848Y-48200500D01*
X177799903Y-48200500D01*
X177866942Y-48220185D01*
G37*
%TD.AperFunction*%
%TA.AperFunction,Conductor*%
G36*
X133305703Y-40155384D02*
G01*
X133312181Y-40161416D01*
X136515139Y-43364374D01*
X136515149Y-43364385D01*
X136519479Y-43368715D01*
X136519480Y-43368716D01*
X136631284Y-43480520D01*
X136682847Y-43510289D01*
X136718095Y-43530639D01*
X136718097Y-43530641D01*
X136749437Y-43548735D01*
X136768215Y-43559577D01*
X136920943Y-43600501D01*
X136920946Y-43600501D01*
X137086653Y-43600501D01*
X137086669Y-43600500D01*
X137420234Y-43600500D01*
X137487273Y-43620185D01*
X137489125Y-43621398D01*
X137620814Y-43709390D01*
X137620827Y-43709397D01*
X137764533Y-43768921D01*
X137766503Y-43769737D01*
X137921153Y-43800499D01*
X137921156Y-43800500D01*
X137921158Y-43800500D01*
X138078844Y-43800500D01*
X138078845Y-43800499D01*
X138233497Y-43769737D01*
X138379179Y-43709394D01*
X138510289Y-43621789D01*
X138553740Y-43578337D01*
X138615060Y-43544852D01*
X138684752Y-43549835D01*
X138729102Y-43578337D01*
X139176365Y-44025600D01*
X139209850Y-44086923D01*
X139204866Y-44156615D01*
X139191787Y-44182171D01*
X139116343Y-44295081D01*
X139116337Y-44295092D01*
X139055999Y-44440763D01*
X139055996Y-44440775D01*
X139025235Y-44595418D01*
X139025235Y-44753111D01*
X139055996Y-44907754D01*
X139055999Y-44907766D01*
X139116337Y-45053437D01*
X139116344Y-45053450D01*
X139203945Y-45184553D01*
X139203948Y-45184557D01*
X139315442Y-45296051D01*
X139315447Y-45296055D01*
X139344389Y-45315393D01*
X139389195Y-45369004D01*
X139399500Y-45418496D01*
X139399500Y-46275500D01*
X139379815Y-46342539D01*
X139327011Y-46388294D01*
X139275500Y-46399500D01*
X128124501Y-46399500D01*
X128057462Y-46379815D01*
X128011707Y-46327011D01*
X128000501Y-46275500D01*
X128000501Y-45999494D01*
X128020186Y-45932455D01*
X128072990Y-45886700D01*
X128142148Y-45876756D01*
X128190714Y-45894652D01*
X128244042Y-45928332D01*
X128413279Y-45996177D01*
X128413523Y-45996275D01*
X128413525Y-45996276D01*
X128592506Y-46032419D01*
X128775074Y-46035566D01*
X128955194Y-46005613D01*
X129126918Y-45943551D01*
X129141872Y-45934837D01*
X129148628Y-45930910D01*
X129148908Y-45930834D01*
X129176695Y-45914596D01*
X129176947Y-45914451D01*
X129180022Y-45913695D01*
X129239258Y-45897658D01*
X129271444Y-45897658D01*
X130728559Y-45897658D01*
X130760745Y-45897658D01*
X130823305Y-45914596D01*
X130857459Y-45934553D01*
X130858705Y-45935174D01*
X130873084Y-45943553D01*
X131044808Y-46005615D01*
X131224929Y-46035568D01*
X131407497Y-46032421D01*
X131586479Y-45996278D01*
X131755962Y-45928333D01*
X131910346Y-45830832D01*
X131930556Y-45812181D01*
X132044527Y-45706998D01*
X132044534Y-45706990D01*
X132119698Y-45606763D01*
X132175667Y-45564939D01*
X132218901Y-45557158D01*
X132350001Y-45557158D01*
X132850001Y-45557158D01*
X133356148Y-45557158D01*
X133469931Y-45542178D01*
X133469936Y-45542176D01*
X133611507Y-45483536D01*
X133611508Y-45483536D01*
X133733087Y-45390244D01*
X133826379Y-45268665D01*
X133826379Y-45268664D01*
X133885019Y-45127093D01*
X133885021Y-45127088D01*
X133900001Y-45013304D01*
X133900001Y-44897158D01*
X132850001Y-44897158D01*
X132850001Y-45557158D01*
X132350001Y-45557158D01*
X132350001Y-44771158D01*
X132369686Y-44704119D01*
X132422490Y-44658364D01*
X132474001Y-44647158D01*
X132600001Y-44647158D01*
X132600001Y-44521158D01*
X132619686Y-44454119D01*
X132672490Y-44408364D01*
X132724001Y-44397158D01*
X133900001Y-44397158D01*
X133900001Y-44281011D01*
X133885021Y-44167227D01*
X133885019Y-44167222D01*
X133826379Y-44025651D01*
X133826376Y-44025646D01*
X133786021Y-43973054D01*
X133760827Y-43907885D01*
X133774865Y-43839440D01*
X133786022Y-43822081D01*
X133802583Y-43800499D01*
X133826813Y-43768921D01*
X133885508Y-43627221D01*
X133900501Y-43513335D01*
X133900500Y-42780982D01*
X133900499Y-42780978D01*
X133885509Y-42667103D01*
X133885508Y-42667095D01*
X133826813Y-42525395D01*
X133733445Y-42403714D01*
X133611764Y-42310346D01*
X133611763Y-42310345D01*
X133470064Y-42251651D01*
X133470062Y-42251650D01*
X133356179Y-42236658D01*
X133356178Y-42236658D01*
X133224500Y-42236658D01*
X133157461Y-42216973D01*
X133111706Y-42164169D01*
X133100500Y-42112658D01*
X133100500Y-40249097D01*
X133120185Y-40182058D01*
X133172989Y-40136303D01*
X133242147Y-40126359D01*
X133305703Y-40155384D01*
G37*
%TD.AperFunction*%
%TA.AperFunction,Conductor*%
G36*
X179842539Y-32120185D02*
G01*
X179888294Y-32172989D01*
X179899500Y-32224500D01*
X179899500Y-46199901D01*
X179879815Y-46266940D01*
X179863182Y-46287582D01*
X179787584Y-46363181D01*
X179726261Y-46396666D01*
X179699902Y-46399500D01*
X173917848Y-46399500D01*
X173850809Y-46379815D01*
X173805054Y-46327011D01*
X173796231Y-46299692D01*
X173769738Y-46166508D01*
X173769737Y-46166507D01*
X173769737Y-46166503D01*
X173751216Y-46121789D01*
X173709397Y-46020827D01*
X173709390Y-46020814D01*
X173621789Y-45889711D01*
X173621786Y-45889707D01*
X173544260Y-45812181D01*
X173510775Y-45750858D01*
X173515759Y-45681166D01*
X173557631Y-45625233D01*
X173623095Y-45600816D01*
X173631941Y-45600500D01*
X175913331Y-45600500D01*
X175913347Y-45600501D01*
X175920943Y-45600501D01*
X176079054Y-45600501D01*
X176079057Y-45600501D01*
X176231785Y-45559577D01*
X176311140Y-45513761D01*
X176368716Y-45480520D01*
X176480520Y-45368716D01*
X176480520Y-45368714D01*
X176490724Y-45358511D01*
X176490728Y-45358506D01*
X176987819Y-44861415D01*
X177049142Y-44827930D01*
X177118834Y-44832914D01*
X177174767Y-44874786D01*
X177199184Y-44940250D01*
X177199500Y-44949096D01*
X177199500Y-45078846D01*
X177230261Y-45233489D01*
X177230264Y-45233501D01*
X177290602Y-45379172D01*
X177290609Y-45379185D01*
X177378210Y-45510288D01*
X177378213Y-45510292D01*
X177489707Y-45621786D01*
X177489711Y-45621789D01*
X177620814Y-45709390D01*
X177620827Y-45709397D01*
X177726354Y-45753107D01*
X177766503Y-45769737D01*
X177889974Y-45794297D01*
X177921153Y-45800499D01*
X177921156Y-45800500D01*
X177921158Y-45800500D01*
X178078844Y-45800500D01*
X178078845Y-45800499D01*
X178233497Y-45769737D01*
X178379179Y-45709394D01*
X178510289Y-45621789D01*
X178621789Y-45510289D01*
X178709394Y-45379179D01*
X178769737Y-45233497D01*
X178798518Y-45088808D01*
X178800638Y-45078150D01*
X178833023Y-45016239D01*
X178834515Y-45014719D01*
X179480520Y-44368716D01*
X179559577Y-44231784D01*
X179600501Y-44079057D01*
X179600501Y-43920942D01*
X179600501Y-43913347D01*
X179600500Y-43913329D01*
X179600500Y-33920945D01*
X179600500Y-33920943D01*
X179559577Y-33768216D01*
X179501424Y-33667491D01*
X179480524Y-33631290D01*
X179480518Y-33631282D01*
X179368717Y-33519481D01*
X179368709Y-33519475D01*
X179231790Y-33440426D01*
X179231786Y-33440424D01*
X179231784Y-33440423D01*
X179079057Y-33399500D01*
X179079056Y-33399500D01*
X176410719Y-33399500D01*
X176343680Y-33379815D01*
X176300235Y-33331795D01*
X176280052Y-33292185D01*
X176280051Y-33292184D01*
X176155109Y-33120213D01*
X176004786Y-32969890D01*
X175832820Y-32844951D01*
X175832115Y-32844591D01*
X175824054Y-32840485D01*
X175773259Y-32792512D01*
X175756463Y-32724692D01*
X175778999Y-32658556D01*
X175824054Y-32619515D01*
X175832816Y-32615051D01*
X175882352Y-32579061D01*
X176004786Y-32490109D01*
X176004788Y-32490106D01*
X176004792Y-32490104D01*
X176155104Y-32339792D01*
X176155106Y-32339788D01*
X176155109Y-32339786D01*
X176247647Y-32212416D01*
X176280051Y-32167816D01*
X176280060Y-32167797D01*
X176282592Y-32163668D01*
X176283571Y-32164268D01*
X176327824Y-32117411D01*
X176390337Y-32100500D01*
X179775500Y-32100500D01*
X179842539Y-32120185D01*
G37*
%TD.AperFunction*%
%TA.AperFunction,Conductor*%
G36*
X154706320Y-39700185D02*
G01*
X154749765Y-39748205D01*
X154769947Y-39787814D01*
X154769948Y-39787815D01*
X154894890Y-39959786D01*
X155045213Y-40110109D01*
X155217182Y-40235050D01*
X155225946Y-40239516D01*
X155276742Y-40287491D01*
X155293536Y-40355312D01*
X155270998Y-40421447D01*
X155225946Y-40460484D01*
X155217182Y-40464949D01*
X155045213Y-40589890D01*
X154894890Y-40740213D01*
X154769951Y-40912179D01*
X154673444Y-41101585D01*
X154607753Y-41303760D01*
X154583031Y-41459850D01*
X154574500Y-41513713D01*
X154574500Y-41726287D01*
X154579641Y-41758748D01*
X154605444Y-41921662D01*
X154607754Y-41936243D01*
X154667729Y-42120827D01*
X154673444Y-42138414D01*
X154769951Y-42327820D01*
X154894890Y-42499786D01*
X155045213Y-42650109D01*
X155217179Y-42775048D01*
X155217181Y-42775049D01*
X155217184Y-42775051D01*
X155406588Y-42871557D01*
X155608757Y-42937246D01*
X155818713Y-42970500D01*
X157775500Y-42970500D01*
X157842539Y-42990185D01*
X157888294Y-43042989D01*
X157899500Y-43094500D01*
X157899500Y-45420234D01*
X157879815Y-45487273D01*
X157878602Y-45489125D01*
X157790609Y-45620814D01*
X157790602Y-45620827D01*
X157730264Y-45766498D01*
X157730261Y-45766508D01*
X157703769Y-45899692D01*
X157671384Y-45961603D01*
X157610668Y-45996177D01*
X157582152Y-45999500D01*
X152044782Y-45999500D01*
X151977743Y-45979815D01*
X151931988Y-45927011D01*
X151922044Y-45857853D01*
X151951069Y-45794297D01*
X151960684Y-45784376D01*
X151999505Y-45748548D01*
X152044530Y-45706995D01*
X152056821Y-45690606D01*
X152119698Y-45606763D01*
X152175667Y-45564939D01*
X152218901Y-45557158D01*
X152350001Y-45557158D01*
X152850001Y-45557158D01*
X153356148Y-45557158D01*
X153469931Y-45542178D01*
X153469936Y-45542176D01*
X153611507Y-45483536D01*
X153611508Y-45483536D01*
X153733087Y-45390244D01*
X153826379Y-45268665D01*
X153826379Y-45268664D01*
X153885019Y-45127093D01*
X153885021Y-45127088D01*
X153900001Y-45013304D01*
X153900001Y-44897158D01*
X152850001Y-44897158D01*
X152850001Y-45557158D01*
X152350001Y-45557158D01*
X152350001Y-44771158D01*
X152369686Y-44704119D01*
X152422490Y-44658364D01*
X152474001Y-44647158D01*
X152600001Y-44647158D01*
X152600001Y-44521158D01*
X152619686Y-44454119D01*
X152672490Y-44408364D01*
X152724001Y-44397158D01*
X153900001Y-44397158D01*
X153900001Y-44281011D01*
X153885021Y-44167227D01*
X153885019Y-44167222D01*
X153826379Y-44025651D01*
X153826376Y-44025646D01*
X153786021Y-43973054D01*
X153760827Y-43907885D01*
X153774865Y-43839440D01*
X153786022Y-43822081D01*
X153802583Y-43800499D01*
X153826813Y-43768921D01*
X153885508Y-43627221D01*
X153900501Y-43513335D01*
X153900500Y-42780982D01*
X153900499Y-42780978D01*
X153885509Y-42667103D01*
X153885508Y-42667095D01*
X153826813Y-42525395D01*
X153733445Y-42403714D01*
X153611764Y-42310346D01*
X153611763Y-42310345D01*
X153470064Y-42251651D01*
X153470062Y-42251650D01*
X153356179Y-42236658D01*
X153356178Y-42236658D01*
X153324501Y-42236658D01*
X153257462Y-42216973D01*
X153211707Y-42164169D01*
X153200501Y-42112658D01*
X153200501Y-40689061D01*
X153200502Y-40689048D01*
X153200502Y-40520945D01*
X153200502Y-40520944D01*
X153159578Y-40368217D01*
X153131461Y-40319516D01*
X153080525Y-40231291D01*
X153080519Y-40231283D01*
X152868717Y-40019481D01*
X152868709Y-40019475D01*
X152784703Y-39970975D01*
X152784700Y-39970974D01*
X152777180Y-39966632D01*
X152731785Y-39940423D01*
X152664199Y-39922313D01*
X152657181Y-39919479D01*
X152635485Y-39902312D01*
X152611858Y-39887910D01*
X152608469Y-39880934D01*
X152602390Y-39876124D01*
X152593418Y-39849951D01*
X152581329Y-39825063D01*
X152582249Y-39817364D01*
X152579735Y-39810029D01*
X152586339Y-39783157D01*
X152589624Y-39755687D01*
X152594560Y-39749708D01*
X152596411Y-39742179D01*
X152616490Y-39723147D01*
X152634109Y-39701809D01*
X152641495Y-39699447D01*
X152647122Y-39694115D01*
X152674303Y-39688960D01*
X152700661Y-39680535D01*
X152703612Y-39680500D01*
X154639281Y-39680500D01*
X154706320Y-39700185D01*
G37*
%TD.AperFunction*%
%TA.AperFunction,Conductor*%
G36*
X178342539Y-34620185D02*
G01*
X178388294Y-34672989D01*
X178399500Y-34724500D01*
X178399500Y-42613444D01*
X178379815Y-42680483D01*
X178327011Y-42726238D01*
X178257853Y-42736182D01*
X178239575Y-42731202D01*
X178239324Y-42732031D01*
X178233500Y-42730264D01*
X178233497Y-42730263D01*
X178233492Y-42730262D01*
X178233489Y-42730261D01*
X178078845Y-42699500D01*
X178078842Y-42699500D01*
X177921158Y-42699500D01*
X177921155Y-42699500D01*
X177766510Y-42730261D01*
X177766498Y-42730264D01*
X177620827Y-42790602D01*
X177620814Y-42790609D01*
X177489125Y-42878602D01*
X177428874Y-42897467D01*
X177429002Y-42898439D01*
X177423427Y-42899173D01*
X177422447Y-42899480D01*
X177420996Y-42899493D01*
X177420939Y-42899500D01*
X177386547Y-42908715D01*
X177386548Y-42908716D01*
X177268214Y-42940423D01*
X177268209Y-42940426D01*
X177131290Y-43019475D01*
X177131282Y-43019481D01*
X177072427Y-43078337D01*
X177019480Y-43131284D01*
X177019478Y-43131286D01*
X176403106Y-43747659D01*
X175787584Y-44363181D01*
X175726261Y-44396666D01*
X175699903Y-44399500D01*
X172686670Y-44399500D01*
X172686654Y-44399499D01*
X172679058Y-44399499D01*
X172520943Y-44399499D01*
X172444579Y-44419961D01*
X172368214Y-44440423D01*
X172368209Y-44440426D01*
X172231290Y-44519475D01*
X172231286Y-44519478D01*
X171995025Y-44755738D01*
X171933702Y-44789222D01*
X171864010Y-44784238D01*
X171859905Y-44782622D01*
X171733497Y-44730263D01*
X171733489Y-44730261D01*
X171578845Y-44699500D01*
X171578842Y-44699500D01*
X171421158Y-44699500D01*
X171421155Y-44699500D01*
X171266510Y-44730261D01*
X171266498Y-44730264D01*
X171120827Y-44790602D01*
X171120814Y-44790609D01*
X170989711Y-44878210D01*
X170989707Y-44878213D01*
X170878213Y-44989707D01*
X170878210Y-44989711D01*
X170827602Y-45065451D01*
X170773989Y-45110256D01*
X170704664Y-45118963D01*
X170641637Y-45088808D01*
X170604918Y-45029365D01*
X170600500Y-44996560D01*
X170600500Y-40386555D01*
X170620185Y-40319516D01*
X170672989Y-40273761D01*
X170742147Y-40263817D01*
X170760411Y-40268840D01*
X170760676Y-40267969D01*
X170766492Y-40269732D01*
X170766503Y-40269737D01*
X170896982Y-40295691D01*
X170921153Y-40300499D01*
X170921156Y-40300500D01*
X170921158Y-40300500D01*
X171078844Y-40300500D01*
X171078845Y-40300499D01*
X171233497Y-40269737D01*
X171379179Y-40209394D01*
X171379185Y-40209390D01*
X171510875Y-40121398D01*
X171577553Y-40100520D01*
X171579766Y-40100500D01*
X172241699Y-40100500D01*
X172261304Y-40106256D01*
X172281721Y-40107136D01*
X172304451Y-40118926D01*
X172308738Y-40120185D01*
X172313165Y-40123166D01*
X172313896Y-40123681D01*
X172467184Y-40235051D01*
X172483855Y-40243545D01*
X172491116Y-40248666D01*
X172507537Y-40269352D01*
X172526742Y-40287491D01*
X172528921Y-40296291D01*
X172534556Y-40303390D01*
X172537186Y-40329670D01*
X172543536Y-40355312D01*
X172540612Y-40363891D01*
X172541515Y-40372912D01*
X172529518Y-40396444D01*
X172520998Y-40421447D01*
X172513429Y-40428005D01*
X172509782Y-40435160D01*
X172495669Y-40443393D01*
X172475946Y-40460484D01*
X172467182Y-40464949D01*
X172295213Y-40589890D01*
X172144890Y-40740213D01*
X172019951Y-40912179D01*
X171923444Y-41101585D01*
X171857753Y-41303760D01*
X171833031Y-41459850D01*
X171824500Y-41513713D01*
X171824500Y-41726287D01*
X171829641Y-41758748D01*
X171855444Y-41921662D01*
X171857754Y-41936243D01*
X171917729Y-42120827D01*
X171923444Y-42138414D01*
X172019951Y-42327820D01*
X172144890Y-42499786D01*
X172295213Y-42650109D01*
X172467179Y-42775048D01*
X172467181Y-42775049D01*
X172467184Y-42775051D01*
X172656588Y-42871557D01*
X172858757Y-42937246D01*
X173068713Y-42970500D01*
X173068714Y-42970500D01*
X175181286Y-42970500D01*
X175181287Y-42970500D01*
X175391243Y-42937246D01*
X175593412Y-42871557D01*
X175782816Y-42775051D01*
X175840022Y-42733489D01*
X175954786Y-42650109D01*
X175954788Y-42650106D01*
X175954792Y-42650104D01*
X176105104Y-42499792D01*
X176105106Y-42499788D01*
X176105109Y-42499786D01*
X176230048Y-42327820D01*
X176230047Y-42327820D01*
X176230051Y-42327816D01*
X176326557Y-42138412D01*
X176392246Y-41936243D01*
X176425500Y-41726287D01*
X176425500Y-41513713D01*
X176392246Y-41303757D01*
X176326557Y-41101588D01*
X176230051Y-40912184D01*
X176230049Y-40912181D01*
X176230048Y-40912179D01*
X176105109Y-40740213D01*
X175954786Y-40589890D01*
X175782820Y-40464951D01*
X175782115Y-40464591D01*
X175774054Y-40460485D01*
X175723259Y-40412512D01*
X175706463Y-40344692D01*
X175728999Y-40278556D01*
X175774054Y-40239515D01*
X175782816Y-40235051D01*
X175884167Y-40161416D01*
X175954786Y-40110109D01*
X175954788Y-40110106D01*
X175954792Y-40110104D01*
X176105104Y-39959792D01*
X176105106Y-39959788D01*
X176105109Y-39959786D01*
X176216889Y-39805932D01*
X176230051Y-39787816D01*
X176326557Y-39598412D01*
X176392246Y-39396243D01*
X176425500Y-39186287D01*
X176425500Y-38973713D01*
X176392246Y-38763757D01*
X176326557Y-38561588D01*
X176230051Y-38372184D01*
X176230049Y-38372181D01*
X176230048Y-38372179D01*
X176105109Y-38200213D01*
X175954786Y-38049890D01*
X175782820Y-37924951D01*
X175782115Y-37924591D01*
X175774054Y-37920485D01*
X175723259Y-37872512D01*
X175706463Y-37804692D01*
X175728999Y-37738556D01*
X175774054Y-37699515D01*
X175782816Y-37695051D01*
X175804789Y-37679086D01*
X175954786Y-37570109D01*
X175954788Y-37570106D01*
X175954792Y-37570104D01*
X176105104Y-37419792D01*
X176105106Y-37419788D01*
X176105109Y-37419786D01*
X176230048Y-37247820D01*
X176230047Y-37247820D01*
X176230051Y-37247816D01*
X176326557Y-37058412D01*
X176392246Y-36856243D01*
X176425500Y-36646287D01*
X176425500Y-36433713D01*
X176392246Y-36223757D01*
X176326557Y-36021588D01*
X176230051Y-35832184D01*
X176230049Y-35832181D01*
X176230048Y-35832179D01*
X176105109Y-35660213D01*
X175954790Y-35509894D01*
X175954785Y-35509890D01*
X175781140Y-35383730D01*
X175738474Y-35328400D01*
X175732495Y-35258787D01*
X175765100Y-35196992D01*
X175797732Y-35172927D01*
X175832816Y-35155051D01*
X175832815Y-35155051D01*
X175832818Y-35155050D01*
X176004786Y-35030109D01*
X176004788Y-35030106D01*
X176004792Y-35030104D01*
X176155104Y-34879792D01*
X176155106Y-34879788D01*
X176155109Y-34879786D01*
X176213661Y-34799193D01*
X176280051Y-34707816D01*
X176280349Y-34707230D01*
X176300235Y-34668205D01*
X176348209Y-34617409D01*
X176410719Y-34600500D01*
X178275500Y-34600500D01*
X178342539Y-34620185D01*
G37*
%TD.AperFunction*%
%TA.AperFunction,Conductor*%
G36*
X180842539Y-27120185D02*
G01*
X180888294Y-27172989D01*
X180899500Y-27224500D01*
X180899500Y-30824314D01*
X180879815Y-30891353D01*
X180827011Y-30937108D01*
X180757853Y-30947052D01*
X180739752Y-30942087D01*
X180739635Y-30942527D01*
X180731785Y-30940423D01*
X180731784Y-30940423D01*
X180579057Y-30899500D01*
X180579056Y-30899500D01*
X176431100Y-30899500D01*
X176364061Y-30879815D01*
X176320615Y-30831795D01*
X176310845Y-30812621D01*
X176280051Y-30752184D01*
X176272023Y-30741134D01*
X176155109Y-30580213D01*
X176004786Y-30429890D01*
X175832817Y-30304949D01*
X175823504Y-30300204D01*
X175772707Y-30252230D01*
X175755912Y-30184409D01*
X175778449Y-30118274D01*
X175823507Y-30079232D01*
X175832558Y-30074620D01*
X176004459Y-29949727D01*
X176004464Y-29949723D01*
X176154723Y-29799464D01*
X176154727Y-29799459D01*
X176279620Y-29627557D01*
X176376095Y-29438217D01*
X176441757Y-29236129D01*
X176441757Y-29236126D01*
X176452231Y-29170000D01*
X173558012Y-29170000D01*
X173590925Y-29112993D01*
X173625000Y-28985826D01*
X173625000Y-28854174D01*
X173590925Y-28727007D01*
X173558012Y-28670000D01*
X176452231Y-28670000D01*
X176441757Y-28603873D01*
X176441757Y-28603870D01*
X176376095Y-28401782D01*
X176279620Y-28212442D01*
X176154727Y-28040540D01*
X176154723Y-28040535D01*
X176004464Y-27890276D01*
X176004459Y-27890272D01*
X175832555Y-27765377D01*
X175823500Y-27760763D01*
X175772706Y-27712788D01*
X175755912Y-27644966D01*
X175778451Y-27578832D01*
X175823508Y-27539793D01*
X175832816Y-27535051D01*
X175919147Y-27472328D01*
X176004786Y-27410109D01*
X176004788Y-27410106D01*
X176004792Y-27410104D01*
X176155104Y-27259792D01*
X176233700Y-27151613D01*
X176289028Y-27108949D01*
X176334017Y-27100500D01*
X180775500Y-27100500D01*
X180842539Y-27120185D01*
G37*
%TD.AperFunction*%
%TA.AperFunction,Conductor*%
G36*
X184442538Y-22520185D02*
G01*
X184488293Y-22572989D01*
X184499499Y-22624500D01*
X184499499Y-114375500D01*
X184479814Y-114442539D01*
X184427010Y-114488294D01*
X184375499Y-114499500D01*
X95624499Y-114499500D01*
X95557460Y-114479815D01*
X95511705Y-114427011D01*
X95500499Y-114375500D01*
X95500499Y-98679054D01*
X97499498Y-98679054D01*
X97540423Y-98831785D01*
X97569358Y-98881900D01*
X97569359Y-98881904D01*
X97569360Y-98881904D01*
X97619479Y-98968714D01*
X97619481Y-98968717D01*
X97738349Y-99087585D01*
X97738354Y-99087589D01*
X99631284Y-100980520D01*
X99631286Y-100980521D01*
X99631290Y-100980524D01*
X99749437Y-101048735D01*
X99768216Y-101059577D01*
X99920943Y-101100501D01*
X99920945Y-101100501D01*
X100086654Y-101100501D01*
X100086670Y-101100500D01*
X109775500Y-101100500D01*
X109842539Y-101120185D01*
X109888294Y-101172989D01*
X109899500Y-101224500D01*
X109899500Y-106920943D01*
X109899500Y-107079057D01*
X109930694Y-107195472D01*
X109940423Y-107231783D01*
X109940426Y-107231790D01*
X110019475Y-107368709D01*
X110019479Y-107368714D01*
X110019480Y-107368716D01*
X110131284Y-107480520D01*
X110131286Y-107480521D01*
X110131290Y-107480524D01*
X110268209Y-107559573D01*
X110268216Y-107559577D01*
X110317105Y-107572676D01*
X110372691Y-107604770D01*
X110389707Y-107621786D01*
X110389711Y-107621789D01*
X110520814Y-107709390D01*
X110520827Y-107709397D01*
X110664533Y-107768921D01*
X110666503Y-107769737D01*
X110772660Y-107790853D01*
X110799691Y-107796230D01*
X110861602Y-107828615D01*
X110896176Y-107889330D01*
X110899500Y-107917847D01*
X110899500Y-109413330D01*
X110899499Y-109413348D01*
X110899499Y-109579054D01*
X110899498Y-109579054D01*
X110940423Y-109731785D01*
X110960492Y-109766546D01*
X110965291Y-109774857D01*
X111019479Y-109868714D01*
X111019481Y-109868717D01*
X111138349Y-109987585D01*
X111138354Y-109987589D01*
X112131284Y-110980520D01*
X112131286Y-110980521D01*
X112131290Y-110980524D01*
X112268209Y-111059573D01*
X112268216Y-111059577D01*
X112420943Y-111100501D01*
X112420945Y-111100501D01*
X112586654Y-111100501D01*
X112586670Y-111100500D01*
X164413331Y-111100500D01*
X164413347Y-111100501D01*
X164420943Y-111100501D01*
X164579054Y-111100501D01*
X164579057Y-111100501D01*
X164731785Y-111059577D01*
X164781904Y-111030639D01*
X164868716Y-110980520D01*
X164980520Y-110868716D01*
X164980521Y-110868714D01*
X165480520Y-110368716D01*
X165559577Y-110231784D01*
X165600501Y-110079057D01*
X165600501Y-109920942D01*
X165600501Y-109913347D01*
X165600500Y-109913329D01*
X165600500Y-108729601D01*
X165620185Y-108662562D01*
X165668206Y-108619116D01*
X165681610Y-108612287D01*
X165847219Y-108491966D01*
X165991966Y-108347219D01*
X165991968Y-108347215D01*
X165991971Y-108347213D01*
X166048259Y-108269738D01*
X166112287Y-108181610D01*
X166205220Y-107999219D01*
X166268477Y-107804534D01*
X166300500Y-107602352D01*
X166300500Y-107397648D01*
X166268477Y-107195466D01*
X166258883Y-107165940D01*
X166223937Y-107058385D01*
X166205220Y-107000781D01*
X166205218Y-107000778D01*
X166205218Y-107000776D01*
X166153865Y-106899991D01*
X166112287Y-106818390D01*
X166094835Y-106794369D01*
X165991971Y-106652786D01*
X165847213Y-106508028D01*
X165681613Y-106387715D01*
X165681612Y-106387714D01*
X165681610Y-106387713D01*
X165591707Y-106341905D01*
X165499223Y-106294781D01*
X165304534Y-106231522D01*
X165117959Y-106201972D01*
X165102352Y-106199500D01*
X164897648Y-106199500D01*
X164882041Y-106201972D01*
X164695465Y-106231522D01*
X164500776Y-106294781D01*
X164318386Y-106387715D01*
X164152786Y-106508028D01*
X164008028Y-106652786D01*
X163887715Y-106818386D01*
X163794781Y-107000776D01*
X163731522Y-107195465D01*
X163699500Y-107397648D01*
X163699500Y-107602351D01*
X163731522Y-107804534D01*
X163794781Y-107999223D01*
X163856415Y-108120185D01*
X163883320Y-108172989D01*
X163887715Y-108181613D01*
X164008028Y-108347213D01*
X164008034Y-108347219D01*
X164152781Y-108491966D01*
X164318390Y-108612287D01*
X164331793Y-108619116D01*
X164382589Y-108667088D01*
X164399500Y-108729601D01*
X164399500Y-109699901D01*
X164390856Y-109729337D01*
X164384333Y-109759327D01*
X164380577Y-109764344D01*
X164379815Y-109766940D01*
X164363182Y-109787582D01*
X164287584Y-109863181D01*
X164226261Y-109896666D01*
X164199902Y-109899500D01*
X152148151Y-109899500D01*
X152081112Y-109879815D01*
X152035357Y-109827011D01*
X152025413Y-109757853D01*
X152048948Y-109701104D01*
X152119698Y-109606762D01*
X152175667Y-109564939D01*
X152218901Y-109557158D01*
X152350001Y-109557158D01*
X152850001Y-109557158D01*
X153356148Y-109557158D01*
X153469931Y-109542178D01*
X153469936Y-109542176D01*
X153611507Y-109483536D01*
X153611508Y-109483536D01*
X153733087Y-109390244D01*
X153826379Y-109268665D01*
X153826379Y-109268664D01*
X153885019Y-109127093D01*
X153885021Y-109127088D01*
X153900001Y-109013304D01*
X153900001Y-108897158D01*
X152850001Y-108897158D01*
X152850001Y-109557158D01*
X152350001Y-109557158D01*
X152350001Y-108771158D01*
X152369686Y-108704119D01*
X152422490Y-108658364D01*
X152474001Y-108647158D01*
X152600001Y-108647158D01*
X152600001Y-108521158D01*
X152619686Y-108454119D01*
X152672490Y-108408364D01*
X152724001Y-108397158D01*
X153900001Y-108397158D01*
X153900001Y-108281011D01*
X153885021Y-108167227D01*
X153885019Y-108167222D01*
X153826379Y-108025651D01*
X153826376Y-108025646D01*
X153786021Y-107973054D01*
X153775980Y-107947082D01*
X153762925Y-107922481D01*
X153763554Y-107914940D01*
X153760827Y-107907885D01*
X153766422Y-107880603D01*
X153768740Y-107852853D01*
X153774055Y-107843388D01*
X153774865Y-107839440D01*
X153786016Y-107822089D01*
X153805904Y-107796169D01*
X153862333Y-107754968D01*
X153904279Y-107747658D01*
X154842317Y-107747658D01*
X154909356Y-107767343D01*
X154929998Y-107783977D01*
X156110395Y-108964374D01*
X156110405Y-108964385D01*
X156114735Y-108968715D01*
X156114736Y-108968716D01*
X156226540Y-109080520D01*
X156307429Y-109127221D01*
X156363471Y-109159577D01*
X156516199Y-109200501D01*
X156516202Y-109200501D01*
X156681909Y-109200501D01*
X156681925Y-109200500D01*
X159313331Y-109200500D01*
X159313347Y-109200501D01*
X159320943Y-109200501D01*
X159479054Y-109200501D01*
X159479057Y-109200501D01*
X159631785Y-109159577D01*
X159687827Y-109127221D01*
X159768716Y-109080520D01*
X159880520Y-108968716D01*
X159880520Y-108968714D01*
X159890724Y-108958511D01*
X159890728Y-108958506D01*
X162358506Y-106490728D01*
X162358511Y-106490724D01*
X162368714Y-106480520D01*
X162368716Y-106480520D01*
X162480520Y-106368716D01*
X162537665Y-106269737D01*
X162559577Y-106231785D01*
X162600500Y-106079058D01*
X162600500Y-105920943D01*
X162600500Y-104679765D01*
X162620185Y-104612726D01*
X162621398Y-104610874D01*
X162709390Y-104479185D01*
X162709390Y-104479184D01*
X162709394Y-104479179D01*
X162769737Y-104333497D01*
X162775266Y-104305703D01*
X162796231Y-104200308D01*
X162828616Y-104138397D01*
X162889332Y-104103823D01*
X162917848Y-104100500D01*
X168413331Y-104100500D01*
X168413347Y-104100501D01*
X168420943Y-104100501D01*
X168579054Y-104100501D01*
X168579057Y-104100501D01*
X168731785Y-104059577D01*
X168798328Y-104021158D01*
X168801235Y-104019480D01*
X168868709Y-103980524D01*
X168868708Y-103980524D01*
X168868716Y-103980520D01*
X168980520Y-103868716D01*
X168980520Y-103868714D01*
X168990724Y-103858511D01*
X168990727Y-103858506D01*
X171980520Y-100868716D01*
X172019904Y-100800500D01*
X172059577Y-100731785D01*
X172100501Y-100579058D01*
X172100501Y-100420943D01*
X172096235Y-100405020D01*
X172086374Y-100368216D01*
X172059578Y-100268218D01*
X172059575Y-100268211D01*
X171997113Y-100160024D01*
X171980500Y-100098024D01*
X171980500Y-98412162D01*
X172000185Y-98345123D01*
X172052989Y-98299368D01*
X172078552Y-98290907D01*
X172082788Y-98289999D01*
X172082797Y-98289999D01*
X172249334Y-98234814D01*
X172398656Y-98142712D01*
X172522712Y-98018656D01*
X172614814Y-97869334D01*
X172669999Y-97702797D01*
X172680500Y-97600009D01*
X172680499Y-96399992D01*
X172669999Y-96297203D01*
X172614814Y-96130666D01*
X172522712Y-95981344D01*
X172398656Y-95857288D01*
X172285646Y-95787583D01*
X172249336Y-95765187D01*
X172249331Y-95765185D01*
X172207320Y-95751264D01*
X172082797Y-95710001D01*
X172082795Y-95710000D01*
X171980010Y-95699500D01*
X170779998Y-95699500D01*
X170779981Y-95699501D01*
X170677203Y-95710000D01*
X170677200Y-95710001D01*
X170510668Y-95765185D01*
X170510663Y-95765187D01*
X170361342Y-95857289D01*
X170237289Y-95981342D01*
X170145187Y-96130663D01*
X170145185Y-96130668D01*
X170119099Y-96209390D01*
X170090001Y-96297203D01*
X170090001Y-96297204D01*
X170090000Y-96297204D01*
X170079500Y-96399983D01*
X170079500Y-97600001D01*
X170079501Y-97600018D01*
X170090000Y-97702796D01*
X170090001Y-97702799D01*
X170114241Y-97775948D01*
X170145186Y-97869334D01*
X170237288Y-98018656D01*
X170361344Y-98142712D01*
X170510666Y-98234814D01*
X170677203Y-98289999D01*
X170677209Y-98289999D01*
X170681448Y-98290907D01*
X170742884Y-98324185D01*
X170776576Y-98385394D01*
X170779500Y-98412162D01*
X170779500Y-100300939D01*
X170779499Y-100300943D01*
X170779499Y-100319908D01*
X170766897Y-100362819D01*
X170759814Y-100386942D01*
X170759812Y-100386943D01*
X170759812Y-100386946D01*
X170759807Y-100386949D01*
X170743180Y-100407584D01*
X168287584Y-102863181D01*
X168226261Y-102896666D01*
X168199903Y-102899500D01*
X163149097Y-102899500D01*
X163082058Y-102879815D01*
X163036303Y-102827011D01*
X163026359Y-102757853D01*
X163055384Y-102694297D01*
X163061416Y-102687819D01*
X167606525Y-98142710D01*
X172380521Y-93368715D01*
X172459578Y-93231783D01*
X172500502Y-93079056D01*
X172500502Y-92920941D01*
X172500502Y-92920939D01*
X172500502Y-92913339D01*
X172500501Y-92913328D01*
X172500501Y-91417847D01*
X172520186Y-91350808D01*
X172572990Y-91305053D01*
X172600310Y-91296230D01*
X172616292Y-91293050D01*
X172733498Y-91269737D01*
X172879180Y-91209394D01*
X172906514Y-91191130D01*
X173010876Y-91121398D01*
X173077554Y-91100520D01*
X173079767Y-91100500D01*
X174699903Y-91100500D01*
X174766942Y-91120185D01*
X174787584Y-91136819D01*
X178363181Y-94712416D01*
X178396666Y-94773739D01*
X178399500Y-94800097D01*
X178399500Y-95770397D01*
X178379815Y-95837436D01*
X178331800Y-95880879D01*
X178318389Y-95887712D01*
X178152786Y-96008028D01*
X178008028Y-96152786D01*
X177887715Y-96318386D01*
X177794781Y-96500776D01*
X177731522Y-96695465D01*
X177699500Y-96897648D01*
X177699500Y-97102351D01*
X177731522Y-97304534D01*
X177794781Y-97499223D01*
X177846135Y-97600009D01*
X177881443Y-97669305D01*
X177887715Y-97681613D01*
X178008028Y-97847213D01*
X178152786Y-97991971D01*
X178307749Y-98104556D01*
X178318390Y-98112287D01*
X178434607Y-98171503D01*
X178500776Y-98205218D01*
X178500778Y-98205218D01*
X178500781Y-98205220D01*
X178591856Y-98234812D01*
X178695465Y-98268477D01*
X178796557Y-98284488D01*
X178897648Y-98300500D01*
X178897649Y-98300500D01*
X179102351Y-98300500D01*
X179102352Y-98300500D01*
X179304534Y-98268477D01*
X179499219Y-98205220D01*
X179681610Y-98112287D01*
X179810482Y-98018657D01*
X179847213Y-97991971D01*
X179847215Y-97991968D01*
X179847219Y-97991966D01*
X179991966Y-97847219D01*
X179991968Y-97847215D01*
X179991971Y-97847213D01*
X180044732Y-97774590D01*
X180112287Y-97681610D01*
X180205220Y-97499219D01*
X180268477Y-97304534D01*
X180300500Y-97102352D01*
X180300500Y-96897648D01*
X180268477Y-96695466D01*
X180205220Y-96500781D01*
X180205218Y-96500778D01*
X180205218Y-96500776D01*
X180153865Y-96399991D01*
X180112287Y-96318390D01*
X180083042Y-96278137D01*
X179991971Y-96152786D01*
X179847213Y-96008028D01*
X179681610Y-95887712D01*
X179668200Y-95880879D01*
X179617406Y-95832903D01*
X179600500Y-95770397D01*
X179600500Y-94420946D01*
X179600499Y-94420939D01*
X179588203Y-94375048D01*
X179559577Y-94268215D01*
X179530639Y-94218095D01*
X179480520Y-94131284D01*
X179368716Y-94019480D01*
X179368715Y-94019479D01*
X179364385Y-94015149D01*
X179364374Y-94015139D01*
X175487590Y-90138355D01*
X175487588Y-90138352D01*
X175368717Y-90019481D01*
X175368716Y-90019480D01*
X175281904Y-89969360D01*
X175281904Y-89969359D01*
X175281900Y-89969358D01*
X175231785Y-89940423D01*
X175079057Y-89899499D01*
X174920943Y-89899499D01*
X174913347Y-89899499D01*
X174913331Y-89899500D01*
X173079767Y-89899500D01*
X173012728Y-89879815D01*
X173010876Y-89878602D01*
X172879186Y-89790609D01*
X172879173Y-89790602D01*
X172733502Y-89730264D01*
X172733492Y-89730261D01*
X172600309Y-89703769D01*
X172538398Y-89671384D01*
X172503824Y-89610668D01*
X172500501Y-89582152D01*
X172500501Y-87499494D01*
X172520186Y-87432455D01*
X172572990Y-87386700D01*
X172642148Y-87376756D01*
X172690714Y-87394652D01*
X172744042Y-87428332D01*
X172886244Y-87485339D01*
X172913523Y-87496275D01*
X172913525Y-87496276D01*
X173092506Y-87532419D01*
X173275074Y-87535566D01*
X173455194Y-87505613D01*
X173626918Y-87443551D01*
X173641872Y-87434837D01*
X173648628Y-87430910D01*
X173648908Y-87430834D01*
X173676695Y-87414596D01*
X173676947Y-87414451D01*
X173680022Y-87413695D01*
X173739258Y-87397658D01*
X173771444Y-87397658D01*
X175228559Y-87397658D01*
X175260745Y-87397658D01*
X175323305Y-87414596D01*
X175357459Y-87434553D01*
X175358705Y-87435174D01*
X175373084Y-87443553D01*
X175544808Y-87505615D01*
X175724929Y-87535568D01*
X175907497Y-87532421D01*
X176086479Y-87496278D01*
X176255962Y-87428333D01*
X176410346Y-87330832D01*
X176430556Y-87312181D01*
X176544527Y-87206998D01*
X176544534Y-87206990D01*
X176619698Y-87106763D01*
X176675667Y-87064939D01*
X176718901Y-87057158D01*
X176850001Y-87057158D01*
X177350001Y-87057158D01*
X177856148Y-87057158D01*
X177969931Y-87042178D01*
X177969936Y-87042176D01*
X178111507Y-86983536D01*
X178111508Y-86983536D01*
X178233087Y-86890244D01*
X178326379Y-86768665D01*
X178326379Y-86768664D01*
X178385019Y-86627093D01*
X178385021Y-86627088D01*
X178400001Y-86513304D01*
X178400001Y-86397158D01*
X177350001Y-86397158D01*
X177350001Y-87057158D01*
X176850001Y-87057158D01*
X176850001Y-86271158D01*
X176869686Y-86204119D01*
X176922490Y-86158364D01*
X176974001Y-86147158D01*
X177100001Y-86147158D01*
X177100001Y-86021158D01*
X177119686Y-85954119D01*
X177172490Y-85908364D01*
X177224001Y-85897158D01*
X178400001Y-85897158D01*
X178400001Y-85781011D01*
X178385021Y-85667227D01*
X178385019Y-85667222D01*
X178326379Y-85525651D01*
X178326376Y-85525646D01*
X178286021Y-85473054D01*
X178260827Y-85407885D01*
X178274865Y-85339440D01*
X178286022Y-85322081D01*
X178303365Y-85299480D01*
X178326813Y-85268921D01*
X178385508Y-85127221D01*
X178400501Y-85013335D01*
X178400500Y-84280982D01*
X178399289Y-84271785D01*
X178385509Y-84167103D01*
X178385508Y-84167095D01*
X178326813Y-84025395D01*
X178233445Y-83903714D01*
X178111764Y-83810346D01*
X178111763Y-83810345D01*
X177970064Y-83751651D01*
X177970062Y-83751650D01*
X177856179Y-83736658D01*
X177856178Y-83736658D01*
X177824501Y-83736658D01*
X177757462Y-83716973D01*
X177711707Y-83664169D01*
X177700501Y-83612658D01*
X177700501Y-79689061D01*
X177700502Y-79689048D01*
X177700502Y-79520945D01*
X177688057Y-79474500D01*
X177659578Y-79368217D01*
X177628018Y-79313553D01*
X177580525Y-79231291D01*
X177580519Y-79231283D01*
X175136819Y-76787583D01*
X175103334Y-76726260D01*
X175100500Y-76699902D01*
X175100500Y-74089060D01*
X175100501Y-74089047D01*
X175100501Y-73920944D01*
X175086990Y-73870520D01*
X175059577Y-73768216D01*
X174991615Y-73650501D01*
X174980524Y-73631290D01*
X174980518Y-73631282D01*
X174636819Y-73287583D01*
X174622115Y-73260655D01*
X174605523Y-73234837D01*
X174604631Y-73228636D01*
X174603334Y-73226260D01*
X174600500Y-73199902D01*
X174600500Y-73179765D01*
X174620185Y-73112726D01*
X174621398Y-73110874D01*
X174635411Y-73089903D01*
X174709394Y-72979179D01*
X174769737Y-72833497D01*
X174774505Y-72809524D01*
X174796231Y-72700308D01*
X174828616Y-72638397D01*
X174889332Y-72603823D01*
X174917848Y-72600500D01*
X178275500Y-72600500D01*
X178342539Y-72620185D01*
X178388294Y-72672989D01*
X178399500Y-72724500D01*
X178399500Y-75270397D01*
X178379815Y-75337436D01*
X178331800Y-75380879D01*
X178318389Y-75387712D01*
X178152786Y-75508028D01*
X178008028Y-75652786D01*
X177887715Y-75818386D01*
X177794781Y-76000776D01*
X177731522Y-76195465D01*
X177699500Y-76397648D01*
X177699500Y-76602351D01*
X177731522Y-76804534D01*
X177794781Y-76999223D01*
X177887715Y-77181613D01*
X178008028Y-77347213D01*
X178152786Y-77491971D01*
X178280196Y-77584538D01*
X178318390Y-77612287D01*
X178434607Y-77671503D01*
X178500776Y-77705218D01*
X178500778Y-77705218D01*
X178500781Y-77705220D01*
X178582900Y-77731902D01*
X178695465Y-77768477D01*
X178796557Y-77784488D01*
X178897648Y-77800500D01*
X178897649Y-77800500D01*
X179102351Y-77800500D01*
X179102352Y-77800500D01*
X179304534Y-77768477D01*
X179499219Y-77705220D01*
X179681610Y-77612287D01*
X179785177Y-77537042D01*
X179847213Y-77491971D01*
X179847215Y-77491968D01*
X179847219Y-77491966D01*
X179991966Y-77347219D01*
X179991968Y-77347215D01*
X179991971Y-77347213D01*
X180096892Y-77202799D01*
X180112287Y-77181610D01*
X180205220Y-76999219D01*
X180268477Y-76804534D01*
X180300500Y-76602352D01*
X180300500Y-76397648D01*
X180292874Y-76349500D01*
X180268477Y-76195465D01*
X180239127Y-76105137D01*
X180205220Y-76000781D01*
X180205218Y-76000778D01*
X180205218Y-76000776D01*
X180153865Y-75899991D01*
X180112287Y-75818390D01*
X180104556Y-75807749D01*
X179991971Y-75652786D01*
X179847213Y-75508028D01*
X179681610Y-75387712D01*
X179668200Y-75380879D01*
X179617406Y-75332903D01*
X179600500Y-75270397D01*
X179600500Y-71920945D01*
X179600500Y-71920943D01*
X179559577Y-71768216D01*
X179559129Y-71767440D01*
X179558950Y-71766704D01*
X179556466Y-71760706D01*
X179557401Y-71760318D01*
X179554698Y-71749179D01*
X179545563Y-71732760D01*
X179546632Y-71715930D01*
X179542656Y-71699540D01*
X179548802Y-71681781D01*
X179549994Y-71663031D01*
X179559992Y-71649450D01*
X179565509Y-71633513D01*
X179580277Y-71621898D01*
X179591419Y-71606766D01*
X179612961Y-71596195D01*
X179620430Y-71590322D01*
X179622261Y-71589606D01*
X179628234Y-71587323D01*
X179731785Y-71559577D01*
X179783746Y-71529577D01*
X179868716Y-71480520D01*
X179980520Y-71368716D01*
X179980521Y-71368714D01*
X180480520Y-70868716D01*
X180559577Y-70731784D01*
X180600501Y-70579057D01*
X180600501Y-70420942D01*
X180600501Y-70413347D01*
X180600500Y-70413329D01*
X180600500Y-58800096D01*
X180620185Y-58733057D01*
X180636814Y-58712420D01*
X181858506Y-57490727D01*
X181858511Y-57490724D01*
X181868714Y-57480520D01*
X181868716Y-57480520D01*
X181980520Y-57368716D01*
X182059577Y-57231784D01*
X182100500Y-57079057D01*
X182100500Y-50920943D01*
X182088818Y-50877344D01*
X182059577Y-50768215D01*
X182019735Y-50699207D01*
X181980520Y-50631284D01*
X181868716Y-50519480D01*
X181868715Y-50519479D01*
X181864385Y-50515149D01*
X181864374Y-50515139D01*
X179161416Y-47812181D01*
X179127931Y-47750858D01*
X179132915Y-47681166D01*
X179174787Y-47625233D01*
X179240251Y-47600816D01*
X179249097Y-47600500D01*
X179913331Y-47600500D01*
X179913347Y-47600501D01*
X179920943Y-47600501D01*
X180079054Y-47600501D01*
X180079057Y-47600501D01*
X180231785Y-47559577D01*
X180298328Y-47521158D01*
X180298332Y-47521156D01*
X180368709Y-47480524D01*
X180368708Y-47480524D01*
X180368716Y-47480520D01*
X180480520Y-47368716D01*
X180480521Y-47368714D01*
X180980520Y-46868716D01*
X181059577Y-46731784D01*
X181100501Y-46579057D01*
X181100501Y-46420942D01*
X181100501Y-46413347D01*
X181100500Y-46413329D01*
X181100500Y-44386555D01*
X181120185Y-44319516D01*
X181172989Y-44273761D01*
X181242147Y-44263817D01*
X181260411Y-44268840D01*
X181260676Y-44267969D01*
X181266492Y-44269732D01*
X181266503Y-44269737D01*
X181421153Y-44300499D01*
X181421156Y-44300500D01*
X181421158Y-44300500D01*
X181578844Y-44300500D01*
X181578845Y-44300499D01*
X181733497Y-44269737D01*
X181879179Y-44209394D01*
X182010289Y-44121789D01*
X182121789Y-44010289D01*
X182209394Y-43879179D01*
X182269737Y-43733497D01*
X182300500Y-43578842D01*
X182300500Y-43421158D01*
X182300500Y-43421155D01*
X182300499Y-43421153D01*
X182269737Y-43266503D01*
X182209794Y-43121786D01*
X182209397Y-43120827D01*
X182209390Y-43120814D01*
X182121398Y-42989125D01*
X182100520Y-42922447D01*
X182100500Y-42920234D01*
X182100500Y-26420945D01*
X182100500Y-26420943D01*
X182059577Y-26268216D01*
X182059573Y-26268209D01*
X181980524Y-26131290D01*
X181980518Y-26131282D01*
X181868717Y-26019481D01*
X181868709Y-26019475D01*
X181731790Y-25940426D01*
X181731786Y-25940424D01*
X181731784Y-25940423D01*
X181579057Y-25899500D01*
X181579056Y-25899500D01*
X176471862Y-25899500D01*
X176404823Y-25879815D01*
X176361377Y-25831795D01*
X176334731Y-25779500D01*
X176280051Y-25672184D01*
X176267929Y-25655500D01*
X176155109Y-25500213D01*
X176004786Y-25349890D01*
X175832820Y-25224951D01*
X175643414Y-25128444D01*
X175643413Y-25128443D01*
X175643412Y-25128443D01*
X175441243Y-25062754D01*
X175441241Y-25062753D01*
X175441240Y-25062753D01*
X175279957Y-25037208D01*
X175231287Y-25029500D01*
X173018713Y-25029500D01*
X172970042Y-25037208D01*
X172808760Y-25062753D01*
X172606585Y-25128444D01*
X172417179Y-25224951D01*
X172245213Y-25349890D01*
X172094890Y-25500213D01*
X171969951Y-25672179D01*
X171873444Y-25861585D01*
X171807753Y-26063760D01*
X171774500Y-26273713D01*
X171774500Y-26486286D01*
X171807753Y-26696239D01*
X171873444Y-26898414D01*
X171969951Y-27087820D01*
X172094890Y-27259786D01*
X172245213Y-27410109D01*
X172417179Y-27535048D01*
X172417181Y-27535049D01*
X172417184Y-27535051D01*
X172426493Y-27539794D01*
X172477290Y-27587766D01*
X172494087Y-27655587D01*
X172471552Y-27721722D01*
X172426502Y-27760762D01*
X172417443Y-27765378D01*
X172245540Y-27890272D01*
X172245535Y-27890276D01*
X172095276Y-28040535D01*
X172095272Y-28040540D01*
X171970379Y-28212442D01*
X171873904Y-28401782D01*
X171808242Y-28603870D01*
X171808242Y-28603873D01*
X171797769Y-28670000D01*
X172691988Y-28670000D01*
X172659075Y-28727007D01*
X172625000Y-28854174D01*
X172625000Y-28985826D01*
X172659075Y-29112993D01*
X172691988Y-29170000D01*
X171797769Y-29170000D01*
X171808242Y-29236126D01*
X171808242Y-29236129D01*
X171873904Y-29438217D01*
X171970379Y-29627557D01*
X172095272Y-29799459D01*
X172095276Y-29799464D01*
X172245535Y-29949723D01*
X172245540Y-29949727D01*
X172417444Y-30074622D01*
X172426495Y-30079234D01*
X172477292Y-30127208D01*
X172494087Y-30195029D01*
X172471550Y-30261164D01*
X172426499Y-30300202D01*
X172417182Y-30304949D01*
X172245213Y-30429890D01*
X172094890Y-30580213D01*
X171969951Y-30752179D01*
X171873444Y-30941585D01*
X171807753Y-31143760D01*
X171774500Y-31353713D01*
X171774500Y-31566286D01*
X171806482Y-31768216D01*
X171807754Y-31776243D01*
X171854770Y-31920944D01*
X171873444Y-31978414D01*
X171969951Y-32167820D01*
X172094890Y-32339786D01*
X172245213Y-32490109D01*
X172417182Y-32615050D01*
X172425946Y-32619516D01*
X172476742Y-32667491D01*
X172493536Y-32735312D01*
X172470998Y-32801447D01*
X172425946Y-32840484D01*
X172417182Y-32844949D01*
X172245213Y-32969890D01*
X172094890Y-33120213D01*
X171969951Y-33292179D01*
X171873444Y-33481585D01*
X171807753Y-33683760D01*
X171774500Y-33893713D01*
X171774500Y-34106286D01*
X171805260Y-34300500D01*
X171807754Y-34316243D01*
X171864117Y-34489711D01*
X171873444Y-34518414D01*
X171969951Y-34707820D01*
X172094890Y-34879786D01*
X172245213Y-35030109D01*
X172417182Y-35155050D01*
X172452268Y-35172927D01*
X172503064Y-35220900D01*
X172519860Y-35288721D01*
X172497323Y-35354856D01*
X172468859Y-35383730D01*
X172295214Y-35509890D01*
X172295209Y-35509894D01*
X172144890Y-35660213D01*
X172019951Y-35832179D01*
X171923444Y-36021585D01*
X171857753Y-36223760D01*
X171824500Y-36433713D01*
X171824500Y-36646286D01*
X171853942Y-36832179D01*
X171857754Y-36856243D01*
X171921120Y-37051264D01*
X171923444Y-37058414D01*
X172019951Y-37247820D01*
X172144890Y-37419786D01*
X172295213Y-37570109D01*
X172467182Y-37695050D01*
X172475946Y-37699516D01*
X172526742Y-37747491D01*
X172543536Y-37815312D01*
X172520998Y-37881447D01*
X172475946Y-37920484D01*
X172467182Y-37924949D01*
X172295213Y-38049890D01*
X172144890Y-38200213D01*
X172019951Y-38372179D01*
X171923444Y-38561585D01*
X171923443Y-38561587D01*
X171923443Y-38561588D01*
X171857754Y-38763757D01*
X171852821Y-38794900D01*
X171838211Y-38825719D01*
X171824062Y-38856703D01*
X171823288Y-38857200D01*
X171822894Y-38858032D01*
X171793958Y-38876049D01*
X171765284Y-38894477D01*
X171764087Y-38894649D01*
X171763583Y-38894963D01*
X171730349Y-38899500D01*
X171579766Y-38899500D01*
X171512727Y-38879815D01*
X171510875Y-38878602D01*
X171379185Y-38790609D01*
X171379172Y-38790602D01*
X171233501Y-38730264D01*
X171233489Y-38730261D01*
X171078845Y-38699500D01*
X171078842Y-38699500D01*
X170921158Y-38699500D01*
X170921155Y-38699500D01*
X170766510Y-38730261D01*
X170760676Y-38732031D01*
X170759873Y-38729385D01*
X170702056Y-38735396D01*
X170639687Y-38703902D01*
X170604245Y-38643689D01*
X170600500Y-38613444D01*
X170600500Y-32589060D01*
X170600501Y-32589047D01*
X170600501Y-32420944D01*
X170578756Y-32339792D01*
X170559577Y-32268216D01*
X170527361Y-32212416D01*
X170480524Y-32131290D01*
X170480518Y-32131282D01*
X166907590Y-28558355D01*
X166907588Y-28558352D01*
X166788717Y-28439481D01*
X166788716Y-28439480D01*
X166701904Y-28389360D01*
X166701904Y-28389359D01*
X166701900Y-28389358D01*
X166651785Y-28360423D01*
X166499057Y-28319499D01*
X166340943Y-28319499D01*
X166333347Y-28319499D01*
X166333331Y-28319500D01*
X159110719Y-28319500D01*
X159043680Y-28299815D01*
X159000235Y-28251795D01*
X158980052Y-28212185D01*
X158980051Y-28212184D01*
X158855109Y-28040213D01*
X158727986Y-27913090D01*
X158694501Y-27851767D01*
X158699485Y-27782075D01*
X158741357Y-27726142D01*
X158772335Y-27709227D01*
X158867326Y-27673798D01*
X158867326Y-27673797D01*
X158867331Y-27673796D01*
X158982546Y-27587546D01*
X159068796Y-27472331D01*
X159119091Y-27337483D01*
X159125500Y-27277873D01*
X159125499Y-25482128D01*
X159119091Y-25422517D01*
X159068796Y-25287669D01*
X159068795Y-25287668D01*
X159068793Y-25287664D01*
X158982547Y-25172455D01*
X158982544Y-25172452D01*
X158867335Y-25086206D01*
X158867328Y-25086202D01*
X158732482Y-25035908D01*
X158732483Y-25035908D01*
X158672883Y-25029501D01*
X158672881Y-25029500D01*
X158672873Y-25029500D01*
X158672864Y-25029500D01*
X155077129Y-25029500D01*
X155077123Y-25029501D01*
X155017516Y-25035908D01*
X154882671Y-25086202D01*
X154882664Y-25086206D01*
X154767455Y-25172452D01*
X154767452Y-25172455D01*
X154681206Y-25287664D01*
X154681202Y-25287671D01*
X154630908Y-25422517D01*
X154624501Y-25482116D01*
X154624501Y-25482123D01*
X154624500Y-25482135D01*
X154624500Y-25655500D01*
X154604815Y-25722539D01*
X154552011Y-25768294D01*
X154500500Y-25779500D01*
X144706669Y-25779500D01*
X144706653Y-25779499D01*
X144699057Y-25779499D01*
X144540943Y-25779499D01*
X144433587Y-25808265D01*
X144388210Y-25820424D01*
X144388209Y-25820425D01*
X144338096Y-25849359D01*
X144338095Y-25849360D01*
X144294689Y-25874420D01*
X144251285Y-25899479D01*
X144251282Y-25899481D01*
X135985339Y-34165425D01*
X135924016Y-34198910D01*
X135921850Y-34199361D01*
X135766508Y-34230261D01*
X135766498Y-34230264D01*
X135620827Y-34290602D01*
X135620814Y-34290609D01*
X135489711Y-34378210D01*
X135489707Y-34378213D01*
X135378213Y-34489707D01*
X135378210Y-34489711D01*
X135290609Y-34620814D01*
X135290602Y-34620827D01*
X135230264Y-34766498D01*
X135230261Y-34766510D01*
X135199500Y-34921153D01*
X135199500Y-35078846D01*
X135230261Y-35233489D01*
X135230264Y-35233501D01*
X135290602Y-35379172D01*
X135290609Y-35379185D01*
X135378210Y-35510288D01*
X135378213Y-35510292D01*
X135489707Y-35621786D01*
X135489711Y-35621789D01*
X135625316Y-35712398D01*
X135670121Y-35766010D01*
X135678828Y-35835335D01*
X135648674Y-35898363D01*
X135589230Y-35935082D01*
X135556425Y-35939500D01*
X134840097Y-35939500D01*
X134773058Y-35919815D01*
X134752416Y-35903181D01*
X133834574Y-34985339D01*
X133801089Y-34924016D01*
X133800638Y-34921849D01*
X133769738Y-34766510D01*
X133769737Y-34766503D01*
X133745428Y-34707815D01*
X133709397Y-34620827D01*
X133709390Y-34620814D01*
X133621789Y-34489711D01*
X133621786Y-34489707D01*
X133510292Y-34378213D01*
X133510288Y-34378210D01*
X133379185Y-34290609D01*
X133379172Y-34290602D01*
X133233501Y-34230264D01*
X133233489Y-34230261D01*
X133078845Y-34199500D01*
X133078842Y-34199500D01*
X132921158Y-34199500D01*
X132921155Y-34199500D01*
X132766510Y-34230261D01*
X132766498Y-34230264D01*
X132620827Y-34290602D01*
X132620814Y-34290609D01*
X132489711Y-34378210D01*
X132489707Y-34378213D01*
X132373903Y-34494018D01*
X132372828Y-34492943D01*
X132321255Y-34528056D01*
X132251410Y-34529910D01*
X132195494Y-34497729D01*
X131618710Y-33920945D01*
X131008838Y-33311072D01*
X130975353Y-33249749D01*
X130974902Y-33247582D01*
X130959036Y-33167820D01*
X130944002Y-33092238D01*
X130896855Y-32978414D01*
X130883662Y-32946562D01*
X130883655Y-32946549D01*
X130796054Y-32815446D01*
X130796051Y-32815442D01*
X130684557Y-32703948D01*
X130684553Y-32703945D01*
X130553450Y-32616344D01*
X130553437Y-32616337D01*
X130407766Y-32555999D01*
X130407754Y-32555996D01*
X130253110Y-32525235D01*
X130253107Y-32525235D01*
X130095423Y-32525235D01*
X130095420Y-32525235D01*
X129940775Y-32555996D01*
X129940763Y-32555999D01*
X129795092Y-32616337D01*
X129795081Y-32616343D01*
X129682171Y-32691787D01*
X129615494Y-32712664D01*
X129548113Y-32694179D01*
X129525600Y-32676365D01*
X128947590Y-32098355D01*
X128947588Y-32098352D01*
X128828717Y-31979481D01*
X128828716Y-31979480D01*
X128727326Y-31920943D01*
X128727325Y-31920942D01*
X128691783Y-31900422D01*
X128635881Y-31885443D01*
X128539057Y-31859499D01*
X128380943Y-31859499D01*
X128373347Y-31859499D01*
X128373331Y-31859500D01*
X104285719Y-31859500D01*
X104218680Y-31839815D01*
X104175235Y-31791795D01*
X104155052Y-31752185D01*
X104155051Y-31752184D01*
X104030109Y-31580213D01*
X103916181Y-31466285D01*
X103882696Y-31404962D01*
X103887680Y-31335270D01*
X103929552Y-31279337D01*
X103960529Y-31262422D01*
X104092086Y-31213354D01*
X104092093Y-31213350D01*
X104207187Y-31127190D01*
X104207190Y-31127187D01*
X104293350Y-31012093D01*
X104293354Y-31012086D01*
X104343596Y-30877379D01*
X104343598Y-30877372D01*
X104349999Y-30817844D01*
X104350000Y-30817827D01*
X104350000Y-30170000D01*
X103433012Y-30170000D01*
X103465925Y-30112993D01*
X103500000Y-29985826D01*
X103500000Y-29854174D01*
X103465925Y-29727007D01*
X103433012Y-29670000D01*
X104350000Y-29670000D01*
X104350000Y-29022172D01*
X104349999Y-29022155D01*
X104343598Y-28962627D01*
X104343596Y-28962620D01*
X104293354Y-28827913D01*
X104293350Y-28827906D01*
X104207190Y-28712812D01*
X104207187Y-28712809D01*
X104092093Y-28626649D01*
X104092086Y-28626645D01*
X103957379Y-28576403D01*
X103957372Y-28576401D01*
X103897844Y-28570000D01*
X103250000Y-28570000D01*
X103250000Y-29486988D01*
X103192993Y-29454075D01*
X103065826Y-29420000D01*
X102934174Y-29420000D01*
X102807007Y-29454075D01*
X102750000Y-29486988D01*
X102750000Y-28570000D01*
X102102155Y-28570000D01*
X102042627Y-28576401D01*
X102042620Y-28576403D01*
X101907913Y-28626645D01*
X101907906Y-28626649D01*
X101792812Y-28712809D01*
X101792809Y-28712812D01*
X101706649Y-28827906D01*
X101706645Y-28827913D01*
X101656403Y-28962620D01*
X101656401Y-28962627D01*
X101650000Y-29022155D01*
X101650000Y-29670000D01*
X102566988Y-29670000D01*
X102534075Y-29727007D01*
X102500000Y-29854174D01*
X102500000Y-29985826D01*
X102534075Y-30112993D01*
X102566988Y-30170000D01*
X101650000Y-30170000D01*
X101650000Y-30817844D01*
X101656401Y-30877372D01*
X101656403Y-30877379D01*
X101706645Y-31012086D01*
X101706649Y-31012093D01*
X101792809Y-31127187D01*
X101792812Y-31127190D01*
X101907906Y-31213350D01*
X101907913Y-31213354D01*
X102039470Y-31262422D01*
X102095404Y-31304293D01*
X102119821Y-31369758D01*
X102104969Y-31438031D01*
X102083819Y-31466285D01*
X101969889Y-31580215D01*
X101844951Y-31752179D01*
X101748444Y-31941585D01*
X101682753Y-32143760D01*
X101649500Y-32353713D01*
X101649500Y-32566286D01*
X101672508Y-32711557D01*
X101682754Y-32776243D01*
X101738094Y-32946562D01*
X101748444Y-32978414D01*
X101844951Y-33167820D01*
X101969890Y-33339786D01*
X102120213Y-33490109D01*
X102292182Y-33615050D01*
X102300946Y-33619516D01*
X102351742Y-33667491D01*
X102368536Y-33735312D01*
X102345998Y-33801447D01*
X102300946Y-33840484D01*
X102292182Y-33844949D01*
X102120213Y-33969890D01*
X101969890Y-34120213D01*
X101844951Y-34292179D01*
X101748444Y-34481585D01*
X101682753Y-34683760D01*
X101649500Y-34893713D01*
X101649500Y-35106286D01*
X101672508Y-35251557D01*
X101682754Y-35316243D01*
X101745803Y-35510288D01*
X101748444Y-35518414D01*
X101844951Y-35707820D01*
X101969890Y-35879786D01*
X102120213Y-36030109D01*
X102292182Y-36155050D01*
X102300946Y-36159516D01*
X102351742Y-36207491D01*
X102368536Y-36275312D01*
X102345998Y-36341447D01*
X102300946Y-36380484D01*
X102292182Y-36384949D01*
X102120213Y-36509890D01*
X101969890Y-36660213D01*
X101844951Y-36832179D01*
X101748444Y-37021585D01*
X101682753Y-37223760D01*
X101649500Y-37433713D01*
X101649500Y-37646286D01*
X101672508Y-37791557D01*
X101682754Y-37856243D01*
X101703627Y-37920484D01*
X101748444Y-38058414D01*
X101844951Y-38247820D01*
X101969890Y-38419786D01*
X102120213Y-38570109D01*
X102292179Y-38695048D01*
X102292181Y-38695049D01*
X102292184Y-38695051D01*
X102481588Y-38791557D01*
X102683757Y-38857246D01*
X102893713Y-38890500D01*
X102893714Y-38890500D01*
X103106286Y-38890500D01*
X103106287Y-38890500D01*
X103316243Y-38857246D01*
X103518412Y-38791557D01*
X103707816Y-38695051D01*
X103748665Y-38665373D01*
X103879786Y-38570109D01*
X103879788Y-38570106D01*
X103879792Y-38570104D01*
X104030104Y-38419792D01*
X104030106Y-38419788D01*
X104030109Y-38419786D01*
X104155048Y-38247820D01*
X104155047Y-38247820D01*
X104155051Y-38247816D01*
X104251557Y-38058412D01*
X104317246Y-37856243D01*
X104350500Y-37646287D01*
X104350500Y-37433713D01*
X104317246Y-37223757D01*
X104303506Y-37181473D01*
X104301512Y-37111635D01*
X104333755Y-37055478D01*
X105752416Y-35636819D01*
X105813739Y-35603334D01*
X105840097Y-35600500D01*
X129420234Y-35600500D01*
X129438377Y-35605827D01*
X129457287Y-35606165D01*
X129485504Y-35619665D01*
X129487273Y-35620185D01*
X129489125Y-35621398D01*
X129565452Y-35672398D01*
X129610257Y-35726010D01*
X129618964Y-35795335D01*
X129588810Y-35858362D01*
X129529367Y-35895082D01*
X129496561Y-35899500D01*
X124579057Y-35899500D01*
X124420942Y-35899500D01*
X124410799Y-35902218D01*
X124268214Y-35940423D01*
X124268209Y-35940426D01*
X124131290Y-36019475D01*
X124131282Y-36019481D01*
X118485339Y-41665425D01*
X118424016Y-41698910D01*
X118421850Y-41699361D01*
X118266508Y-41730261D01*
X118266498Y-41730264D01*
X118120827Y-41790602D01*
X118120814Y-41790609D01*
X117989711Y-41878210D01*
X117989707Y-41878213D01*
X117878213Y-41989707D01*
X117878210Y-41989711D01*
X117790609Y-42120814D01*
X117790602Y-42120827D01*
X117730264Y-42266498D01*
X117730261Y-42266510D01*
X117699500Y-42421153D01*
X117699500Y-42578846D01*
X117730261Y-42733489D01*
X117730264Y-42733501D01*
X117790602Y-42879172D01*
X117790609Y-42879185D01*
X117878210Y-43010288D01*
X117878213Y-43010292D01*
X117989707Y-43121786D01*
X117989711Y-43121789D01*
X118120814Y-43209390D01*
X118120827Y-43209397D01*
X118258683Y-43266498D01*
X118266503Y-43269737D01*
X118421153Y-43300499D01*
X118421156Y-43300500D01*
X118550902Y-43300500D01*
X118617941Y-43320185D01*
X118663696Y-43372989D01*
X118673640Y-43442147D01*
X118644615Y-43505703D01*
X118638583Y-43512181D01*
X112519481Y-49631282D01*
X112519479Y-49631285D01*
X112469361Y-49718094D01*
X112469359Y-49718096D01*
X112440425Y-49768209D01*
X112440424Y-49768210D01*
X112440423Y-49768215D01*
X112399499Y-49920943D01*
X112399499Y-49920945D01*
X112399499Y-50089046D01*
X112399500Y-50089059D01*
X112399500Y-54082152D01*
X112379815Y-54149191D01*
X112327011Y-54194946D01*
X112299692Y-54203769D01*
X112166508Y-54230261D01*
X112166498Y-54230264D01*
X112020827Y-54290602D01*
X112020814Y-54290609D01*
X111889125Y-54378602D01*
X111822447Y-54399480D01*
X111820234Y-54399500D01*
X110039602Y-54399500D01*
X109972563Y-54379815D01*
X109929117Y-54331795D01*
X109922284Y-54318385D01*
X109801971Y-54152786D01*
X109657213Y-54008028D01*
X109491613Y-53887715D01*
X109491612Y-53887714D01*
X109491610Y-53887713D01*
X109409000Y-53845621D01*
X109309223Y-53794781D01*
X109114534Y-53731522D01*
X108939995Y-53703878D01*
X108912352Y-53699500D01*
X108707648Y-53699500D01*
X108683329Y-53703351D01*
X108505465Y-53731522D01*
X108310776Y-53794781D01*
X108128386Y-53887715D01*
X107962786Y-54008028D01*
X107818028Y-54152786D01*
X107697715Y-54318386D01*
X107604781Y-54500776D01*
X107541522Y-54695465D01*
X107509500Y-54897648D01*
X107509500Y-55102351D01*
X107541522Y-55304534D01*
X107604781Y-55499223D01*
X107656135Y-55600009D01*
X107697299Y-55680798D01*
X107697715Y-55681613D01*
X107818028Y-55847213D01*
X107962786Y-55991971D01*
X108111650Y-56100125D01*
X108128390Y-56112287D01*
X108209499Y-56153614D01*
X108310776Y-56205218D01*
X108310778Y-56205218D01*
X108310781Y-56205220D01*
X108385818Y-56229601D01*
X108505465Y-56268477D01*
X108597595Y-56283069D01*
X108707648Y-56300500D01*
X108707649Y-56300500D01*
X108912351Y-56300500D01*
X108912352Y-56300500D01*
X109114534Y-56268477D01*
X109309219Y-56205220D01*
X109491610Y-56112287D01*
X109584590Y-56044732D01*
X109657213Y-55991971D01*
X109657215Y-55991968D01*
X109657219Y-55991966D01*
X109801966Y-55847219D01*
X109801968Y-55847215D01*
X109801971Y-55847213D01*
X109922284Y-55681614D01*
X109922285Y-55681613D01*
X109922287Y-55681610D01*
X109929117Y-55668204D01*
X109977091Y-55617409D01*
X110039602Y-55600500D01*
X111820234Y-55600500D01*
X111887273Y-55620185D01*
X111889125Y-55621398D01*
X112020814Y-55709390D01*
X112020827Y-55709397D01*
X112111625Y-55747006D01*
X112166503Y-55769737D01*
X112276987Y-55791713D01*
X112299691Y-55796230D01*
X112361602Y-55828615D01*
X112396176Y-55889330D01*
X112399500Y-55917847D01*
X112399500Y-62275500D01*
X112379815Y-62342539D01*
X112327011Y-62388294D01*
X112275500Y-62399500D01*
X99086670Y-62399500D01*
X99086654Y-62399499D01*
X99079058Y-62399499D01*
X98920943Y-62399499D01*
X98856592Y-62416741D01*
X98786744Y-62415079D01*
X98728881Y-62375917D01*
X98701377Y-62311689D01*
X98700500Y-62296967D01*
X98700500Y-58390096D01*
X98720185Y-58323057D01*
X98736814Y-58302420D01*
X100702416Y-56336817D01*
X100763739Y-56303333D01*
X100790097Y-56300499D01*
X101790002Y-56300499D01*
X101790008Y-56300499D01*
X101790498Y-56300449D01*
X101807895Y-56298671D01*
X101892797Y-56289999D01*
X102059334Y-56234814D01*
X102208656Y-56142712D01*
X102332712Y-56018656D01*
X102424814Y-55869334D01*
X102479999Y-55702797D01*
X102490500Y-55600009D01*
X102490499Y-54399992D01*
X102479999Y-54297203D01*
X102424814Y-54130666D01*
X102332712Y-53981344D01*
X102208656Y-53857288D01*
X102102474Y-53791795D01*
X102059336Y-53765187D01*
X102059331Y-53765185D01*
X102057862Y-53764698D01*
X101892797Y-53710001D01*
X101892795Y-53710000D01*
X101790010Y-53699500D01*
X100589998Y-53699500D01*
X100589981Y-53699501D01*
X100487203Y-53710000D01*
X100487200Y-53710001D01*
X100320668Y-53765185D01*
X100320663Y-53765187D01*
X100171342Y-53857289D01*
X100047289Y-53981342D01*
X99955187Y-54130663D01*
X99955186Y-54130666D01*
X99900001Y-54297203D01*
X99900001Y-54297204D01*
X99900000Y-54297204D01*
X99889500Y-54399983D01*
X99889500Y-55399902D01*
X99869815Y-55466941D01*
X99853181Y-55487583D01*
X97619481Y-57721282D01*
X97619477Y-57721287D01*
X97576475Y-57795771D01*
X97576475Y-57795772D01*
X97540423Y-57858214D01*
X97527197Y-57907576D01*
X97499499Y-58010943D01*
X97499499Y-58169057D01*
X97499499Y-58169059D01*
X97499500Y-58179053D01*
X97499500Y-98513330D01*
X97499499Y-98513348D01*
X97499499Y-98679054D01*
X97499498Y-98679054D01*
X95500499Y-98679054D01*
X95500499Y-22624500D01*
X95520184Y-22557461D01*
X95572988Y-22511706D01*
X95624499Y-22500500D01*
X184375499Y-22500500D01*
X184442538Y-22520185D01*
G37*
%TD.AperFunction*%
%TD*%
M02*
