%TF.GenerationSoftware,KiCad,Pcbnew,10.0.3*%
%TF.CreationDate,2026-06-11T23:10:56-05:00*%
%TF.ProjectId,OmniSort-Schematic,4f6d6e69-536f-4727-942d-536368656d61,rev?*%
%TF.SameCoordinates,Original*%
%TF.FileFunction,Profile,NP*%
%FSLAX46Y46*%
G04 Gerber Fmt 4.6, Leading zero omitted, Abs format (unit mm)*
G04 Created by KiCad (PCBNEW 10.0.3) date 2026-06-11 23:10:56*
%MOMM*%
%LPD*%
G01*
G04 APERTURE LIST*
%TA.AperFunction,Profile*%
%ADD10C,0.050000*%
%TD*%
%TA.AperFunction,Profile*%
%ADD11C,0.100000*%
%TD*%
G04 APERTURE END LIST*
D10*
X94999999Y-22000000D02*
X184999999Y-22000000D01*
X184999999Y-115000000D01*
X94999999Y-115000000D01*
X94999999Y-22000000D01*
%TO.C,D16*%
D11*
X128300002Y-44600000D02*
X128300002Y-43194316D01*
X129205549Y-42397159D02*
X130794454Y-42397159D01*
X130794453Y-45397158D02*
X129205549Y-45397158D01*
X131700000Y-43194316D02*
X131700000Y-44600000D01*
X128250517Y-42977438D02*
G75*
G02*
X128300002Y-43194316I-450505J-216876D01*
G01*
X128250517Y-42977438D02*
G75*
G02*
X128953290Y-42328859I450515J216878D01*
G01*
X128300002Y-44600001D02*
G75*
G02*
X128250517Y-44816878I-499990J-1D01*
G01*
X128953290Y-45465455D02*
G75*
G02*
X128250517Y-44816878I-252258J431700D01*
G01*
X128953291Y-45465457D02*
G75*
G02*
X129205549Y-45397158I252261J-431710D01*
G01*
X129205548Y-42397158D02*
G75*
G02*
X128953290Y-42328859I3J500009D01*
G01*
X130794453Y-45397158D02*
G75*
G02*
X131046712Y-45465457I-3J-500012D01*
G01*
X131046712Y-42328860D02*
G75*
G02*
X130794454Y-42397160I-252262J431710D01*
G01*
X131046712Y-42328860D02*
G75*
G02*
X131749484Y-42977438I252258J-431700D01*
G01*
X131700000Y-43194315D02*
G75*
G02*
X131749479Y-42977435I500000J15D01*
G01*
X131749485Y-44816877D02*
G75*
G02*
X131046712Y-45465457I-450514J-216880D01*
G01*
X131749485Y-44816878D02*
G75*
G02*
X131700000Y-44600000I450515J216878D01*
G01*
%TO.C,D17*%
X148300002Y-44600000D02*
X148300002Y-43194316D01*
X149205549Y-42397159D02*
X150794454Y-42397159D01*
X150794453Y-45397158D02*
X149205549Y-45397158D01*
X151700000Y-43194316D02*
X151700000Y-44600000D01*
X148250517Y-42977438D02*
G75*
G02*
X148300002Y-43194316I-450505J-216876D01*
G01*
X148250517Y-42977438D02*
G75*
G02*
X148953290Y-42328859I450515J216878D01*
G01*
X148300002Y-44600001D02*
G75*
G02*
X148250517Y-44816878I-499990J-1D01*
G01*
X148953290Y-45465455D02*
G75*
G02*
X148250517Y-44816878I-252258J431700D01*
G01*
X148953291Y-45465457D02*
G75*
G02*
X149205549Y-45397158I252261J-431710D01*
G01*
X149205548Y-42397158D02*
G75*
G02*
X148953290Y-42328859I3J500009D01*
G01*
X150794453Y-45397158D02*
G75*
G02*
X151046712Y-45465457I-3J-500012D01*
G01*
X151046712Y-42328860D02*
G75*
G02*
X150794454Y-42397160I-252262J431710D01*
G01*
X151046712Y-42328860D02*
G75*
G02*
X151749484Y-42977438I252258J-431700D01*
G01*
X151700000Y-43194315D02*
G75*
G02*
X151749479Y-42977435I500000J15D01*
G01*
X151749485Y-44816877D02*
G75*
G02*
X151046712Y-45465457I-450514J-216880D01*
G01*
X151749485Y-44816878D02*
G75*
G02*
X151700000Y-44600000I450515J216878D01*
G01*
%TO.C,D12*%
X148300002Y-108600000D02*
X148300002Y-107194316D01*
X149205549Y-106397159D02*
X150794454Y-106397159D01*
X150794453Y-109397158D02*
X149205549Y-109397158D01*
X151700000Y-107194316D02*
X151700000Y-108600000D01*
X148250517Y-106977438D02*
G75*
G02*
X148300002Y-107194316I-450505J-216876D01*
G01*
X148250517Y-106977438D02*
G75*
G02*
X148953290Y-106328859I450515J216878D01*
G01*
X148300002Y-108600001D02*
G75*
G02*
X148250517Y-108816878I-499990J-1D01*
G01*
X148953290Y-109465455D02*
G75*
G02*
X148250517Y-108816878I-252258J431700D01*
G01*
X148953291Y-109465457D02*
G75*
G02*
X149205549Y-109397158I252261J-431710D01*
G01*
X149205548Y-106397158D02*
G75*
G02*
X148953290Y-106328859I3J500009D01*
G01*
X150794453Y-109397158D02*
G75*
G02*
X151046712Y-109465457I-3J-500012D01*
G01*
X151046712Y-106328860D02*
G75*
G02*
X150794454Y-106397160I-252262J431710D01*
G01*
X151046712Y-106328860D02*
G75*
G02*
X151749484Y-106977438I252258J-431700D01*
G01*
X151700000Y-107194315D02*
G75*
G02*
X151749479Y-106977435I500000J15D01*
G01*
X151749485Y-108816877D02*
G75*
G02*
X151046712Y-109465457I-450514J-216880D01*
G01*
X151749485Y-108816878D02*
G75*
G02*
X151700000Y-108600000I450515J216878D01*
G01*
%TO.C,D14*%
X103800002Y-86100000D02*
X103800002Y-84694316D01*
X104705549Y-83897159D02*
X106294454Y-83897159D01*
X106294453Y-86897158D02*
X104705549Y-86897158D01*
X107200000Y-84694316D02*
X107200000Y-86100000D01*
X103750517Y-84477438D02*
G75*
G02*
X103800002Y-84694316I-450505J-216876D01*
G01*
X103750517Y-84477438D02*
G75*
G02*
X104453290Y-83828859I450515J216878D01*
G01*
X103800002Y-86100001D02*
G75*
G02*
X103750517Y-86316878I-499990J-1D01*
G01*
X104453290Y-86965455D02*
G75*
G02*
X103750517Y-86316878I-252258J431700D01*
G01*
X104453291Y-86965457D02*
G75*
G02*
X104705549Y-86897158I252261J-431710D01*
G01*
X104705548Y-83897158D02*
G75*
G02*
X104453290Y-83828859I3J500009D01*
G01*
X106294453Y-86897158D02*
G75*
G02*
X106546712Y-86965457I-3J-500012D01*
G01*
X106546712Y-83828860D02*
G75*
G02*
X106294454Y-83897160I-252262J431710D01*
G01*
X106546712Y-83828860D02*
G75*
G02*
X107249484Y-84477438I252258J-431700D01*
G01*
X107200000Y-84694315D02*
G75*
G02*
X107249479Y-84477435I500000J15D01*
G01*
X107249485Y-86316877D02*
G75*
G02*
X106546712Y-86965457I-450514J-216880D01*
G01*
X107249485Y-86316878D02*
G75*
G02*
X107200000Y-86100000I450515J216878D01*
G01*
%TO.C,D13*%
X128300002Y-108600000D02*
X128300002Y-107194316D01*
X129205549Y-106397159D02*
X130794454Y-106397159D01*
X130794453Y-109397158D02*
X129205549Y-109397158D01*
X131700000Y-107194316D02*
X131700000Y-108600000D01*
X128250517Y-106977438D02*
G75*
G02*
X128300002Y-107194316I-450505J-216876D01*
G01*
X128250517Y-106977438D02*
G75*
G02*
X128953290Y-106328859I450515J216878D01*
G01*
X128300002Y-108600001D02*
G75*
G02*
X128250517Y-108816878I-499990J-1D01*
G01*
X128953290Y-109465455D02*
G75*
G02*
X128250517Y-108816878I-252258J431700D01*
G01*
X128953291Y-109465457D02*
G75*
G02*
X129205549Y-109397158I252261J-431710D01*
G01*
X129205548Y-106397158D02*
G75*
G02*
X128953290Y-106328859I3J500009D01*
G01*
X130794453Y-109397158D02*
G75*
G02*
X131046712Y-109465457I-3J-500012D01*
G01*
X131046712Y-106328860D02*
G75*
G02*
X130794454Y-106397160I-252262J431710D01*
G01*
X131046712Y-106328860D02*
G75*
G02*
X131749484Y-106977438I252258J-431700D01*
G01*
X131700000Y-107194315D02*
G75*
G02*
X131749479Y-106977435I500000J15D01*
G01*
X131749485Y-108816877D02*
G75*
G02*
X131046712Y-109465457I-450514J-216880D01*
G01*
X131749485Y-108816878D02*
G75*
G02*
X131700000Y-108600000I450515J216878D01*
G01*
%TO.C,D15*%
X104300002Y-66600000D02*
X104300002Y-65194316D01*
X105205549Y-64397159D02*
X106794454Y-64397159D01*
X106794453Y-67397158D02*
X105205549Y-67397158D01*
X107700000Y-65194316D02*
X107700000Y-66600000D01*
X104250517Y-64977438D02*
G75*
G02*
X104300002Y-65194316I-450505J-216876D01*
G01*
X104250517Y-64977438D02*
G75*
G02*
X104953290Y-64328859I450515J216878D01*
G01*
X104300002Y-66600001D02*
G75*
G02*
X104250517Y-66816878I-499990J-1D01*
G01*
X104953290Y-67465455D02*
G75*
G02*
X104250517Y-66816878I-252258J431700D01*
G01*
X104953291Y-67465457D02*
G75*
G02*
X105205549Y-67397158I252261J-431710D01*
G01*
X105205548Y-64397158D02*
G75*
G02*
X104953290Y-64328859I3J500009D01*
G01*
X106794453Y-67397158D02*
G75*
G02*
X107046712Y-67465457I-3J-500012D01*
G01*
X107046712Y-64328860D02*
G75*
G02*
X106794454Y-64397160I-252262J431710D01*
G01*
X107046712Y-64328860D02*
G75*
G02*
X107749484Y-64977438I252258J-431700D01*
G01*
X107700000Y-65194315D02*
G75*
G02*
X107749479Y-64977435I500000J15D01*
G01*
X107749485Y-66816877D02*
G75*
G02*
X107046712Y-67465457I-450514J-216880D01*
G01*
X107749485Y-66816878D02*
G75*
G02*
X107700000Y-66600000I450515J216878D01*
G01*
%TO.C,D11*%
X172800002Y-86100000D02*
X172800002Y-84694316D01*
X173705549Y-83897159D02*
X175294454Y-83897159D01*
X175294453Y-86897158D02*
X173705549Y-86897158D01*
X176200000Y-84694316D02*
X176200000Y-86100000D01*
X172750517Y-84477438D02*
G75*
G02*
X172800002Y-84694316I-450505J-216876D01*
G01*
X172750517Y-84477438D02*
G75*
G02*
X173453290Y-83828859I450515J216878D01*
G01*
X172800002Y-86100001D02*
G75*
G02*
X172750517Y-86316878I-499990J-1D01*
G01*
X173453290Y-86965455D02*
G75*
G02*
X172750517Y-86316878I-252258J431700D01*
G01*
X173453291Y-86965457D02*
G75*
G02*
X173705549Y-86897158I252261J-431710D01*
G01*
X173705548Y-83897158D02*
G75*
G02*
X173453290Y-83828859I3J500009D01*
G01*
X175294453Y-86897158D02*
G75*
G02*
X175546712Y-86965457I-3J-500012D01*
G01*
X175546712Y-83828860D02*
G75*
G02*
X175294454Y-83897160I-252262J431710D01*
G01*
X175546712Y-83828860D02*
G75*
G02*
X176249484Y-84477438I252258J-431700D01*
G01*
X176200000Y-84694315D02*
G75*
G02*
X176249479Y-84477435I500000J15D01*
G01*
X176249485Y-86316877D02*
G75*
G02*
X175546712Y-86965457I-450514J-216880D01*
G01*
X176249485Y-86316878D02*
G75*
G02*
X176200000Y-86100000I450515J216878D01*
G01*
%TO.C,D10*%
X172800002Y-66600000D02*
X172800002Y-65194316D01*
X173705549Y-64397159D02*
X175294454Y-64397159D01*
X175294453Y-67397158D02*
X173705549Y-67397158D01*
X176200000Y-65194316D02*
X176200000Y-66600000D01*
X172750517Y-64977438D02*
G75*
G02*
X172800002Y-65194316I-450505J-216876D01*
G01*
X172750517Y-64977438D02*
G75*
G02*
X173453290Y-64328859I450515J216878D01*
G01*
X172800002Y-66600001D02*
G75*
G02*
X172750517Y-66816878I-499990J-1D01*
G01*
X173453290Y-67465455D02*
G75*
G02*
X172750517Y-66816878I-252258J431700D01*
G01*
X173453291Y-67465457D02*
G75*
G02*
X173705549Y-67397158I252261J-431710D01*
G01*
X173705548Y-64397158D02*
G75*
G02*
X173453290Y-64328859I3J500009D01*
G01*
X175294453Y-67397158D02*
G75*
G02*
X175546712Y-67465457I-3J-500012D01*
G01*
X175546712Y-64328860D02*
G75*
G02*
X175294454Y-64397160I-252262J431710D01*
G01*
X175546712Y-64328860D02*
G75*
G02*
X176249484Y-64977438I252258J-431700D01*
G01*
X176200000Y-65194315D02*
G75*
G02*
X176249479Y-64977435I500000J15D01*
G01*
X176249485Y-66816877D02*
G75*
G02*
X175546712Y-67465457I-450514J-216880D01*
G01*
X176249485Y-66816878D02*
G75*
G02*
X176200000Y-66600000I450515J216878D01*
G01*
%TD*%
M02*
