%TF.GenerationSoftware,KiCad,Pcbnew,10.0.3*%
%TF.CreationDate,2026-06-11T23:10:56-05:00*%
%TF.ProjectId,OmniSort-Schematic,4f6d6e69-536f-4727-942d-536368656d61,rev?*%
%TF.SameCoordinates,Original*%
%TF.FileFunction,Legend,Bot*%
%TF.FilePolarity,Positive*%
%FSLAX46Y46*%
G04 Gerber Fmt 4.6, Leading zero omitted, Abs format (unit mm)*
G04 Created by KiCad (PCBNEW 10.0.3) date 2026-06-11 23:10:56*
%MOMM*%
%LPD*%
G01*
G04 APERTURE LIST*
%ADD10C,0.100000*%
G04 APERTURE END LIST*
D10*
%TO.C,D16*%
X134200001Y-44897158D02*
X133300001Y-45797158D01*
X134200001Y-45797158D01*
X134200001Y-44897158D01*
G36*
X134200001Y-45797158D02*
G01*
X133300001Y-45797158D01*
X134200001Y-44897158D01*
X134200001Y-45797158D01*
G37*
%TO.C,D17*%
X154200001Y-44897158D02*
X153300001Y-45797158D01*
X154200001Y-45797158D01*
X154200001Y-44897158D01*
G36*
X154200001Y-45797158D02*
G01*
X153300001Y-45797158D01*
X154200001Y-44897158D01*
X154200001Y-45797158D01*
G37*
%TO.C,D12*%
X154200001Y-108897158D02*
X153300001Y-109797158D01*
X154200001Y-109797158D01*
X154200001Y-108897158D01*
G36*
X154200001Y-109797158D02*
G01*
X153300001Y-109797158D01*
X154200001Y-108897158D01*
X154200001Y-109797158D01*
G37*
%TO.C,D14*%
X109700001Y-86397158D02*
X108800001Y-87297158D01*
X109700001Y-87297158D01*
X109700001Y-86397158D01*
G36*
X109700001Y-87297158D02*
G01*
X108800001Y-87297158D01*
X109700001Y-86397158D01*
X109700001Y-87297158D01*
G37*
%TO.C,D13*%
X134200001Y-108897158D02*
X133300001Y-109797158D01*
X134200001Y-109797158D01*
X134200001Y-108897158D01*
G36*
X134200001Y-109797158D02*
G01*
X133300001Y-109797158D01*
X134200001Y-108897158D01*
X134200001Y-109797158D01*
G37*
%TO.C,D15*%
X110200001Y-66897158D02*
X109300001Y-67797158D01*
X110200001Y-67797158D01*
X110200001Y-66897158D01*
G36*
X110200001Y-67797158D02*
G01*
X109300001Y-67797158D01*
X110200001Y-66897158D01*
X110200001Y-67797158D01*
G37*
%TO.C,D11*%
X178700001Y-86397158D02*
X177800001Y-87297158D01*
X178700001Y-87297158D01*
X178700001Y-86397158D01*
G36*
X178700001Y-87297158D02*
G01*
X177800001Y-87297158D01*
X178700001Y-86397158D01*
X178700001Y-87297158D01*
G37*
%TO.C,D10*%
X178700001Y-66897158D02*
X177800001Y-67797158D01*
X178700001Y-67797158D01*
X178700001Y-66897158D01*
G36*
X178700001Y-67797158D02*
G01*
X177800001Y-67797158D01*
X178700001Y-66897158D01*
X178700001Y-67797158D01*
G37*
%TD*%
M02*
