%TF.GenerationSoftware,KiCad,Pcbnew,10.0.3*%
%TF.CreationDate,2026-06-11T23:10:56-05:00*%
%TF.ProjectId,OmniSort-Schematic,4f6d6e69-536f-4727-942d-536368656d61,rev?*%
%TF.SameCoordinates,Original*%
%TF.FileFunction,Soldermask,Top*%
%TF.FilePolarity,Negative*%
%FSLAX46Y46*%
G04 Gerber Fmt 4.6, Leading zero omitted, Abs format (unit mm)*
G04 Created by KiCad (PCBNEW 10.0.3) date 2026-06-11 23:10:56*
%MOMM*%
%LPD*%
G01*
G04 APERTURE LIST*
G04 Aperture macros list*
%AMRoundRect*
0 Rectangle with rounded corners*
0 $1 Rounding radius*
0 $2 $3 $4 $5 $6 $7 $8 $9 X,Y pos of 4 corners*
0 Add a 4 corners polygon primitive as box body*
4,1,4,$2,$3,$4,$5,$6,$7,$8,$9,$2,$3,0*
0 Add four circle primitives for the rounded corners*
1,1,$1+$1,$2,$3*
1,1,$1+$1,$4,$5*
1,1,$1+$1,$6,$7*
1,1,$1+$1,$8,$9*
0 Add four rect primitives between the rounded corners*
20,1,$1+$1,$2,$3,$4,$5,0*
20,1,$1+$1,$4,$5,$6,$7,0*
20,1,$1+$1,$6,$7,$8,$9,0*
20,1,$1+$1,$8,$9,$2,$3,0*%
G04 Aperture macros list end*
%ADD10C,1.700000*%
%ADD11C,4.000000*%
%ADD12C,2.200000*%
%ADD13RoundRect,0.250000X-0.550000X-0.550000X0.550000X-0.550000X0.550000X0.550000X-0.550000X0.550000X0*%
%ADD14C,1.600000*%
%ADD15R,3.500000X1.700000*%
%ADD16O,3.600000X1.700000*%
%ADD17O,3.700000X1.700000*%
%ADD18O,2.200000X1.600000*%
%ADD19C,2.100000*%
%ADD20R,2.000000X2.000000*%
%ADD21C,2.000000*%
%ADD22R,3.200000X2.000000*%
%ADD23R,1.700000X1.700000*%
G04 APERTURE END LIST*
D10*
%TO.C,SW7*%
X154020000Y-76050000D03*
D11*
X159100000Y-76050000D03*
D10*
X164180000Y-76050000D03*
D12*
X161640000Y-70970000D03*
X155290000Y-73510000D03*
%TD*%
D13*
%TO.C,D3*%
X101190000Y-97000000D03*
D14*
X108810000Y-97000000D03*
%TD*%
D10*
%TO.C,SW6*%
X154020000Y-57000000D03*
D11*
X159100000Y-57000000D03*
D10*
X164180000Y-57000000D03*
D12*
X161640000Y-51920000D03*
X155290000Y-54460000D03*
%TD*%
D10*
%TO.C,SW4*%
X134970000Y-57000000D03*
D11*
X140050000Y-57000000D03*
D10*
X145130000Y-57000000D03*
D12*
X142590000Y-51920000D03*
X136240000Y-54460000D03*
%TD*%
D13*
%TO.C,D8*%
X171380000Y-76500000D03*
D14*
X179000000Y-76500000D03*
%TD*%
D10*
%TO.C,SW5*%
X134970000Y-95100000D03*
D11*
X140050000Y-95100000D03*
D10*
X145130000Y-95100000D03*
D12*
X142590000Y-90020000D03*
X136240000Y-92560000D03*
%TD*%
D15*
%TO.C,U1*%
X156875000Y-26380000D03*
D16*
X156875000Y-28920000D03*
X156875000Y-31460000D03*
X156875000Y-34000000D03*
X156875000Y-36540000D03*
X156875000Y-39080000D03*
X156875000Y-41620000D03*
X174125000Y-41620000D03*
X174125000Y-39080000D03*
X174125000Y-36540000D03*
D17*
X174125000Y-34000000D03*
X174125000Y-31460000D03*
X174125000Y-28920000D03*
X174125000Y-26380000D03*
%TD*%
D10*
%TO.C,SW8*%
X154020000Y-95100000D03*
D11*
X159100000Y-95100000D03*
D10*
X164180000Y-95100000D03*
D12*
X161640000Y-90020000D03*
X155290000Y-92560000D03*
%TD*%
D13*
%TO.C,D1*%
X101190000Y-55000000D03*
D14*
X108810000Y-55000000D03*
%TD*%
D10*
%TO.C,SW2*%
X115920000Y-76050000D03*
D11*
X121000000Y-76050000D03*
D10*
X126080000Y-76050000D03*
D12*
X123540000Y-70970000D03*
X117190000Y-73510000D03*
%TD*%
D13*
%TO.C,D5*%
X136380000Y-107500000D03*
D14*
X144000000Y-107500000D03*
%TD*%
D13*
%TO.C,D9*%
X171190000Y-55000000D03*
D14*
X178810000Y-55000000D03*
%TD*%
D10*
%TO.C,SW1*%
X115920000Y-57000000D03*
D11*
X121000000Y-57000000D03*
D10*
X126080000Y-57000000D03*
D12*
X123540000Y-51920000D03*
X117190000Y-54460000D03*
%TD*%
D13*
%TO.C,D2*%
X101190000Y-76500000D03*
D14*
X108810000Y-76500000D03*
%TD*%
D18*
%TO.C,SW9*%
X135550000Y-75350000D03*
D19*
X140050000Y-75350000D03*
D20*
X132550000Y-72850000D03*
D21*
X132550000Y-77850000D03*
X132550000Y-75350000D03*
D22*
X140050000Y-69750000D03*
X140050000Y-80950000D03*
D21*
X147050000Y-77850000D03*
X147050000Y-72850000D03*
%TD*%
D23*
%TO.C,J1*%
X103000000Y-29920000D03*
D10*
X103000000Y-32460000D03*
X103000000Y-35000000D03*
X103000000Y-37540000D03*
%TD*%
D13*
%TO.C,D4*%
X115190000Y-107500000D03*
D14*
X122810000Y-107500000D03*
%TD*%
D13*
%TO.C,D7*%
X171380000Y-97000000D03*
D14*
X179000000Y-97000000D03*
%TD*%
D13*
%TO.C,D6*%
X157380000Y-107500000D03*
D14*
X165000000Y-107500000D03*
%TD*%
D10*
%TO.C,SW3*%
X115920000Y-95100000D03*
D11*
X121000000Y-95100000D03*
D10*
X126080000Y-95100000D03*
D12*
X123540000Y-90020000D03*
X117190000Y-92560000D03*
%TD*%
M02*
