M48
; DRILL file KiCad 10.0.3 date 2026-06-11T23:10:59
; FORMAT={-:-/ absolute / metric / decimal}
; #@! TF.CreationDate,2026-06-11T23:10:59-05:00
; #@! TF.GenerationSoftware,Kicad,Pcbnew,10.0.3
; #@! TF.FileFunction,Plated,1,2,PTH
FMAT,2
METRIC
; #@! TA.AperFunction,Plated,PTH,ViaDrill
T1C0.300
; #@! TA.AperFunction,Plated,PTH,ComponentDrill
T2C0.800
; #@! TA.AperFunction,Plated,PTH,ComponentDrill
T3C1.000
; #@! TA.AperFunction,Plated,PTH,ComponentDrill
T4C1.500
%
G90
G05
T1
X100.0Y-65.0
X100.0Y-68.0
X100.5Y-88.0
X101.339Y-85.491
X103.0Y-78.9
X103.0Y-80.1
X103.5Y-73.0
X104.174Y-71.826
X105.0Y-78.9
X105.0Y-80.5
X109.5Y-68.0
X109.576Y-85.924
X110.9Y-107.0
X111.076Y-86.576
X111.9Y-96.0
X111.9Y-101.5
X112.0Y-87.5
X112.1Y-66.5
X112.4Y-55.0
X112.5Y-72.91
X112.5Y-74.11
X112.5Y-82.5
X112.5Y-103.9
X112.5Y-107.5
X113.1Y-95.5
X113.1Y-101.5
X113.5Y-105.5
X114.4Y-105.697
X115.0Y-54.5
X115.0Y-105.1
X115.5Y-103.5
X115.625Y-105.6
X118.174Y-45.674
X118.5Y-42.5
X123.0Y-42.0
X123.5Y-84.5
X123.5Y-87.1
X124.4Y-106.2
X125.0Y-101.0
X126.0Y-39.4
X126.0Y-40.6
X127.0Y-102.9
X127.4Y-107.147
X128.5Y-33.5
X128.5Y-87.1
X129.0Y-84.0
X129.5Y-87.1
X129.826Y-87.826
X129.9Y-100.0
X129.9Y-103.5
X130.0Y-35.0
X130.0Y-85.0
X130.174Y-33.326
X131.0Y-60.5
X131.0Y-85.9
X131.0Y-87.5
X131.0Y-88.5
X131.1Y-100.5
X131.758Y-62.758
X131.876Y-102.124
X132.0Y-91.0
X132.0Y-93.16
X132.0Y-104.1
X132.0Y-105.5
X132.076Y-36.924
X132.5Y-101.0
X132.6Y-108.647
X133.0Y-35.0
X133.0Y-109.9
X133.0Y-111.5
X134.0Y-104.5
X134.5Y-105.5
X136.0Y-35.0
X136.0Y-103.5
X136.6Y-104.1
X138.0Y-43.0
X139.5Y-42.5
X139.826Y-44.674
X140.5Y-43.5
X141.076Y-42.076
X141.99Y-65.5
X142.5Y-42.5
X146.193Y-87.1
X146.5Y-85.0
X146.5Y-88.0
X147.674Y-86.826
X148.0Y-63.0
X150.1Y-72.5
X150.1Y-81.5
X150.1Y-85.0
X155.5Y-108.5
X155.5Y-111.1
X156.5Y-104.5
X156.78Y-103.5
X157.5Y-45.0
X157.98Y-104.5
X158.0Y-48.5
X158.0Y-103.5
X158.5Y-46.0
X160.0Y-102.9
X160.0Y-104.1
X161.5Y-86.0
X162.0Y-45.5
X162.0Y-60.9
X162.0Y-62.5
X162.0Y-64.4
X162.0Y-84.4
X162.0Y-102.9
X162.0Y-104.1
X162.5Y-48.0
X164.4Y-109.5
X164.5Y-45.5
X165.0Y-42.0
X165.0Y-47.6
X165.5Y-39.5
X166.5Y-45.5
X166.5Y-109.0
X167.0Y-47.6
X167.0Y-61.5
X167.0Y-81.5
X167.4Y-90.0
X167.5Y-49.5
X167.859Y-71.707
X167.924Y-63.924
X167.924Y-83.924
X168.0Y-68.5
X168.5Y-47.6
X168.6Y-90.0
X168.624Y-48.376
X169.0Y-45.0
X169.326Y-80.826
X169.4Y-37.0
X169.4Y-45.693
X170.0Y-46.4
X170.0Y-71.4
X170.0Y-74.0
X170.0Y-90.5
X170.5Y-47.6
X170.5Y-82.0
X171.0Y-39.5
X171.5Y-45.5
X171.5Y-71.0
X171.5Y-72.6
X172.5Y-90.5
X173.0Y-46.4
X173.0Y-48.5
X173.5Y-61.4
X173.5Y-63.0
X173.5Y-69.5
X174.0Y-72.6
X176.0Y-60.0
X176.326Y-43.826
X176.5Y-45.5
X176.5Y-48.2
X176.924Y-61.424
X177.5Y-32.1
X177.5Y-33.4
X177.5Y-34.6
X177.5Y-46.4
X177.5Y-48.5
X178.0Y-30.9
X178.0Y-43.5
X178.0Y-45.0
X178.5Y-68.0
X180.6Y-66.5
X181.5Y-43.5
T2
X101.19Y-55.0
X101.19Y-76.5
X101.19Y-97.0
X108.81Y-55.0
X108.81Y-76.5
X108.81Y-97.0
X115.19Y-107.5
X122.81Y-107.5
X136.38Y-107.5
X144.0Y-107.5
X157.38Y-107.5
X165.0Y-107.5
X171.19Y-55.0
X171.38Y-76.5
X171.38Y-97.0
X178.81Y-55.0
X179.0Y-76.5
X179.0Y-97.0
T3
X103.0Y-29.92
X103.0Y-32.46
X103.0Y-35.0
X103.0Y-37.54
X132.55Y-72.85
X132.55Y-75.35
X132.55Y-77.85
X147.05Y-72.85
X147.05Y-77.85
X157.875Y-26.38
X157.875Y-28.92
X157.875Y-31.46
X157.875Y-34.0
X157.875Y-36.54
X157.875Y-39.08
X157.875Y-41.62
X173.125Y-26.38
X173.125Y-28.92
X173.125Y-31.46
X173.125Y-34.0
X173.125Y-36.54
X173.125Y-39.08
X173.125Y-41.62
T4
X117.19Y-54.46
X117.19Y-73.51
X117.19Y-92.56
X123.54Y-51.92
X123.54Y-70.97
X123.54Y-90.02
X136.24Y-54.46
X136.24Y-92.56
X142.59Y-51.92
X142.59Y-90.02
X155.29Y-54.46
X155.29Y-73.51
X155.29Y-92.56
X161.64Y-51.92
X161.64Y-70.97
X161.64Y-90.02
T4
G00X139.4Y-69.75
M15
G01X140.7Y-69.75
M16
G05
G00X139.4Y-80.95
M15
G01X140.7Y-80.95
M16
G05
M30
