%TF.GenerationSoftware,KiCad,Pcbnew,10.0.3*%
%TF.CreationDate,2026-06-11T23:10:56-05:00*%
%TF.ProjectId,OmniSort-Schematic,4f6d6e69-536f-4727-942d-536368656d61,rev?*%
%TF.SameCoordinates,Original*%
%TF.FileFunction,Copper,L1,Top*%
%TF.FilePolarity,Positive*%
%FSLAX46Y46*%
G04 Gerber Fmt 4.6, Leading zero omitted, Abs format (unit mm)*
G04 Created by KiCad (PCBNEW 10.0.3) date 2026-06-11 23:10:56*
%MOMM*%
%LPD*%
G01*
G04 APERTURE LIST*
G04 Aperture macros list*
%AMRoundRect*
0 Rectangle with rounded corners*
0 $1 Rounding radius*
0 $2 $3 $4 $5 $6 $7 $8 $9 X,Y pos of 4 corners*
0 Add a 4 corners polygon primitive as box body*
4,1,4,$2,$3,$4,$5,$6,$7,$8,$9,$2,$3,0*
0 Add four circle primitives for the rounded corners*
1,1,$1+$1,$2,$3*
1,1,$1+$1,$4,$5*
1,1,$1+$1,$6,$7*
1,1,$1+$1,$8,$9*
0 Add four rect primitives between the rounded corners*
20,1,$1+$1,$2,$3,$4,$5,0*
20,1,$1+$1,$4,$5,$6,$7,0*
20,1,$1+$1,$6,$7,$8,$9,0*
20,1,$1+$1,$8,$9,$2,$3,0*%
G04 Aperture macros list end*
%TA.AperFunction,ComponentPad*%
%ADD10C,2.200000*%
%TD*%
%TA.AperFunction,ComponentPad*%
%ADD11RoundRect,0.250000X-0.550000X-0.550000X0.550000X-0.550000X0.550000X0.550000X-0.550000X0.550000X0*%
%TD*%
%TA.AperFunction,ComponentPad*%
%ADD12C,1.600000*%
%TD*%
%TA.AperFunction,ComponentPad*%
%ADD13R,3.500000X1.700000*%
%TD*%
%TA.AperFunction,ComponentPad*%
%ADD14O,3.600000X1.700000*%
%TD*%
%TA.AperFunction,ComponentPad*%
%ADD15O,3.700000X1.700000*%
%TD*%
%TA.AperFunction,ComponentPad*%
%ADD16R,2.000000X2.000000*%
%TD*%
%TA.AperFunction,ComponentPad*%
%ADD17C,2.000000*%
%TD*%
%TA.AperFunction,ComponentPad*%
%ADD18R,3.200000X2.000000*%
%TD*%
%TA.AperFunction,ComponentPad*%
%ADD19R,1.700000X1.700000*%
%TD*%
%TA.AperFunction,ComponentPad*%
%ADD20C,1.700000*%
%TD*%
%TA.AperFunction,ViaPad*%
%ADD21C,0.600000*%
%TD*%
%TA.AperFunction,Conductor*%
%ADD22C,0.200000*%
%TD*%
G04 APERTURE END LIST*
D10*
%TO.P,SW7,1,1_1*%
%TO.N,/COL2*%
X161640000Y-70970000D03*
%TO.P,SW7,2,2_2*%
%TO.N,Net-(D8-A)*%
X155290000Y-73510000D03*
%TD*%
D11*
%TO.P,D3,1,K_1*%
%TO.N,/ROW2*%
X101190000Y-97000000D03*
D12*
%TO.P,D3,2,A_2*%
%TO.N,Net-(D3-A)*%
X108810000Y-97000000D03*
%TD*%
D10*
%TO.P,SW6,1,1_1*%
%TO.N,/COL2*%
X161640000Y-51920000D03*
%TO.P,SW6,2,2_2*%
%TO.N,Net-(D7-A)*%
X155290000Y-54460000D03*
%TD*%
%TO.P,SW4,1,1_1*%
%TO.N,/COL1*%
X142590000Y-51920000D03*
%TO.P,SW4,2,2_2*%
%TO.N,Net-(D4-A)*%
X136240000Y-54460000D03*
%TD*%
D11*
%TO.P,D8,1,K_1*%
%TO.N,/ROW1*%
X171380000Y-76500000D03*
D12*
%TO.P,D8,2,A_2*%
%TO.N,Net-(D8-A)*%
X179000000Y-76500000D03*
%TD*%
D10*
%TO.P,SW5,1,1_1*%
%TO.N,/COL1*%
X142590000Y-90020000D03*
%TO.P,SW5,2,2_2*%
%TO.N,Net-(D6-A)*%
X136240000Y-92560000D03*
%TD*%
D13*
%TO.P,U1,1,PA02_A0_D0_1*%
%TO.N,/ROW0*%
X156875000Y-26380000D03*
D14*
%TO.P,U1,2,PA4_A1_D1_2*%
%TO.N,/ROW1*%
X156875000Y-28920000D03*
%TO.P,U1,3,PA10_A2_D2_3*%
%TO.N,/ROW2*%
X156875000Y-31460000D03*
%TO.P,U1,4,PA11_A3_D3_4*%
%TO.N,/COL0*%
X156875000Y-34000000D03*
%TO.P,U1,5,PA8_A4_D4_SDA_5*%
%TO.N,/OLED_SDA*%
X156875000Y-36540000D03*
%TO.P,U1,6,PA9_A5_D5_SCL_6*%
%TO.N,/OLED_SCL*%
X156875000Y-39080000D03*
%TO.P,U1,7,PB08_A6_D6_TX_7*%
%TO.N,/COL1*%
X156875000Y-41620000D03*
%TO.P,U1,8,PB09_A7_D7_RX_8*%
%TO.N,/ENC_A*%
X174125000Y-41620000D03*
%TO.P,U1,9,PA7_A8_D8_SCK_9*%
%TO.N,/ENC_B*%
X174125000Y-39080000D03*
%TO.P,U1,10,PA5_A9_D9_MISO_10*%
%TO.N,/COL2*%
X174125000Y-36540000D03*
D15*
%TO.P,U1,11,PA6_A10_D10_MOSI_11*%
%TO.N,/LED_DATA*%
X174125000Y-34000000D03*
%TO.P,U1,12,3V3_12*%
%TO.N,+3V3*%
X174125000Y-31460000D03*
%TO.P,U1,13,GND_13*%
%TO.N,GND*%
X174125000Y-28920000D03*
%TO.P,U1,14,5V_14*%
%TO.N,+5V*%
X174125000Y-26380000D03*
%TD*%
D10*
%TO.P,SW8,1,1_1*%
%TO.N,/COL2*%
X161640000Y-90020000D03*
%TO.P,SW8,2,2_2*%
%TO.N,Net-(D9-A)*%
X155290000Y-92560000D03*
%TD*%
D11*
%TO.P,D1,1,K_1*%
%TO.N,Net-(D1-K)*%
X101190000Y-55000000D03*
D12*
%TO.P,D1,2,A_2*%
%TO.N,/ROW0*%
X108810000Y-55000000D03*
%TD*%
D10*
%TO.P,SW2,1,1_1*%
%TO.N,/COL0*%
X123540000Y-70970000D03*
%TO.P,SW2,2,2_2*%
%TO.N,Net-(D2-A)*%
X117190000Y-73510000D03*
%TD*%
D11*
%TO.P,D5,1,K_1*%
%TO.N,/ROW1*%
X136380000Y-107500000D03*
D12*
%TO.P,D5,2,A_2*%
%TO.N,Net-(D5-A)*%
X144000000Y-107500000D03*
%TD*%
D11*
%TO.P,D9,1,K_1*%
%TO.N,/ROW2*%
X171190000Y-55000000D03*
D12*
%TO.P,D9,2,A_2*%
%TO.N,Net-(D9-A)*%
X178810000Y-55000000D03*
%TD*%
D10*
%TO.P,SW1,1,1_1*%
%TO.N,/COL0*%
X123540000Y-51920000D03*
%TO.P,SW1,2,2_2*%
%TO.N,/ROW0*%
X117190000Y-54460000D03*
%TD*%
D11*
%TO.P,D2,1,K_1*%
%TO.N,/ROW1*%
X101190000Y-76500000D03*
D12*
%TO.P,D2,2,A_2*%
%TO.N,Net-(D2-A)*%
X108810000Y-76500000D03*
%TD*%
D16*
%TO.P,SW9,A,A_A*%
%TO.N,/ENC_A*%
X132550000Y-72850000D03*
D17*
%TO.P,SW9,B,B_B*%
%TO.N,/ENC_B*%
X132550000Y-77850000D03*
%TO.P,SW9,C,C_C*%
%TO.N,GND*%
X132550000Y-75350000D03*
D18*
%TO.P,SW9,MP*%
%TO.N,N/C*%
X140050000Y-69750000D03*
X140050000Y-80950000D03*
D17*
%TO.P,SW9,S1,S1_S1*%
%TO.N,/COL1*%
X147050000Y-77850000D03*
%TO.P,SW9,S2,S2_S2*%
%TO.N,Net-(D5-A)*%
X147050000Y-72850000D03*
%TD*%
D19*
%TO.P,J1,1,Pin_1_1*%
%TO.N,GND*%
X103000000Y-29920000D03*
D20*
%TO.P,J1,2,Pin_2_2*%
%TO.N,+3V3*%
X103000000Y-32460000D03*
%TO.P,J1,3,Pin_3_3*%
%TO.N,/OLED_SCL*%
X103000000Y-35000000D03*
%TO.P,J1,4,Pin_4_4*%
%TO.N,/OLED_SDA*%
X103000000Y-37540000D03*
%TD*%
D11*
%TO.P,D4,1,K_1*%
%TO.N,Net-(D1-K)*%
X115190000Y-107500000D03*
D12*
%TO.P,D4,2,A_2*%
%TO.N,Net-(D4-A)*%
X122810000Y-107500000D03*
%TD*%
D11*
%TO.P,D7,1,K_1*%
%TO.N,Net-(D1-K)*%
X171380000Y-97000000D03*
D12*
%TO.P,D7,2,A_2*%
%TO.N,Net-(D7-A)*%
X179000000Y-97000000D03*
%TD*%
D11*
%TO.P,D6,1,K_1*%
%TO.N,/ROW2*%
X157380000Y-107500000D03*
D12*
%TO.P,D6,2,A_2*%
%TO.N,Net-(D6-A)*%
X165000000Y-107500000D03*
%TD*%
D10*
%TO.P,SW3,1,1_1*%
%TO.N,/COL0*%
X123540000Y-90020000D03*
%TO.P,SW3,2,2_2*%
%TO.N,Net-(D3-A)*%
X117190000Y-92560000D03*
%TD*%
D21*
%TO.N,+5V*%
X105000000Y-80500000D03*
X157980000Y-104500000D03*
X160000000Y-104100000D03*
X100000000Y-65000000D03*
X127400001Y-107147158D03*
X127000000Y-102900000D03*
X113100000Y-101500000D03*
X126000000Y-40600000D03*
X100500000Y-88000000D03*
X181500000Y-43500000D03*
X136599998Y-104100000D03*
X169325735Y-80825735D03*
X134000000Y-104500000D03*
X111900000Y-101500000D03*
X101339265Y-85490736D03*
X169400000Y-45692822D03*
X173500000Y-63000000D03*
X170500000Y-82000000D03*
X173000000Y-46400000D03*
X178000000Y-43500000D03*
X173500000Y-61400000D03*
X105000000Y-78900000D03*
X170000000Y-71400000D03*
X100000000Y-68000000D03*
X139500000Y-42500000D03*
X173000000Y-48500000D03*
X171500000Y-45500000D03*
X138000000Y-43000000D03*
X142500000Y-42500000D03*
X160000000Y-102900000D03*
X156500000Y-104500000D03*
X141075735Y-42075735D03*
X126000000Y-39400000D03*
X170000000Y-74000000D03*
%TO.N,Net-(D16-DOUT)*%
X140500000Y-43500000D03*
X139825735Y-44674265D03*
%TO.N,GND*%
X155500000Y-108500000D03*
X155500000Y-111100000D03*
X177500000Y-46400000D03*
X109500000Y-68000000D03*
X112500000Y-74110000D03*
X132000000Y-105500000D03*
X164400000Y-109500000D03*
X177500000Y-48500000D03*
X132000000Y-104100000D03*
X132000000Y-93160000D03*
X109575735Y-85924265D03*
X176325735Y-43825735D03*
X130000000Y-85000000D03*
X131875735Y-102124265D03*
X178000000Y-30900000D03*
X134500000Y-105500000D03*
X177500000Y-32100000D03*
X133000000Y-111500000D03*
X132600001Y-108647158D03*
X157500000Y-45000000D03*
X180600000Y-66500000D03*
X133000000Y-109900000D03*
X129825735Y-87825735D03*
X132000000Y-91000000D03*
X112100000Y-66500000D03*
X132500000Y-101000000D03*
X112500000Y-82500000D03*
X176500000Y-45500000D03*
X129500000Y-87100000D03*
X177500000Y-34600000D03*
X177500000Y-33400000D03*
X112500000Y-72910000D03*
X166500000Y-109000000D03*
X178500000Y-68000000D03*
X131000000Y-88500000D03*
%TO.N,/COL2*%
X168500000Y-47600000D03*
X162000000Y-62500000D03*
X162000000Y-60900000D03*
X162000000Y-64400000D03*
X167500000Y-49500000D03*
X162000000Y-84400000D03*
X169000000Y-45000000D03*
X169400000Y-37000000D03*
X161500000Y-86000000D03*
X168624265Y-48375735D03*
%TO.N,/ROW2*%
X166500000Y-45500000D03*
X167000000Y-47600000D03*
%TO.N,Net-(D3-A)*%
X111900000Y-96000000D03*
X113100000Y-95500000D03*
%TO.N,Net-(D11-DOUT)*%
X162000000Y-104100000D03*
X162000000Y-102900000D03*
%TO.N,Net-(D14-DOUT)*%
X103000000Y-78900000D03*
X103000000Y-80100000D03*
X103500000Y-73000000D03*
X104174265Y-71825735D03*
%TO.N,Net-(D13-DOUT)*%
X115624697Y-105599758D03*
X114400000Y-105697065D03*
X113500000Y-105500000D03*
X111075735Y-86575735D03*
X112500000Y-103900000D03*
X112000000Y-87500000D03*
%TO.N,Net-(D7-A)*%
X168600000Y-90000000D03*
X167400000Y-90000000D03*
X167924265Y-83924265D03*
X167000000Y-81500000D03*
X167858578Y-71707108D03*
X167924265Y-63924265D03*
X168000000Y-68500000D03*
X170000000Y-90500000D03*
X167000000Y-61500000D03*
X172500001Y-90500000D03*
%TO.N,/COL1*%
X147674265Y-86825735D03*
X158500000Y-46000000D03*
X146500000Y-88000000D03*
X158000000Y-48500000D03*
%TO.N,Net-(D4-A)*%
X128500000Y-87100000D03*
X125000000Y-101000000D03*
X129000000Y-84000000D03*
X124400000Y-106199758D03*
%TO.N,/ROW1*%
X131000000Y-87500000D03*
X171500000Y-71000000D03*
X131000000Y-85900000D03*
X150100000Y-85000000D03*
X170000000Y-46400000D03*
X170500000Y-47600000D03*
X129900000Y-100000000D03*
X146500000Y-85000000D03*
X131100000Y-100500000D03*
X171500000Y-72600000D03*
%TO.N,/ROW0*%
X118500000Y-42500000D03*
X118174265Y-45674265D03*
X136000000Y-35000000D03*
X115000000Y-54500000D03*
X132075735Y-36924265D03*
X112400000Y-55000000D03*
%TO.N,/COL0*%
X123500000Y-87100000D03*
X123500000Y-84500000D03*
X123000000Y-42000000D03*
%TO.N,/OLED_SDA*%
X133000000Y-35000000D03*
X130000000Y-35000000D03*
%TO.N,/OLED_SCL*%
X130174265Y-33325735D03*
X128500000Y-33500000D03*
%TO.N,/ENC_A*%
X148000000Y-63000000D03*
X165000000Y-42000000D03*
X141990000Y-65500000D03*
X165000000Y-47600000D03*
X164500000Y-45500000D03*
%TO.N,/ENC_B*%
X165500000Y-39500000D03*
X171000000Y-39500000D03*
X162500000Y-48000000D03*
X131757793Y-62757793D03*
X131000000Y-60500000D03*
X162000000Y-45500000D03*
%TO.N,/LED_DATA*%
X176000000Y-60000000D03*
X176924265Y-61424265D03*
X178000000Y-45000000D03*
X176500000Y-48200000D03*
%TO.N,Net-(D1-K)*%
X112500000Y-107500000D03*
X110900000Y-107000000D03*
X129900000Y-103500000D03*
X158000000Y-103500000D03*
X156780000Y-103500000D03*
X115500000Y-103500000D03*
X136000000Y-103500000D03*
X115000000Y-105100000D03*
%TO.N,Net-(D10-DOUT)*%
X173500000Y-69500000D03*
X174000000Y-72600000D03*
%TO.N,Net-(D5-A)*%
X150100000Y-81500000D03*
X146192892Y-87100000D03*
X150100000Y-72500000D03*
%TD*%
%TO.N,+5V*%
D22*
X127000000Y-103500000D02*
X126000000Y-104500000D01*
X170000000Y-71400000D02*
X170000000Y-74000000D01*
X141075735Y-42075735D02*
X142075735Y-42075735D01*
X100500000Y-86330001D02*
X100500000Y-88000000D01*
X101339265Y-85490736D02*
X100500000Y-86330001D01*
X173000000Y-46400000D02*
X173000000Y-48500000D01*
X178000000Y-43500000D02*
X181500000Y-43500000D01*
X142075735Y-42075735D02*
X142500000Y-42500000D01*
X173500000Y-61400000D02*
X173500000Y-63000000D01*
X136599998Y-104100000D02*
X134400000Y-104100000D01*
X157980000Y-104500000D02*
X156500000Y-104500000D01*
X139000000Y-43000000D02*
X139500000Y-42500000D01*
X111900000Y-101500000D02*
X113100000Y-101500000D01*
X127000000Y-102900000D02*
X127000000Y-103500000D01*
X100000000Y-65000000D02*
X100000000Y-68000000D01*
X160000000Y-102900000D02*
X160000000Y-104100000D01*
X138000000Y-43000000D02*
X139000000Y-43000000D01*
X169400000Y-45692822D02*
X169592822Y-45500000D01*
X126000000Y-40600000D02*
X126000000Y-39400000D01*
X169592822Y-45500000D02*
X171500000Y-45500000D01*
X126000000Y-105747157D02*
X127400001Y-107147158D01*
X105000000Y-78900000D02*
X105000000Y-80500000D01*
X126000000Y-104500000D02*
X126000000Y-105747157D01*
X134400000Y-104100000D02*
X134000000Y-104500000D01*
X169325735Y-80825735D02*
X170500000Y-82000000D01*
%TO.N,Net-(D16-DOUT)*%
X139825735Y-44674265D02*
X139825735Y-44174265D01*
X139825735Y-44174265D02*
X140500000Y-43500000D01*
%TO.N,GND*%
X130500000Y-88500000D02*
X129825735Y-87825735D01*
X112500000Y-83000000D02*
X112500000Y-82500000D01*
X155500000Y-111100000D02*
X155500000Y-108500000D01*
X166000000Y-109500000D02*
X166500000Y-109000000D01*
X176500000Y-45500000D02*
X176500000Y-44000000D01*
X177500000Y-31400000D02*
X178000000Y-30900000D01*
X176500000Y-44000000D02*
X176325735Y-43825735D01*
X134500000Y-107806422D02*
X134500000Y-105500000D01*
X132000000Y-93160000D02*
X132000000Y-91000000D01*
X180000000Y-66500000D02*
X178500000Y-68000000D01*
X132000000Y-105500000D02*
X132000000Y-104100000D01*
X164400000Y-109500000D02*
X166000000Y-109500000D01*
X131875735Y-102124265D02*
X131875735Y-101624265D01*
X112500000Y-72910000D02*
X112500000Y-74110000D01*
X129500000Y-87100000D02*
X129500000Y-85500000D01*
X129500000Y-85500000D02*
X130000000Y-85000000D01*
X157500000Y-45000000D02*
X158674265Y-43825735D01*
X177500000Y-48500000D02*
X177500000Y-46400000D01*
X133000000Y-109900000D02*
X133000000Y-111500000D01*
X180600000Y-66500000D02*
X180000000Y-66500000D01*
X132852842Y-108647158D02*
X132600001Y-108647158D01*
X177500000Y-34600000D02*
X177500000Y-33400000D01*
X131875735Y-101624265D02*
X132500000Y-101000000D01*
X177500000Y-32100000D02*
X177500000Y-31400000D01*
X134500000Y-107806422D02*
X133693578Y-107806422D01*
X131000000Y-88500000D02*
X130500000Y-88500000D01*
X109575735Y-85924265D02*
X112500000Y-83000000D01*
X158674265Y-43825735D02*
X176325735Y-43825735D01*
X112100000Y-66500000D02*
X111000000Y-66500000D01*
X133693578Y-107806422D02*
X132852842Y-108647158D01*
X111000000Y-66500000D02*
X109500000Y-68000000D01*
%TO.N,/COL2*%
X162000000Y-85500000D02*
X161500000Y-86000000D01*
X169400000Y-37000000D02*
X172665000Y-37000000D01*
X162000000Y-64400000D02*
X162000000Y-66000000D01*
X167500000Y-49500000D02*
X168624265Y-48375735D01*
X172665000Y-37000000D02*
X173125000Y-36540000D01*
X162000000Y-66000000D02*
X161640000Y-66360000D01*
X162000000Y-60900000D02*
X162000000Y-62500000D01*
X168500000Y-45500000D02*
X169000000Y-45000000D01*
X168500000Y-47600000D02*
X168500000Y-45500000D01*
X162000000Y-84400000D02*
X162000000Y-85500000D01*
X161640000Y-66360000D02*
X161640000Y-70970000D01*
%TO.N,/ROW2*%
X166500000Y-47100000D02*
X166500000Y-45500000D01*
X167000000Y-47600000D02*
X166500000Y-47100000D01*
%TO.N,Net-(D3-A)*%
X111900000Y-96000000D02*
X112600000Y-96000000D01*
X112600000Y-96000000D02*
X113100000Y-95500000D01*
%TO.N,Net-(D11-DOUT)*%
X162000000Y-104100000D02*
X162000000Y-102900000D01*
%TO.N,Net-(D14-DOUT)*%
X103500000Y-72500000D02*
X104174265Y-71825735D01*
X103500000Y-73000000D02*
X103500000Y-72500000D01*
X103000000Y-80100000D02*
X103000000Y-78900000D01*
%TO.N,Net-(D13-DOUT)*%
X115524455Y-105700000D02*
X115624697Y-105599758D01*
X114402935Y-105700000D02*
X115524455Y-105700000D01*
X111075735Y-86575735D02*
X112000000Y-87500000D01*
X112500000Y-103900000D02*
X112500000Y-104500000D01*
X114400000Y-105697065D02*
X114402935Y-105700000D01*
X113500000Y-105500000D02*
X113751471Y-105500000D01*
X112500000Y-104500000D02*
X113500000Y-105500000D01*
%TO.N,Net-(D7-A)*%
X167924265Y-63924265D02*
X167000000Y-63000000D01*
X167000000Y-83000000D02*
X167000000Y-81500000D01*
X168600000Y-90000000D02*
X167400000Y-90000000D01*
X167000000Y-63000000D02*
X167000000Y-61500000D01*
X167924265Y-83924265D02*
X167000000Y-83000000D01*
X167858578Y-71707108D02*
X167858578Y-68641422D01*
X167858578Y-68641422D02*
X168000000Y-68500000D01*
X172500001Y-90500000D02*
X170000000Y-90500000D01*
%TO.N,/COL1*%
X147674265Y-86825735D02*
X146500000Y-88000000D01*
X158000000Y-46500000D02*
X158500000Y-46000000D01*
X158000000Y-48500000D02*
X158000000Y-46500000D01*
%TO.N,Net-(D4-A)*%
X124400000Y-101600000D02*
X125000000Y-101000000D01*
X128500000Y-84500000D02*
X129000000Y-84000000D01*
X124400000Y-106199758D02*
X124400000Y-101600000D01*
X128500000Y-87100000D02*
X128500000Y-84500000D01*
%TO.N,/ROW1*%
X150100000Y-85000000D02*
X146500000Y-85000000D01*
X171500000Y-72600000D02*
X171500000Y-71000000D01*
X130600000Y-100000000D02*
X131100000Y-100500000D01*
X170500000Y-46900000D02*
X170000000Y-46400000D01*
X129900000Y-100000000D02*
X130600000Y-100000000D01*
X170500000Y-47600000D02*
X170500000Y-46900000D01*
X131000000Y-85900000D02*
X131000000Y-87500000D01*
%TO.N,/ROW0*%
X118000000Y-43000000D02*
X118500000Y-42500000D01*
X118174265Y-45674265D02*
X118000000Y-45500000D01*
X114500000Y-55000000D02*
X115000000Y-54500000D01*
X118000000Y-45500000D02*
X118000000Y-43000000D01*
X112400000Y-55000000D02*
X114500000Y-55000000D01*
X134000000Y-35000000D02*
X136000000Y-35000000D01*
X132075735Y-36924265D02*
X134000000Y-35000000D01*
%TO.N,/COL0*%
X123000000Y-41000000D02*
X130000000Y-34000000D01*
X123500000Y-87100000D02*
X123500000Y-84500000D01*
X123000000Y-42000000D02*
X123000000Y-41000000D01*
X130000000Y-34000000D02*
X157875000Y-34000000D01*
%TO.N,/OLED_SDA*%
X130000000Y-35000000D02*
X133000000Y-35000000D01*
%TO.N,/OLED_SCL*%
X128500000Y-33500000D02*
X130000000Y-33500000D01*
X130000000Y-33500000D02*
X130174265Y-33325735D01*
%TO.N,/ENC_A*%
X165000000Y-47600000D02*
X165000000Y-46000000D01*
X145500000Y-65500000D02*
X148000000Y-63000000D01*
X172745000Y-42000000D02*
X173125000Y-41620000D01*
X165000000Y-46000000D02*
X164500000Y-45500000D01*
X141990000Y-65500000D02*
X145500000Y-65500000D01*
X165000000Y-42000000D02*
X172745000Y-42000000D01*
%TO.N,/ENC_B*%
X162500000Y-46000000D02*
X162000000Y-45500000D01*
X162500000Y-48000000D02*
X162500000Y-46000000D01*
X131000000Y-62000000D02*
X131000000Y-60500000D01*
X131757793Y-62757793D02*
X131000000Y-62000000D01*
X165500000Y-39500000D02*
X171000000Y-39500000D01*
%TO.N,/LED_DATA*%
X176500000Y-48200000D02*
X176500000Y-46500000D01*
X176924265Y-61424265D02*
X176924265Y-60924265D01*
X176500000Y-46500000D02*
X178000000Y-45000000D01*
X176924265Y-60924265D02*
X176000000Y-60000000D01*
%TO.N,Net-(D1-K)*%
X115000000Y-104000000D02*
X115500000Y-103500000D01*
X110900000Y-107000000D02*
X112000000Y-107000000D01*
X112000000Y-107000000D02*
X112500000Y-107500000D01*
X115000000Y-105100000D02*
X115000000Y-104000000D01*
X156780000Y-103500000D02*
X158000000Y-103500000D01*
X129900000Y-103500000D02*
X136000000Y-103500000D01*
%TO.N,Net-(D10-DOUT)*%
X174000000Y-70000000D02*
X173500000Y-69500000D01*
X174000000Y-72600000D02*
X174000000Y-70000000D01*
%TO.N,Net-(D5-A)*%
X146192892Y-87100000D02*
X145900000Y-86807108D01*
X149750000Y-72850000D02*
X147050000Y-72850000D01*
X150100000Y-72500000D02*
X149750000Y-72850000D01*
X145900000Y-84751471D02*
X149151471Y-81500000D01*
X149151471Y-81500000D02*
X150100000Y-81500000D01*
X145900000Y-86807108D02*
X145900000Y-84751471D01*
%TD*%
M02*
